<svg width="310" height="315" viewBox="0 0 310 315" fill="none" xmlns="http://www.w3.org/2000/svg">
<path fill-rule="evenodd" clip-rule="evenodd" d="M79.6495 305.473C50.4292 300.717 14.1918 290.63 3.32545 263.091C-8.06823 234.216 28.325 206.027 28.1614 174.986C28.0044 145.201 -7.13567 119.22 2.41843 91.0079C11.6427 63.77 48.313 58.7954 72.6811 43.525C97.1865 28.1687 117.572 2.17106 146.456 0.746851C175.392 -0.679879 204.579 14.7844 224.253 36.0515C242.434 55.7051 234.547 88.3638 248.592 111.157C262.586 133.867 295.657 141.273 304.579 166.411C314.034 193.05 309.145 223.643 297.684 249.482C285.853 276.156 267.755 305.357 239.581 312.95C210.806 320.706 185.131 289.233 155.362 287.841C129.029 286.61 105.669 309.709 79.6495 305.473Z" fill="url(#paint0_linear_8754_5074)"/>
<defs>
<linearGradient id="paint0_linear_8754_5074" x1="73.1581" y1="313.693" x2="225.68" y2="29.5171" gradientUnits="userSpaceOnUse">
<stop stop-color="#FAC71C"/>
<stop offset="1" stop-color="#E5A60C"/>
</linearGradient>
</defs>
</svg>
