<svg width="154" height="154" viewBox="0 0 154 154" fill="none" xmlns="http://www.w3.org/2000/svg">
<path d="M23.4667 53.6239C8.97934 46.8641 16.262 40.8471 21.5753 46.541C11.2688 35.1464 20.6848 36.3784 22.2522 38.6151C15.3309 28.7626 22.6114 29.7091 23.7339 31.2543C23.3949 29.6077 23.5103 27.8999 24.0677 26.3139C24.1829 26.0275 24.3914 25.7884 24.6594 25.6354C24.9274 25.4823 25.2393 25.4243 25.5444 25.4706C25.8496 25.517 26.1301 25.665 26.3406 25.8908C26.5511 26.1165 26.6792 26.4067 26.7041 26.7144C26.8335 28.3224 26.8159 28.8959 26.943 30.8446C32.3489 23.9647 32.5725 31.304 29.672 35.1418C34.4998 33.1724 32.0319 38.7276 30.4377 40.4329C35.6813 36.9543 33.2333 44.3105 31.6529 46.3748C38.7817 42.2545 37.725 46.4851 36.4723 48.0931C35.264 49.7011 30.7716 52.9439 29.672 53.6239H23.4667Z" fill="#FFC830"/>
<path d="M64.8061 48.4414C63.9255 44.0623 59.7248 45.9911 57.9032 48.2967C57.9361 41.6687 58.2179 34.6547 56.776 32.9778C52.8204 29.6424 45.5055 34.2075 46.6388 39.3286C36.6148 36.8684 40.7688 50.1252 41.7481 53.5533H64.0067C64.8695 51.9976 65.1527 50.1863 64.8061 48.4414Z" fill="#FFC830"/>
<path d="M55.2031 127.926C55.196 127.955 55.1797 127.979 55.1568 127.997C55.1339 128.015 55.1057 128.025 55.0768 128.024H50.167C50.167 127.881 50.1303 127.849 49.7351 125.328C49.7321 125.309 49.7337 125.288 49.7398 125.269C49.746 125.25 49.7564 125.233 49.7704 125.219C50.8889 124.056 52.0706 122.955 53.3103 121.923C53.8003 121.514 53.0905 120.816 52.6096 121.222C51.6086 122.055 50.6469 122.932 49.7244 123.852C49.7071 123.869 49.6854 123.881 49.6619 123.886C49.6383 123.891 49.6137 123.89 49.5909 123.882C49.5681 123.874 49.548 123.86 49.5327 123.841C49.5175 123.822 49.5078 123.799 49.5047 123.776C49.3776 122.884 49.2579 121.993 49.1456 121.101C49.1429 121.076 49.147 121.052 49.1574 121.03C49.1678 121.007 49.1841 120.988 49.2045 120.975C49.2704 120.93 49.9763 120.18 52.7207 117.309C53.1602 116.85 52.4611 116.147 52.0208 116.608C51.0729 117.599 50.1257 118.591 49.1792 119.582C49.1618 119.599 49.1402 119.61 49.1167 119.616C49.0932 119.621 49.0687 119.619 49.046 119.611C49.0233 119.603 49.0033 119.589 48.988 119.571C48.9727 119.552 48.9629 119.53 48.9595 119.506C48.8462 118.524 48.7441 117.541 48.6532 116.556C48.6509 116.531 48.6562 116.505 48.6683 116.483C48.6804 116.461 48.6989 116.442 48.7213 116.43C49.7334 115.322 50.8128 114.277 51.9534 113.302C52.4458 112.895 51.7406 112.198 51.2536 112.601C50.3614 113.338 49.5173 114.131 48.7267 114.975C48.7098 114.994 48.6877 115.007 48.6632 115.014C48.6387 115.02 48.6129 115.019 48.5889 115.011C48.565 115.003 48.5439 114.988 48.5284 114.968C48.5129 114.948 48.5036 114.924 48.5016 114.899C48.4179 113.895 48.3446 112.892 48.2818 111.889C48.2804 111.868 48.284 111.848 48.2924 111.828C48.3008 111.809 48.3137 111.792 48.3301 111.779C48.4832 111.654 49.3722 110.434 51.4266 108.196C51.8569 107.726 51.1571 107.023 50.7252 107.496C49.9319 108.361 49.1596 109.245 48.4082 110.148C48.3914 110.168 48.369 110.183 48.3439 110.19C48.3187 110.197 48.292 110.196 48.2673 110.188C48.2425 110.18 48.2208 110.164 48.2049 110.143C48.1891 110.123 48.1799 110.098 48.1785 110.072C48.1315 109.153 48.0924 108.234 48.0613 107.315C48.0406 106.679 47.0506 106.676 47.0728 107.315C47.1059 108.34 47.1506 109.365 47.2068 110.391C47.2073 110.415 47.2012 110.438 47.1892 110.459C47.1771 110.48 47.1596 110.497 47.1386 110.508C47.1175 110.52 47.0938 110.525 47.0698 110.524C47.0459 110.522 47.0228 110.515 47.0031 110.501L45.3882 109.395C44.8606 109.033 44.3644 109.891 44.8874 110.249L47.2428 111.864C47.3408 111.931 47.2573 111.817 47.5184 114.97C47.5204 114.994 47.5155 115.018 47.5045 115.04C47.4934 115.061 47.4765 115.079 47.4558 115.092C47.435 115.104 47.4111 115.111 47.3869 115.111C47.3627 115.11 47.339 115.103 47.3186 115.09L45.2618 113.77C44.7258 113.422 44.2266 114.279 44.7618 114.625C47.8201 116.602 47.647 116.463 47.6555 116.553C47.7576 117.631 47.8711 118.707 47.9962 119.78C47.9989 119.803 47.9953 119.827 47.9859 119.848C47.9765 119.869 47.9615 119.887 47.9426 119.901C47.9237 119.914 47.9015 119.923 47.8783 119.925C47.8552 119.927 47.8319 119.923 47.8109 119.913C47.011 119.51 46.2732 118.994 45.6202 118.381C45.1554 117.942 44.4533 118.645 44.9203 119.081C45.8455 119.946 46.9198 120.637 48.0912 121.119C48.2129 121.171 48.1111 121.011 48.5644 124.141C48.5682 124.165 48.5651 124.19 48.5555 124.212C48.5459 124.234 48.5301 124.254 48.51 124.268C48.4899 124.281 48.4663 124.289 48.4419 124.29C48.4175 124.291 48.3934 124.285 48.3722 124.273C47.8056 123.956 47.258 123.606 46.732 123.225C46.2129 122.853 45.719 123.712 46.232 124.083C47.0149 124.651 47.8464 125.15 48.7168 125.573C48.8232 125.618 48.7481 125.502 49.1532 127.871C49.1592 127.905 49.1513 127.941 49.1312 127.969C49.1111 127.998 49.0805 128.018 49.046 128.024H34.4829C34.4497 128.024 34.4177 128.011 34.3935 127.988C34.3694 127.966 34.3551 127.934 34.3535 127.901C34.28 126.592 34.2121 125.282 34.1498 123.972C34.149 123.951 34.1537 123.93 34.1633 123.91C34.1729 123.891 34.1873 123.875 34.2049 123.863C35.417 122.909 36.5421 121.849 37.5672 120.697C37.9891 120.22 37.29 119.517 36.8658 119.994C36.0687 120.894 35.2073 121.734 34.2884 122.509C34.2697 122.526 34.2466 122.537 34.2218 122.541C34.197 122.545 34.1715 122.542 34.1484 122.532C34.1253 122.522 34.1055 122.506 34.0914 122.485C34.0772 122.464 34.0693 122.44 34.0686 122.415C33.9829 120.628 33.9017 118.842 33.8251 117.055C33.8241 117.036 33.8272 117.018 33.8343 117.001C33.8413 116.984 33.852 116.968 33.8657 116.956C33.9882 116.837 34.1016 116.709 34.208 116.607L37.2142 113.742C37.6736 113.302 36.9761 112.6 36.5143 113.042L33.7669 115.66C33.5617 110.771 33.5571 111.051 33.6391 110.989C33.8895 110.764 34.1238 110.521 34.3405 110.264L37.4493 107.115C37.8972 106.661 37.1973 105.959 36.7486 106.414L33.7478 109.46C33.7296 109.477 33.707 109.488 33.6826 109.492C33.6582 109.497 33.6331 109.495 33.61 109.485C33.587 109.476 33.5671 109.46 33.5526 109.44C33.538 109.42 33.5295 109.396 33.528 109.372C33.4928 108.364 33.3803 104.897 33.3581 104.171C33.3581 104.094 33.1437 104.354 36.4592 100.849C36.8987 100.39 36.1989 99.6846 35.7593 100.149L33.5303 102.491C33.513 102.511 33.49 102.525 33.4643 102.532C33.4387 102.538 33.4117 102.537 33.3868 102.528C33.362 102.519 33.3404 102.503 33.325 102.481C33.3096 102.46 33.3011 102.434 33.3006 102.408L33.2325 99.9312C33.2274 99.8035 33.1732 99.6827 33.081 99.5941C32.9889 99.5055 32.866 99.456 32.7382 99.456C32.6104 99.456 32.4875 99.5055 32.3954 99.5941C32.3032 99.6827 32.249 99.8035 32.2439 99.9312C32.2725 101.008 32.3024 102.085 32.3335 103.163C32.1153 102.927 29.7094 100.504 29.786 100.581C29.6922 100.493 29.5679 100.445 29.4393 100.447C29.3108 100.449 29.188 100.501 29.0971 100.592C29.0061 100.683 28.9541 100.806 28.9519 100.934C28.9497 101.063 28.9975 101.187 29.0854 101.281L30.9997 103.212C31.352 103.668 31.7907 104.05 32.2906 104.336C32.4155 104.382 32.3488 104.016 32.5372 109.372C32.5383 109.397 32.5323 109.422 32.52 109.443C32.5076 109.465 32.4893 109.483 32.4673 109.494C32.4453 109.506 32.4205 109.511 32.3957 109.509C32.3709 109.507 32.3472 109.498 32.3274 109.483L29.5953 107.378C29.0976 106.995 28.387 107.689 28.8955 108.078L32.5449 110.902C32.6253 110.965 32.5709 110.652 32.7861 115.808C32.7877 115.833 32.7818 115.858 32.7692 115.88C32.7566 115.903 32.7378 115.921 32.7151 115.932C32.6924 115.944 32.6668 115.949 32.6415 115.946C32.6162 115.943 32.5922 115.933 32.5724 115.917C31.8413 115.22 30.9972 114.653 30.0762 114.239C29.4789 114.019 29.2194 114.974 29.8128 115.194C30.8894 115.598 32.0181 116.919 32.7662 117.217C32.7899 117.226 32.8105 117.242 32.8254 117.263C32.8404 117.284 32.849 117.308 32.8504 117.334C32.927 118.995 33.0801 122.436 33.0801 122.436C33.0819 122.462 33.0758 122.489 33.0626 122.511C33.0493 122.534 33.0296 122.552 33.0059 122.563C32.9822 122.575 32.9556 122.579 32.9297 122.575C32.9037 122.571 32.8796 122.559 32.8603 122.541C32.5349 122.265 30.8243 120.738 30.9032 120.808C30.4284 120.386 29.7255 121.084 30.2033 121.509C33.0724 124.062 32.8198 123.892 33.0893 124.036C33.1934 124.09 33.1391 123.84 33.3535 127.895C33.3553 127.929 33.3436 127.963 33.3208 127.989C33.298 128.014 33.266 128.03 33.2317 128.032H4.38802C4.37059 128.032 4.35338 128.028 4.33737 128.021C4.32137 128.014 4.30689 128.004 4.29479 127.992C4.28268 127.979 4.27318 127.965 4.26684 127.948C4.2605 127.932 4.25744 127.915 4.25785 127.897C4.29154 125.91 4.98987 121.461 6.58792 120.495C8.24186 119.5 10.4624 119.964 12.0122 121.118C13.376 122.256 14.4944 123.659 15.2994 125.243C15.3142 125.267 15.3363 125.286 15.3626 125.296C15.3889 125.307 15.4179 125.308 15.4452 125.301C15.4725 125.294 15.4968 125.278 15.5142 125.255C15.5317 125.233 15.5415 125.206 15.5422 125.178C15.4965 123.007 15.671 120.838 16.0629 118.703C17.2536 113.157 20.8555 110.375 25.0983 110.344C25.1173 110.344 25.1361 110.34 25.1532 110.332C25.1704 110.324 25.1856 110.312 25.1978 110.297C25.2099 110.283 25.2187 110.266 25.2234 110.247C25.2282 110.229 25.2289 110.21 25.2254 110.191C24.4252 106.042 23.9742 101.755 25.57 97.9105C25.9514 96.9548 26.4897 96.0694 27.1627 95.291C30.2753 91.7916 36.7486 91.3728 39.4807 94.853C42.4325 98.6172 40.6408 106.574 39.7793 110.974C39.4087 112.868 39.0675 114.764 38.7556 116.661C38.7515 116.684 38.754 116.708 38.7629 116.731C38.7718 116.753 38.7867 116.772 38.8059 116.786C38.8251 116.801 38.8478 116.809 38.8717 116.811C38.8955 116.814 38.9195 116.809 38.9409 116.798C40.1822 116.185 41.5873 115.986 42.9502 116.229C42.9704 116.233 42.9911 116.232 43.0108 116.226C43.0304 116.22 43.0484 116.209 43.0632 116.195C43.0781 116.181 43.0895 116.164 43.0964 116.144C43.1034 116.125 43.1057 116.104 43.1033 116.084C42.797 113.837 42.5106 111.555 42.2733 109.14C42.0435 106.825 41.8782 104.274 43.2457 102.393C44.696 100.402 47.6103 99.8209 49.9136 100.688C51.0485 101.177 52.0713 101.893 52.9189 102.792C53.7665 103.691 54.4209 104.754 54.8417 105.916C55.759 108.202 57.1496 120.488 55.2031 127.926Z" fill="#2D2D2D"/>
<path d="M80.8396 78.6857C80.8396 78.6857 91.3399 77.4966 96.1953 80.2708C96.1953 80.2708 101.359 98.4404 103.384 101.591C105.408 104.742 106.796 106.525 108.579 107.615L110.462 121.337H56.0703V112.667C56.0703 112.667 67.3646 115.838 71.3272 98.7972C72.4704 93.8889 73.1014 88.8752 73.2101 83.8367C73.2101 83.8367 77.4713 89.3851 81.3335 87.9019C86.2502 86.009 80.8396 78.6857 80.8396 78.6857Z" fill="#FFC830"/>
<path d="M81.6291 57.2426C81.6291 57.2426 78.0632 59.1262 78.3595 62.7909C78.4402 63.8393 78.8058 64.8458 79.4169 65.7015C80.028 66.5572 80.8612 67.2297 81.8267 67.6463L74.5945 66.4595C74.5945 66.4595 71.1886 66.6042 71.8203 62.7932C72.4145 59.2273 74.5945 58.728 74.5945 58.728L81.6291 57.2426Z" fill="#FFC830"/>
<path d="M88.2843 61.4763C86.2727 55.6041 79.1309 59.2228 80.9334 64.1778C82.912 68.1074 89.8088 65.9282 88.2843 61.4763ZM85.5706 62.7658C84.8416 62.778 84.6701 61.0544 85.5706 60.9411C86.3003 60.9288 86.4718 62.6517 85.5706 62.7658Z" fill="#FFC830"/>
<path d="M65.9289 63.7955C64.5873 63.5612 66.0384 69.1073 67.8699 69.2321C58.0918 78.2675 52.9286 86.7011 50.832 93.7442L51.535 93.9463C54.3313 84.3902 62.925 76.1312 69.3447 68.9434C64.0245 66.0046 68.0514 64.1669 65.9289 63.7955Z" fill="#2D2D2D"/>
<path d="M68.8001 60.6661C66.8858 57.4738 67.2326 68.4174 69.3322 66.4044C68.9609 64.5919 67.8567 62.6355 68.8001 60.6661Z" fill="#2D2D2D"/>
<path d="M71.471 58.8874C68.451 61.6998 69.6624 67.3745 70.8416 66.2926C71.2604 65.8071 70.7313 65.3875 70.6594 64.7611C69.6777 60.8568 73.9979 58.4731 71.471 58.8874Z" fill="#2D2D2D"/>
<path d="M84.5315 69.3623C82.3998 69.9382 84.0499 72.7368 85.6862 72.2185C87.2177 71.5178 85.9098 69.2314 84.5315 69.3623ZM84.5124 71.0017C84.0828 70.2781 84.7421 69.9029 85.2712 70.5622C86.089 71.5377 85.0078 71.6411 84.5124 71.0017Z" fill="#2D2D2D"/>
<path d="M99.5816 54.2648C96.2293 54.4072 92.878 54.5902 89.5278 54.8138C89.3685 52.3972 89.9359 49.5021 88.8685 47.2616C85.9756 41.6589 76.9065 39.9237 72.3888 43.7745C69.3857 46.0073 67.3971 49.9983 67.9768 53.3L69.7279 53.0803C69.7846 53.5343 69.8681 54.2679 69.9577 54.9218L68.2838 55.1668L68.6667 56.9379C67.5686 57.0474 59.7966 58.0536 63.5525 58.7396C89.8777 54.3437 103.011 56.3315 99.5816 54.2648ZM87.932 52.287C88.0622 51.8819 87.5836 50.584 88.5224 50.731C88.429 51.1951 88.8716 52.4256 87.932 52.287ZM86.9795 50.9248L86.9412 52.4332L72.5932 54.5313C72.5366 54.0925 72.457 53.3827 72.3735 52.7464L86.9795 50.9248ZM70.7019 52.9554L71.4018 52.8704C71.3513 53.4685 72.1055 54.9379 70.9286 54.7778C70.8515 54.1699 70.776 53.5624 70.7019 52.9554Z" fill="#2D2D2D"/>
<path d="M97.1841 58.6593C91.3317 56.931 90.2207 64.762 95.1549 66.1518C99.5119 66.7705 101.704 59.9939 97.1841 58.6593ZM96.8127 62.6609C96.0906 62.6724 95.9214 60.9694 96.8127 60.8576C97.5332 60.8469 97.7025 62.5483 96.8127 62.6609ZM100.029 59.1386C98.5516 57.1477 93.7047 55.6217 91.6686 58.791C91.1821 58.4893 90.6212 58.3288 90.0487 58.3275C89.4762 58.3261 88.9146 58.4839 88.4266 58.7833C84.7695 53.859 77.2548 59.549 79.4838 64.703C82.8047 70.4597 91.5875 67.0522 89.3171 60.5544C89.5562 60.4313 89.8184 60.3595 90.0868 60.3434C90.3552 60.3273 90.624 60.3674 90.8761 60.461C89.4542 73.0677 105.688 66.7536 100.026 59.1363L100.029 59.1386ZM86.4947 66.5101C78.4034 68.7919 77.774 59.1478 83.6516 57.6332C88.9879 56.7396 91.2965 64.6862 86.4947 66.5101ZM100.295 63.3891C97.0792 70.831 89.5208 65.7161 91.4741 60.3193C93.7575 55.1048 102.094 58.235 100.291 63.3891H100.295Z" fill="#FFC830"/>
<path d="M88.7239 68.4611C87.6771 68.5928 88.4337 72.8501 87.8448 73.9183C85.527 76.122 79.8814 73.8494 78.1011 73.3494C76.5038 74.4107 80.0422 74.8555 80.7666 75.2637C80.6285 76.5281 80.7298 77.8072 81.0652 79.034C81.0652 79.034 81.785 79.5034 81.9542 78.9437C81.687 78.5157 81.8516 77.5731 81.7597 75.5018C89.021 77.0998 90.2997 73.1587 88.7239 68.4611Z" fill="#2D2D2D"/>
<path d="M147.702 71.1978C146.254 70.3302 144.313 70.7383 142.955 71.7475C141.761 72.7429 140.783 73.9705 140.079 75.3556C140.07 75.3826 140.051 75.4053 140.027 75.4189C140.002 75.4325 139.973 75.4361 139.945 75.4288C139.918 75.4215 139.894 75.4039 139.88 75.3798C139.865 75.3556 139.86 75.3266 139.866 75.2989C139.907 73.3996 139.754 71.5011 139.41 69.6326C138.362 64.7474 135.177 62.3369 131.509 62.3201C131.492 62.3206 131.475 62.3173 131.46 62.3104C131.445 62.3035 131.431 62.2932 131.421 62.2802C131.41 62.2673 131.403 62.252 131.399 62.2357C131.395 62.2194 131.395 62.2024 131.399 62.1861C132.097 58.5573 132.492 54.8076 131.097 51.4446C130.625 50.2195 129.836 49.1422 128.809 48.3237C127.783 47.5051 126.557 46.9749 125.258 46.7876C122.971 46.3718 120.364 46.9407 118.929 48.7646C118.104 49.9405 117.634 51.3282 117.574 52.7632C117.182 57.0604 118.367 60.562 119.564 67.8478C119.569 67.8688 119.568 67.8908 119.56 67.911C119.553 67.9313 119.539 67.9488 119.522 67.9616C119.504 67.9743 119.484 67.9816 119.462 67.9826C119.441 67.9836 119.419 67.9783 119.401 67.9672C118.301 67.4238 117.056 67.2492 115.849 67.4695C115.629 67.4304 115.86 67.6686 116.486 61.2672C116.685 59.2411 116.832 57.0121 115.635 55.3643C114.945 54.5312 114.009 53.9381 112.961 53.6703C111.914 53.4026 110.808 53.474 109.803 53.8742C108.81 54.3014 107.916 54.9274 107.174 55.7136C106.433 56.4998 105.86 57.4296 105.492 58.4456C104.89 59.9479 104.05 66.4289 104.4 72.3165C104.4 72.3165 101.67 69.1839 100.342 67.5997L99.5609 68.2995C101.049 69.9726 106.778 76.4475 107.925 77.7944C116.672 88.0649 125.418 100.287 120.078 106.585C103.758 120.467 97.1328 76.459 95.7561 76.7408C94.7928 76.9353 95.7882 78.1405 96.0195 80.5862C97.8319 88.519 100.078 96.3293 104.33 103.218C112.781 117.112 128.215 108.055 120.677 94.1056C117.638 88.1583 113.508 82.8895 109.152 77.7898H109.574C109.574 77.759 109.577 77.7283 109.582 77.6979C109.712 76.9439 109.835 76.1882 109.952 75.4306C109.955 75.4133 109.953 75.3955 109.948 75.3787C109.943 75.3619 109.933 75.3466 109.921 75.3342C108.943 74.3169 107.91 73.3547 106.825 72.452C106.396 72.0937 107.013 71.4841 107.438 71.8394C108.317 72.5679 109.159 73.3349 109.965 74.1404C109.979 74.157 109.998 74.169 110.019 74.1749C110.04 74.1807 110.062 74.1802 110.083 74.1733C110.104 74.1664 110.122 74.1535 110.136 74.1361C110.149 74.1188 110.157 74.0979 110.158 74.0761C110.269 73.2966 110.374 72.5166 110.472 71.7361C110.482 71.6472 110.412 71.6289 110.349 71.5645L107.345 68.4205C106.962 68.017 107.575 67.4029 107.958 67.8079C110.634 70.6074 110.449 70.4489 110.526 70.4504C110.54 70.4508 110.555 70.4484 110.568 70.4432C110.582 70.438 110.594 70.4302 110.605 70.4203C110.615 70.4103 110.623 70.3984 110.629 70.3851C110.635 70.3719 110.638 70.3577 110.639 70.3432C110.741 69.4841 110.831 68.6247 110.91 67.7651C110.92 67.6632 110.833 67.6701 110.74 67.5637C109.905 66.6103 108.995 65.7256 108.018 64.9181C107.588 64.5628 108.205 63.9541 108.631 64.3056C110.448 65.8163 110.759 66.432 110.919 66.4281C110.933 66.4279 110.947 66.4249 110.961 66.4191C110.974 66.4134 110.986 66.4051 110.996 66.3947C111.006 66.3843 111.014 66.372 111.019 66.3585C111.024 66.3451 111.026 66.3307 111.026 66.3163C111.098 65.4373 111.162 64.5583 111.218 63.6792C111.218 63.6026 111.158 63.5789 111.109 63.5169C110.264 62.4663 109.385 61.4438 108.472 60.4494C108.096 60.039 108.707 59.4241 109.084 59.8369C111.152 62.1049 111.075 62.2106 111.207 62.206C111.221 62.2055 111.235 62.2021 111.248 62.1961C111.262 62.1901 111.273 62.1816 111.283 62.1709C111.293 62.1603 111.301 62.1479 111.306 62.1343C111.311 62.1208 111.313 62.1063 111.312 62.0919C111.354 61.2904 111.388 60.487 111.415 59.6814C111.433 59.124 112.299 59.1209 112.281 59.6814C112.251 60.5788 112.212 61.475 112.163 62.3698C112.16 62.3917 112.164 62.414 112.174 62.4337C112.184 62.4534 112.2 62.4697 112.219 62.4804C112.238 62.4912 112.26 62.4959 112.282 62.4939C112.304 62.4919 112.325 62.4834 112.342 62.4694L113.756 61.5008C114.219 61.1853 114.652 61.9357 114.195 62.2489C111.945 63.7895 112.089 63.6708 112.086 63.7481C111.917 66.4281 111.856 66.3921 111.913 66.4687C111.931 66.4913 111.957 66.5059 111.986 66.5096C112.015 66.5134 112.043 66.5058 112.067 66.4886L113.864 65.3286C114.335 65.0223 114.77 65.7742 114.303 66.0767L111.822 67.6793C111.734 67.7352 111.812 67.6448 111.473 70.589C111.469 70.6097 111.471 70.6312 111.479 70.6508C111.486 70.6704 111.5 70.6874 111.517 70.6997C111.534 70.712 111.554 70.7191 111.575 70.7201C111.596 70.7211 111.617 70.716 111.635 70.7054C112.335 70.3537 112.98 69.9023 113.55 69.3654C113.956 68.9825 114.57 69.5951 114.162 69.978C113.353 70.7337 112.413 71.3364 111.389 71.7567C111.37 71.7643 111.354 71.7766 111.342 71.7925C111.33 71.8084 111.322 71.8272 111.32 71.8471C110.994 74.4505 110.937 74.4092 110.991 74.4865C110.999 74.4987 111.009 74.5091 111.021 74.5173C111.033 74.5254 111.047 74.5311 111.061 74.5339C111.075 74.5368 111.09 74.5368 111.104 74.5339C111.118 74.531 111.132 74.5253 111.144 74.5171C111.639 74.2375 112.118 73.9307 112.579 73.5983C113.034 73.2705 113.467 74.0225 113.018 74.3456C112.334 74.8432 111.607 75.2788 110.845 75.6473C110.827 75.6546 110.812 75.6664 110.8 75.6815C110.788 75.6967 110.78 75.7147 110.777 75.7339C110.533 77.3901 110.459 77.6481 110.46 77.6834C110.46 77.6978 110.464 77.7121 110.469 77.7253C110.475 77.7385 110.484 77.7504 110.494 77.7604C110.505 77.7704 110.517 77.7782 110.53 77.7833C110.544 77.7885 110.558 77.791 110.573 77.7906H123.303C123.318 77.7907 123.332 77.7879 123.346 77.7824C123.359 77.777 123.371 77.7689 123.381 77.7588C123.392 77.7486 123.4 77.7365 123.405 77.7231C123.411 77.7098 123.414 77.6955 123.414 77.6811C123.474 76.5356 123.533 75.3903 123.591 74.2453C123.601 74.0922 123.276 74.0592 122.114 72.9229C121.585 72.4318 121.082 71.9165 120.604 71.3769C120.234 70.9619 120.846 70.3463 121.217 70.7644C121.914 71.5504 122.668 72.2849 123.471 72.962C123.488 72.9756 123.508 72.9844 123.529 72.9874C123.55 72.9903 123.572 72.9874 123.591 72.9788C123.611 72.9702 123.628 72.9564 123.64 72.9388C123.652 72.9212 123.659 72.9006 123.66 72.8793C123.735 71.3162 123.806 69.7529 123.873 68.1893C123.874 68.1732 123.872 68.1571 123.866 68.1421C123.86 68.1272 123.85 68.1137 123.839 68.1027C123.731 67.9994 123.63 67.886 123.538 67.7965L120.914 65.2926C120.509 64.9097 121.123 64.2971 121.526 64.68C121.603 64.7566 123.85 66.9006 123.929 66.9703C123.986 65.643 124.038 64.313 124.087 62.9801C124.088 62.9615 124.084 62.9429 124.076 62.9261C124.068 62.9093 124.055 62.895 124.04 62.8844C123.822 62.6869 123.617 62.4748 123.427 62.2496L120.711 59.4931C120.319 59.0987 120.93 58.4823 121.323 58.8805L123.956 61.5444C123.971 61.5621 123.991 61.5746 124.013 61.5803C124.035 61.586 124.059 61.5845 124.081 61.576C124.102 61.5675 124.12 61.5526 124.133 61.5331C124.145 61.5137 124.151 61.4909 124.15 61.4678C124.182 60.5842 124.3 56.9187 124.3 56.9187C124.3 56.9025 124.297 56.8863 124.291 56.8713C124.285 56.8562 124.275 56.8427 124.264 56.8314C124.136 56.715 124.411 56.9991 121.584 54.0151C121.201 53.6101 121.813 52.9967 122.196 53.4026L124.145 55.4562C124.159 55.4752 124.18 55.489 124.203 55.4955C124.226 55.502 124.25 55.5009 124.273 55.4922C124.295 55.4836 124.314 55.4679 124.326 55.4476C124.339 55.4273 124.345 55.4034 124.343 55.3796C124.364 54.6578 124.384 53.936 124.404 53.2142C124.408 53.1025 124.456 52.9969 124.537 52.9196C124.618 52.8422 124.725 52.799 124.837 52.799C124.949 52.799 125.056 52.8422 125.137 52.9196C125.217 52.9969 125.265 53.1025 125.27 53.2142C125.245 54.1565 125.22 55.0994 125.193 56.0427C125.239 55.9922 126.946 54.2701 127.424 53.787C127.817 53.3903 128.43 54.0044 128.037 54.3995C127.481 54.961 126.923 55.5226 126.366 56.0841C126.061 56.4862 125.676 56.8209 125.236 57.0673C125.215 57.0744 125.196 57.0879 125.182 57.1059C125.168 57.124 125.161 57.1457 125.16 57.1683C125.028 61.4648 124.975 61.4885 125.046 61.5651C125.066 61.5859 125.093 61.5982 125.121 61.5995C125.15 61.6008 125.178 61.5909 125.199 61.572L127.584 59.7258C128.02 59.3889 128.637 59.9977 128.196 60.3384C127.464 60.9012 125.001 62.804 125.001 62.804C124.924 62.8614 124.971 62.6868 124.791 67.092C124.788 67.1147 124.793 67.1377 124.804 67.1578C124.815 67.178 124.831 67.1942 124.852 67.2043C124.873 67.2144 124.896 67.2178 124.918 67.2142C124.941 67.2105 124.962 67.1999 124.978 67.1839C125.626 66.5866 126.362 66.093 127.161 65.7206C127.684 65.5254 127.911 66.3623 127.391 66.5568C126.82 66.8209 126.295 67.174 125.835 67.6027C125.531 67.8943 125.185 68.1383 124.809 68.3263C124.705 68.3662 124.752 68.0775 124.535 72.8915C124.532 72.9145 124.536 72.9379 124.547 72.9584C124.558 72.9789 124.575 72.9954 124.596 73.0055C124.617 73.0157 124.64 73.0189 124.663 73.0148C124.686 73.0107 124.707 72.9994 124.723 72.9826C125.1 72.6618 124.786 72.9298 126.434 71.4673C126.849 71.0975 127.464 71.7085 127.047 72.0799C126.467 72.5985 125.888 73.1141 125.31 73.6266C125.073 73.8772 124.808 74.1004 124.522 74.292C124.504 74.3015 124.489 74.3152 124.478 74.3319C124.468 74.3487 124.461 74.3679 124.46 74.3877C124.407 75.4804 124.29 77.6803 124.29 77.6803C124.291 77.7094 124.302 77.7373 124.323 77.7578C124.344 77.7783 124.372 77.7898 124.401 77.7898C136.509 77.7898 149.738 77.7814 149.64 77.7898C149.669 77.7873 149.696 77.7735 149.715 77.7515C149.734 77.7294 149.743 77.7008 149.741 77.6719C149.642 75.9406 149.103 72.0485 147.702 71.1978Z" fill="#2D2D2D"/>
<path d="M94.7073 56.6484L86.9805 56.7472L88.5647 58.3299C89.018 58.0396 89.5376 57.8691 90.0748 57.8344C90.612 57.7997 91.1492 57.902 91.636 58.1316C91.636 58.1316 92.0327 57.0458 94.7073 56.6484Z" fill="#FFC830"/>
<path d="M93.2226 67.6464L88.3672 66.4595C88.3672 66.4595 89.953 65.0721 89.953 63.7841C89.9252 62.7895 89.8257 61.7981 89.6551 60.8177H90.4484C90.3598 62.2143 90.4932 63.6161 90.8435 64.971C91.0408 65.5535 91.3531 66.0904 91.7617 66.55C92.1704 67.0095 92.6671 67.3824 93.2226 67.6464Z" fill="#FFC830"/>
<path d="M74.8087 67.0912C74.4258 67.9855 73.507 69.0568 72.4618 69.0767C72.3651 69.0816 72.2719 69.114 72.193 69.1699C72.1141 69.2259 72.0527 69.3032 72.0162 69.3928C71.9796 69.4824 71.9694 69.5806 71.9866 69.6758C72.0038 69.771 72.0478 69.8593 72.1133 69.9305C71.8499 71.6694 72.4196 75.5156 72.3729 76.4497C72.5927 88.6805 71.2741 107.916 61.95 112.067C58.0234 113.828 54.8564 112.417 52.8939 109.715L51.5547 109.605C57.257 118.559 72.2719 114.501 73.1907 85.6552L73.2742 83.9859C73.3691 76.7568 73.4939 71.9014 73.0353 69.9894C73.6213 69.8046 74.1601 69.4944 74.6142 69.0804C75.0682 68.6664 75.4267 68.1585 75.6647 67.592C75.9151 67.0123 75.0614 66.5077 74.8087 67.0912Z" fill="#2D2D2D"/>
<path d="M54.7796 48.6888L53.213 50.2968C53.1589 49.574 53.1116 48.8522 53.0713 48.1314C53.3317 47.917 53.5698 47.6222 53.7689 47.4422L55.2949 46.0325C55.7169 45.6413 55.0851 45.0118 54.664 45.4016L53.0108 46.933C52.9501 45.639 52.9108 44.3436 52.8929 43.047C53.1333 42.8939 53.3523 42.6642 53.5522 42.5194L54.8907 41.5018C55.3417 41.1595 54.8983 40.3854 54.4396 40.7323C53.9228 41.1243 53.4013 41.5148 52.8852 41.9092C52.8806 41.1465 52.8842 40.3844 52.896 39.6227C53.1497 39.4528 53.3877 39.2606 53.6073 39.0485L55.0622 37.8739C55.5086 37.5132 54.8746 36.8853 54.432 37.2429L52.912 38.468C52.9284 37.7855 52.9501 37.1028 52.9771 36.4198C53.0001 35.847 52.108 35.8478 52.0851 36.4198C52.0606 37.0114 52.0412 37.6041 52.0269 38.1977C51.5576 37.7848 51.0382 37.4326 50.4809 37.1495C49.9702 36.8891 49.5184 37.6579 50.0307 37.919C50.5494 38.1773 51.0318 38.5027 51.4656 38.8869C51.6348 39.04 51.8064 39.2774 52.0016 39.4612C51.9899 40.2713 51.9855 41.0809 51.9886 41.89C51.912 41.8318 50.7512 40.9015 50.8301 40.9666C50.3905 40.6082 49.7542 41.2353 50.1999 41.596C51.9771 43.0332 51.6685 42.8211 52.0001 43.0623C52.0185 44.3977 52.0596 45.7316 52.1234 47.064C51.6564 46.6469 51.1481 46.2785 50.6065 45.9644C50.5057 45.915 50.3899 45.9055 50.2824 45.9377C50.1748 45.97 50.0834 46.0417 50.0264 46.1384C49.9695 46.2352 49.9511 46.3498 49.975 46.4595C49.9989 46.5692 50.0634 46.6659 50.1555 46.7301C50.8841 47.1902 51.5638 47.7236 52.1838 48.322C52.2298 49.1163 52.2836 49.9106 52.3454 50.7049C51.6976 50.3714 51.0524 50.0329 50.4097 49.6896C49.9051 49.4162 49.4541 50.1865 49.9594 50.4553C50.4954 50.7447 51.0314 51.0311 51.5766 51.3075C51.9664 51.5074 52.4488 51.8688 52.9059 51.7325C53.363 51.5962 53.765 50.9974 54.0889 50.6605L55.4098 49.3251C55.811 48.9086 55.1801 48.2768 54.7796 48.6888Z" fill="#2D2D2D"/>
<path d="M61.4584 48.4736C60.1147 50.06 58.8779 51.734 57.7561 53.4844C57.4452 53.9691 58.2156 54.4171 58.5218 53.9347C59.6015 52.2462 60.7923 50.6313 62.0862 49.1007C62.4584 48.6689 61.8297 48.0348 61.4584 48.4736Z" fill="#2D2D2D"/>
<path d="M51.1743 53.1008L44.8748 53.1705C44.9036 52.8623 44.9166 52.5528 44.9139 52.2432C45.0831 52.1337 46.4392 51.1046 46.3603 51.1643C46.8128 50.8236 46.3687 50.0494 45.9108 50.3948C45.5732 50.6252 45.2502 50.8763 44.9437 51.1467C44.9616 50.3014 44.9664 49.4565 44.9583 48.6122C45.0731 48.5203 46.7049 47.09 46.6283 47.1573C47.0609 46.7791 46.4284 46.1512 45.9974 46.5264L44.9391 47.4521C44.9238 46.8013 44.9016 46.1507 44.8725 45.5003C45.4602 44.9749 45.9858 44.3841 46.4392 43.7392C46.7761 43.2729 45.9996 42.8272 45.6735 43.289C45.3993 43.6718 45.2814 43.7936 44.8151 44.351C44.7791 43.7499 44.7385 43.1488 44.6895 42.5493C44.6436 41.9811 43.7515 41.9758 43.799 42.5493C43.8465 43.1228 43.8847 43.7147 43.92 44.2974L42.9521 43.5317C42.5057 43.1802 41.8701 43.8081 42.3212 44.1626C44.0999 45.5601 43.8824 45.4 43.9881 45.4689C44.0249 46.2668 44.0504 47.0642 44.0647 47.861C43.5542 47.388 43.0068 46.9566 42.4276 46.5708C41.949 46.253 41.5018 47.0256 41.9781 47.3365C43.286 48.2033 43.619 48.7454 44.0746 48.871C44.0808 49.6689 44.0741 50.4673 44.0547 51.2662C43.9069 51.1444 43.7638 51.0112 43.7056 50.9652C43.4353 50.7524 43.1772 50.5257 42.9253 50.2883C42.5072 49.8971 41.8755 50.5273 42.2951 50.9193C42.8335 51.4253 43.4126 51.8863 44.0264 52.2976C44.0264 52.3366 43.9958 53.172 43.9965 53.1866L26.6776 53.3788C26.6776 52.6506 26.6692 51.9239 26.66 51.1927L29.935 48.4139C30.3745 48.0417 29.7397 47.4184 29.3048 47.7837L26.6424 50.0449C26.6138 48.175 26.5689 46.3071 26.5076 44.4414C27.4534 43.3516 28.4836 42.3383 29.5889 41.4107C30.0284 41.0423 29.3967 40.4152 28.9594 40.7797C28.0784 41.5157 27.2447 42.3064 26.4632 43.1473C26.4173 41.891 26.3626 40.636 26.2993 39.3823C26.9708 38.8545 27.6143 38.2922 28.2274 37.6977C28.657 37.3148 28.0245 36.687 27.5972 37.0668C27.1462 37.4672 26.6983 37.8692 26.2457 38.2666C26.209 37.579 26.1702 36.8922 26.1294 36.2061C26.415 36.0759 26.6087 35.7934 27.6838 34.5215C28.0528 34.082 27.4257 33.4495 27.0543 33.8913L26.3951 34.6571C26.3047 34.7666 26.1876 34.9511 26.0589 35.0889C26.014 34.3559 25.9663 33.6264 25.9157 32.9005C25.8767 32.3308 24.9854 32.327 25.0252 32.9005C25.0686 33.5417 25.1102 34.1821 25.15 34.8217C24.9793 34.6639 24.0596 33.9518 24.1362 34.0123C23.689 33.6624 23.0542 34.2887 23.506 34.6425C25.4471 36.1632 24.9234 35.7949 25.2243 36.0139C25.2753 36.8669 25.3226 37.7199 25.3659 38.5729C25.0903 38.3807 24.8881 38.2865 23.8276 37.5461C23.3682 37.2268 22.9088 37.9917 23.3774 38.3156C24.0091 38.8064 24.6935 39.2253 25.418 39.5645C25.4823 40.8984 25.5387 42.2323 25.5872 43.5661L22.9761 41.609C22.5167 41.2652 22.0718 42.0385 22.5259 42.3747L25.6225 44.7025C25.6842 46.6065 25.7286 48.5144 25.7557 50.4262C24.4434 49.7212 23.1915 48.9091 22.0129 47.9981C21.5588 47.6482 21.1139 48.4223 21.5634 48.7676C22.5702 49.5473 23.6299 50.256 24.735 50.8887C25.0581 51.106 25.4049 51.2858 25.7687 51.4247C25.7764 52.0786 25.7815 52.7323 25.784 53.3857L15.1996 53.5028C15.0814 53.5028 14.968 53.5498 14.8844 53.6333C14.8009 53.7169 14.7539 53.8303 14.7539 53.9485C14.7539 54.0667 14.8009 54.18 14.8844 54.2636C14.968 54.3472 15.0814 54.3941 15.1996 54.3941L51.1828 53.9875C51.2913 53.9737 51.391 53.9206 51.4629 53.8382C51.5348 53.7558 51.574 53.6498 51.5729 53.5404C51.5719 53.431 51.5307 53.3258 51.4572 53.2448C51.3838 53.1638 51.2831 53.1125 51.1743 53.1008Z" fill="#2D2D2D"/>
</svg>
