<svg width="154" height="154" viewBox="0 0 154 154" fill="none" xmlns="http://www.w3.org/2000/svg">
<path d="M110.371 21.079C106.919 16.9292 102.151 14.0858 96.8591 13.0215C91.6792 11.9625 85.3453 11.8661 80.6347 14.533C80.5635 14.5724 80.5019 14.6272 80.4546 14.6934C80.4073 14.7597 80.3755 14.8357 80.3614 14.9158C69.555 19.6678 61.9693 38.5913 72.7212 52.3999C73.5045 52.1181 74.1967 52.0087 75.0428 51.7353C74.3966 49.8777 74.5413 47.9122 73.8598 46.063C73.3123 44.5791 72.9509 43.0132 73.1401 42.2023C73.2871 41.5745 74.7243 41.7843 75.271 42.1296C76.5137 42.9144 76.7947 44.9895 77.2189 46.5913C77.2013 46.1541 77.9931 45.5959 78.4395 45.5898C78.6607 45.601 78.8763 45.6636 79.0691 45.7726C79.262 45.8815 79.4268 46.0339 79.5505 46.2177C79.784 46.465 79.9609 46.7603 80.0689 47.0829C80.0505 46.8972 80.0884 46.7102 80.1777 46.5463C80.267 46.3824 80.4036 46.2492 80.5696 46.1641C80.7673 46.029 81 45.9544 81.2394 45.9495C81.4787 45.9446 81.7143 46.0096 81.9173 46.1365C82.4992 46.3846 82.5911 46.465 83.0375 47.138C82.9739 46.5194 83.3285 46.5102 83.9479 46.5921C84.5336 46.6983 85.0552 47.0277 85.4027 47.5109C87.683 50.2016 86.7573 57.1335 85.4755 60.3303C90.325 61.3102 95.3603 60.7299 99.8598 58.6724C104.359 56.615 108.092 53.186 110.523 48.8769C115.371 40.5415 116.788 29.0017 110.371 21.079ZM102.932 25.4435C102.018 27.3998 100.509 28.9764 99.18 30.6701C90.4564 41.7858 92.8553 44.6059 90.2213 46.3302C90.0383 46.4382 89.8246 46.4826 89.6138 46.4562C89.4029 46.4299 89.2067 46.3344 89.0559 46.1847C84.1064 40.1985 80.369 36.9359 79.441 35.4649C79.3799 35.3568 79.356 35.2317 79.3727 35.1087C79.3895 34.9857 79.4461 34.8715 79.5339 34.7837C79.6217 34.696 79.7359 34.6393 79.8589 34.6226C79.9819 34.6058 80.107 34.6297 80.2151 34.6908C82.4357 35.9067 88.0758 42.1441 89.7297 44.0507C90.2251 42.9611 90.4954 38.5484 98.0146 29.0645C99.1836 27.4167 100.592 25.9529 102.194 24.7214C102.678 24.386 103.132 25.0124 102.932 25.4404V25.4435Z" fill="#FFC830"/>
<path d="M48.1409 72.9138C47.7045 72.6174 47.069 72.6328 46.9924 73.3686C46.9158 74.1044 47.9296 75.0026 48.5039 74.534C49.0782 74.0654 48.5774 73.2093 48.1409 72.9138Z" fill="#2D2D2D"/>
<path d="M76.2474 47.7751C75.9947 46.2812 75.8201 43.7766 74.3898 42.9037C74.1807 42.7759 73.8278 42.9397 73.9074 43.21C74.1425 44.0186 74.5965 44.7314 74.8262 45.55C75.358 47.8448 75.7353 50.1726 75.9556 52.5178C74.9999 52.3243 74.0063 52.4954 73.1703 52.9974C72.3343 53.4995 71.7163 54.2961 71.438 55.2307C71.3492 55.6952 71.3678 56.1738 71.4924 56.6299C71.617 57.0861 71.8444 57.5077 72.157 57.8624C72.997 59.0245 73.932 60.1148 74.9526 61.122C75.1057 61.2683 75.422 61.1151 75.2895 60.9038C73.5437 58.1082 72.2267 57.3601 72.1386 56.0232C72.1287 55.5486 72.2516 55.0806 72.4935 54.6722C72.7355 54.2637 73.0867 53.931 73.5077 53.7116C74.317 53.2636 75.1287 53.3655 75.984 53.1924C75.9932 53.584 75.9901 53.9755 75.9748 54.367C75.9737 54.4241 75.9944 54.4795 76.0328 54.5218C76.0711 54.5642 76.1241 54.5903 76.1811 54.5949C76.238 54.5995 76.2945 54.5822 76.3392 54.5465C76.3838 54.5109 76.4131 54.4595 76.4212 54.403C76.763 52.2013 76.7041 49.9559 76.2474 47.7751Z" fill="#2D2D2D"/>
<path d="M77.9601 48.2391C77.9902 48.1436 78.0482 48.0593 78.1266 47.997C78.2049 47.9346 78.3001 47.8972 78.4 47.8894C78.4998 47.8815 78.5997 47.9037 78.6868 47.9531C78.7739 48.0025 78.8443 48.0767 78.8889 48.1664C79.2268 48.8409 79.5187 49.5375 79.7626 50.2514C79.9793 51.0171 79.9157 52.0891 80.4364 52.7101C80.467 52.7469 80.5058 52.776 80.5497 52.7951C80.5936 52.8143 80.6413 52.8228 80.6891 52.8201C80.7369 52.8175 80.7834 52.8036 80.8249 52.7797C80.8664 52.7558 80.9017 52.7225 80.928 52.6825C81.3652 52.0117 81.0758 51.0156 80.8736 50.3088C80.6337 49.453 80.2752 48.635 79.8085 47.8785C79.4969 47.3785 79.062 46.8157 78.3966 46.8831C78.1127 46.9371 77.8582 47.0926 77.6806 47.3206C77.5031 47.5486 77.4146 47.8335 77.4318 48.122C77.4203 48.4129 77.9249 48.5661 77.9601 48.2391Z" fill="#2D2D2D"/>
<path d="M81.0437 48.086C82.3262 46.8555 82.6516 49.8341 82.7458 50.4895C83.0728 52.7927 82.8224 52.9765 83.2466 53.5033C83.274 53.5352 83.3084 53.5605 83.347 53.5773C83.3856 53.5941 83.4276 53.6018 83.4696 53.6001C83.5117 53.5983 83.5528 53.587 83.5899 53.5671C83.627 53.5471 83.6591 53.519 83.6838 53.4849C84.1532 52.854 83.8928 51.8103 83.8117 51.0722C83.7464 50.1318 83.5691 49.2025 83.2833 48.3042C82.8499 47.1288 81.4946 46.5086 80.634 47.7039C80.4472 47.9604 80.8063 48.3157 81.0437 48.086Z" fill="#2D2D2D"/>
<path d="M83.949 48.458C85.021 48.6556 85.0026 50.4244 85.0692 51.2437C85.2221 53.2131 85.0684 55.1943 84.6136 57.1166C84.2908 57.9807 84.0848 58.884 84.001 59.8026C84.011 60.0484 84.3112 60.2942 84.5294 60.0752C85.3579 59.2467 85.5592 57.8815 85.7859 56.7705C86.0461 55.4668 86.1622 54.1385 86.132 52.8095C86.1021 51.2781 86.2032 47.7076 83.9191 47.857C83.5569 47.8807 83.6488 48.4021 83.949 48.458Z" fill="#2D2D2D"/>
<path d="M76.2734 96.1222C76.3202 96.1594 76.3297 96.1689 76.2734 96.1222V96.1222Z" fill="#2D2D2D"/>
<path d="M24.0572 130.612C25.1713 124.574 26.0006 118.36 25.0955 112.247C25.0304 111.81 24.3222 111.919 24.3298 112.347C24.5741 124.9 22.0924 133.272 19.8589 144.047C19.5802 145.396 19.0097 146.952 19.0488 148.335C19.0878 149.699 20.3505 149.448 20.4324 148.708L20.5335 147.78C20.4347 147.091 22.9263 136.739 24.0572 130.612Z" fill="#2D2D2D"/>
<path d="M89.4199 87.9728C88.7062 80.7079 87.9773 73.2453 85.8601 66.24C85.6404 65.5118 84.4934 65.6932 84.6672 66.4697C85.9102 72.3294 86.8494 78.2496 87.4811 84.2063C88.1894 90.2064 88.7928 96.2975 88.073 102.325C87.4543 107.497 86.0332 113.096 81.4535 116.146C77.6388 118.687 72.8777 120.252 68.5063 119.087C62.7973 117.566 61.3317 115.981 57.1433 112.004C57.0856 111.939 57.0051 111.9 56.919 111.894C56.8328 111.888 56.7476 111.916 56.6814 111.971C56.6153 112.027 56.5733 112.106 56.5643 112.192C56.5553 112.278 56.5801 112.364 56.6334 112.432C59.1104 115.832 61.896 118.251 65.0461 119.553C65.2115 121.677 65.5004 123.79 65.9114 125.881C68.3264 142.654 67.0431 144.729 67.7866 149.034C67.8516 149.408 68.4252 149.372 68.5155 149.034C69.1587 146.632 68.9497 143.991 68.8524 141.53C68.5737 134.486 67.2674 124.043 66.1296 119.952C70.1817 121.282 74.7766 120.875 79.9512 118.605C85.3211 116.248 87.501 112.181 88.7828 106.786C90.2453 100.628 90.0363 94.247 89.4199 87.9728Z" fill="#2D2D2D"/>
<path d="M144.525 10.317C143.854 8.35914 142.312 6.07506 140.328 5.54596C138.953 5.27377 137.558 5.10941 136.158 5.05438C117.037 3.11333 103.131 4.03906 87.7739 4.0896C87.6834 4.08707 87.5944 4.11247 87.5189 4.16234C70.9277 4.67077 56.9567 3.65162 38.9743 6.40201C37.609 6.61105 36.2178 6.66465 35.0776 7.59497C33.2453 9.09421 32.377 11.4464 32.0279 13.8132C30.7001 22.8002 31.1994 44.2329 31.7545 54.4214C32.0141 59.1878 32.1374 65.1358 35.7698 68.2154C35.0502 68.9095 34.5797 69.8216 34.4314 70.8104C33.6213 75.3724 36.2369 77.5577 37.7093 80.8893C38.342 82.001 39.3843 82.8213 40.6136 83.1749C40.7468 84.3953 40.5682 85.6296 40.0945 86.7622C32.5187 87.5279 28.0278 89.642 21.9474 93.6367C18.8164 95.5884 15.8614 97.8091 13.1158 100.274C8.07217 105.026 4.93892 111.364 6.21458 118.393C7.59743 126.014 13.5553 132.72 20.1809 136.429C20.7828 136.766 21.2215 135.926 20.7093 135.528C18.0722 133.481 15.3746 131.576 13.1158 129.091C7.442 122.847 6.12499 115.808 7.85318 110.307C9.93435 103.685 15.6335 99.2623 21.3739 95.4299C24.3619 93.2788 27.5807 91.4679 30.9704 90.031C37.5332 87.521 44.7101 87.351 51.6298 87.9636C55.7178 88.3265 60.2891 89.7477 64.2125 90.9958C68.1007 92.2331 74.8833 96.4131 76.3221 96.577C76.3221 96.577 77.7271 96.9391 76.8956 95.9583C76.2692 95.2186 74.2279 94.1283 71.6237 92.9169C71.7055 92.8913 71.7794 92.8452 71.8383 92.783C71.8973 92.7208 71.9394 92.6446 71.9606 92.5616C72.1107 91.2981 72.12 90.0217 71.9882 88.7561C71.7937 75.7155 74.6107 66.8272 75.4392 62.8073C75.4529 62.7556 75.4506 62.7009 75.4327 62.6505C75.4148 62.6001 75.3821 62.5563 75.3389 62.5248C76.8864 62.6067 78.4438 62.5248 79.9913 62.5791C81.5028 62.6335 83.1605 63.0286 84.6529 62.8088C84.7281 62.7928 84.7962 62.7529 84.847 62.6951C84.8978 62.6373 84.9286 62.5646 84.9348 62.4879C84.941 62.4111 84.9223 62.3345 84.8814 62.2692C84.8406 62.204 84.7797 62.1537 84.708 62.1258C83.2624 61.537 81.3941 61.661 79.855 61.6343C78.2224 61.553 76.5858 61.6506 74.9744 61.9252C74.9094 61.94 74.8513 61.9764 74.8097 62.0285C74.7681 62.0806 74.7454 62.1453 74.7454 62.212C74.7454 62.2787 74.7681 62.3434 74.8097 62.3955C74.8513 62.4476 74.9094 62.484 74.9744 62.4987C74.2409 62.9183 70.7485 75.7453 70.9507 89.3403C70.9599 90.0019 70.9116 92.031 71.2692 92.7454C66.0065 90.3235 58.5226 87.6068 54.4521 87.119C52.3848 86.8709 50.2821 86.6818 48.1788 86.5831C47.7998 85.5552 47.6326 84.4613 47.6872 83.3671C48.789 83.5202 49.9636 83.3755 50.5279 82.4291C51.4567 80.8717 50.322 78.9146 50.237 77.2844C50.2348 77.2171 50.2087 77.1527 50.1635 77.1028C50.1182 77.0529 50.0567 77.0207 49.9899 77.012C49.9231 77.0033 49.8554 77.0185 49.7988 77.0551C49.7422 77.0917 49.7005 77.1472 49.6811 77.2116C49.1298 78.5845 50.165 79.9345 49.936 81.3273C49.6099 83.3127 47.4337 81.8503 46.2308 82.3104C46.1579 82.3331 46.0942 82.3784 46.0489 82.4399C46.0037 82.5013 45.9793 82.5756 45.9793 82.6519C45.9793 82.7283 46.0037 82.8026 46.0489 82.864C46.0942 82.9255 46.1579 82.9708 46.2308 82.9934C46.5224 83.1 46.8203 83.1882 47.1229 83.2576C46.9896 84.0134 46.9896 84.7867 47.1229 85.5425C47.1692 85.8774 47.2331 86.2096 47.3143 86.5379C45.2618 86.4675 43.2071 86.5069 41.1588 86.6558C41.2509 86.2905 41.318 85.9192 41.3594 85.5448C41.4656 84.8191 41.4501 84.0808 41.3135 83.3602C41.9567 83.5368 42.6232 83.6143 43.2898 83.5899C45.2745 83.4689 46.4291 81.0861 45.5662 79.2744C46.6703 79.2744 47.6443 78.0378 46.8311 77.289C46.7903 77.2509 46.7394 77.2253 46.6845 77.2153C46.6296 77.2052 46.5729 77.2111 46.5212 77.2322C46.4695 77.2533 46.425 77.2887 46.3928 77.3343C46.3606 77.38 46.3421 77.4338 46.3396 77.4896C46.0938 79.5486 43.7882 77.3992 43.5172 76.3878C43.2415 75.3594 44.2714 74.0041 45.3931 74.8671C45.6657 75.0769 45.9475 74.5853 45.8755 74.3027C45.7829 73.939 45.7117 73.5654 45.6114 73.2009C45.7784 73.0658 45.9336 72.9167 46.0754 72.7553C46.8557 72.3412 47.5964 71.8566 48.2883 71.3073C48.9609 73.0916 50.066 74.6809 51.5042 75.9329C51.313 76.0549 51.0978 76.1342 50.8731 76.1655C50.6485 76.1969 50.4198 76.1794 50.2025 76.1144C50.0926 76.0839 49.9752 76.0984 49.8759 76.1545C49.7767 76.2107 49.7039 76.3039 49.6734 76.4138C49.6429 76.5237 49.6574 76.6411 49.7135 76.7403C49.7697 76.8396 49.8629 76.9124 49.9728 76.9429C50.4108 77.0661 50.8744 77.065 51.3117 76.9397C51.7491 76.8143 52.1429 76.5696 52.4491 76.2331C52.528 76.153 52.5723 76.045 52.5723 75.9325C52.5723 75.8201 52.528 75.7121 52.4491 75.632C49.7691 73.3701 49.0402 70.9995 48.7615 70.8847C48.8526 70.8027 48.9437 70.7116 49.0348 70.6297C53.2872 70.8194 57.5472 70.7465 61.7906 70.4115C65.0969 70.1366 68.3695 70.5524 71.8427 70.4934C71.9063 70.2476 71.9606 69.9926 72.025 69.7376C68.7324 69.7376 66.8435 69.5769 63.7845 69.4827C61.198 69.4061 60.1964 70.0141 49.8541 69.756C52.0563 67.0761 52.1198 63.8601 50.8648 62.0071C50.3917 61.2614 49.7028 60.6773 48.8897 60.3325C48.0765 59.9877 47.1778 59.8985 46.3128 60.0768C44.5907 60.5362 43.6389 62.1825 42.7798 63.599C41.0677 66.4252 40.5509 66.3487 37.9904 67.0317C37.4745 67.1632 36.9808 67.3695 36.5248 67.6442C33.9674 65.635 33.3349 62.2996 32.9919 58.9918C32.1925 51.2774 31.8433 27.9603 32.5638 18.0652C32.717 15.935 32.7668 13.471 33.5838 11.4732C34.0571 10.1123 34.9376 8.92991 36.106 8.08655C36.6305 7.76955 36.861 7.70753 40.877 7.13019C56.4598 4.89129 70.3289 5.61105 85.0993 5.27337C105.577 4.80476 120.38 4.32926 138.536 6.36603C139.938 6.52299 140.941 6.71978 141.95 7.84076C143.391 9.44108 143.9 11.3913 144.263 13.5131C145.795 22.4718 146.577 49.4321 146.075 57.6174C145.916 60.2123 145.508 63.1879 143.962 65.3019C142.905 66.7484 141.259 67.024 139.665 67.2775C133.335 68.2859 106.627 68.5493 93.4852 69.1151C93.0051 69.1358 92.3168 69.2032 88.3137 69.2683C88.3497 69.4597 88.3229 69.7874 88.3589 69.9697C88.4354 69.9697 128.252 69.1909 133.338 68.9138C135.049 68.8196 136.77 68.7062 138.482 68.5033C140.055 68.4278 141.603 68.0734 143.052 67.4566C144.793 66.5592 145.721 64.5523 146.293 62.6764C147.142 59.8915 147.191 56.8678 147.212 53.9543C147.266 46.7483 146.845 17.0874 144.525 10.317Z" fill="#2D2D2D"/>
</svg>
