<svg width="138" height="100" viewBox="0 0 138 100" fill="none" xmlns="http://www.w3.org/2000/svg">
<path fill-rule="evenodd" clip-rule="evenodd" d="M137.088 37.8375C135.388 50.5101 133.469 57.2041 122.271 70.4754C111.073 83.7467 59.8295 92.4773 40.8848 92.4773C21.9401 92.4773 -1.40712 77.8689 0.0663926 60.9427C1.5399 44.0165 9.22743 30.1822 27.6278 28.4792C46.4322 26.7388 62.95 34.7983 81.4114 30.4758C97.3721 26.7388 102.256 12.4945 113.218 8.00053C135.388 -1.08827 138.244 29.2162 137.088 37.8375Z" fill="#ffc830"/>
<path d="M125.683 44.0267C125.056 45.0884 117.127 50.4605 112.317 51.2555C111.387 51.4094 110.37 51.4622 109.562 50.9762C109.084 50.6891 108.728 50.2414 108.39 49.7984C107.617 48.7857 106.88 47.7457 106.18 46.6813C105.812 46.1219 105.447 45.5379 105.322 44.8802C104.991 43.1384 106.395 41.574 107.783 40.4704C110.973 37.9335 114.707 36.0855 118.659 35.0885C119.358 34.912 120.1 34.7625 120.793 34.963C121.918 35.2884 122.59 36.4265 123.019 37.5158C123.448 38.6052 123.783 39.7967 124.641 40.5937C124.837 40.7757 126.309 42.9651 125.683 44.0267Z" fill="white"/>
<path fill-rule="evenodd" clip-rule="evenodd" d="M83.0768 90.3088C75.3814 91.6248 79.0491 86.0318 80.1104 79.0313C81.8542 67.5283 84.0045 50.0476 84.0045 50.0476C84.0045 50.0476 85.4068 76.684 85.4068 83.1698C85.4068 89.6557 84.0043 90.1502 83.0768 90.3088Z" fill="white"/>
<path d="M74.856 83.9713C75.0524 85.8236 75.2594 87.7151 76.0466 89.4033C75.6171 85.5804 75.1877 81.7576 74.7582 77.9347C74.7052 77.4627 74.7209 76.8618 75.1552 76.6692C75.5226 80.9859 76.0705 85.2873 76.7969 89.5583C76.8831 90.0653 76.1215 90.3551 75.6937 90.0695C75.266 89.7839 75.1292 89.2278 75.0319 88.7227C74.3231 85.0424 73.9333 81.3006 73.8685 77.5531C72.9661 77.7309 72.3333 78.6057 72.1508 79.5072C71.9682 80.4086 72.1442 81.3396 72.32 82.2423C72.8859 85.1483 73.4519 88.0542 74.0178 90.9601C74.2825 92.3193 74.5472 93.7237 74.2551 95.0772C73.1319 89.9491 72.2289 84.7727 71.5494 79.5672C62.9311 84.8372 51.8261 85.8173 42.418 82.1381C40.3632 81.3345 38.3226 80.2697 36.9654 78.5301C35.8963 77.1598 35.3259 75.4585 35.027 73.7464C33.9655 67.6657 36.1407 61.4633 39.093 56.0425C40.2132 53.9856 41.489 51.8434 41.3986 49.503C41.3675 48.6972 41.1937 47.8051 41.6642 47.1502C41.7309 47.2714 38.5839 24.7607 39.8463 19.7814C42.8855 7.7941 52.7584 6.17067 59.0797 6.31853C63.3209 6.41773 90.2053 11.7605 94.0896 19.0261C99.1946 28.5752 98.1108 36.6036 97.2042 41.8973C96.9342 43.4737 84.0097 49.9313 84.0062 49.964C83.2673 56.8329 78.3088 71.8002 74.1502 77.3169C74.3855 79.535 74.6207 81.7532 74.856 83.9713Z" fill="white"/>
<path fill-rule="evenodd" clip-rule="evenodd" d="M12.797 56.0219C10.3732 55.0544 7.48472 55.3413 5.2995 56.7667C5.08795 56.9047 4.78379 56.7509 4.67906 56.5213C4.57434 56.2918 4.61351 56.0247 4.66708 55.7781C5.36499 52.5664 8.14527 50.1089 11.2372 48.9796C14.3291 47.8502 17.7112 47.847 20.9979 48.0401C21.324 48.0593 21.6649 48.0847 21.9431 48.2557C22.2213 48.4267 22.4084 48.7922 22.2698 49.0875C20.9769 51.8407 20.0029 54.7429 19.3735 57.718C19.2715 58.2004 18.7716 58.5205 18.2793 58.5607C17.787 58.6009 17.3046 58.4193 16.8578 58.209C15.4654 57.5536 14.2263 56.5925 12.797 56.0219Z" fill="white"/>
<path fill-rule="evenodd" clip-rule="evenodd" d="M87.2991 7.53766C87.4195 5.69525 87.2806 3.8361 86.8878 2.03203L86.8794 1.99353C86.8127 1.6885 86.7442 1.37475 86.8056 1.06947C86.9415 0.394294 87.6914 -0.0121064 88.3799 0.002068C89.0685 0.0162424 89.7063 0.344935 90.3157 0.665929C93.2378 2.20531 96.2127 3.78354 98.5135 6.1532C98.5856 8.0716 98.1335 9.96475 97.6872 11.8336L97.6872 11.8337L97.6453 12.0094C95.782 19.8207 94.2562 27.7125 93.0737 35.6554C92.9603 36.4167 92.7454 37.3148 92.0233 37.5814C91.5053 37.7726 90.9031 37.5282 90.5351 37.1166C90.1671 36.7049 89.9912 36.1583 89.8685 35.6199C89.5658 34.2917 89.5293 32.9034 89.762 31.5611C89.9042 30.7403 90.1447 29.942 90.3852 29.1434L90.3852 29.1433L90.3853 29.1431C90.6013 28.4261 90.8173 27.7089 90.9623 26.9752C91.1074 26.2415 91.1805 25.4957 91.2514 24.7512C91.6285 20.7921 91.9484 16.8276 92.2109 12.8593C92.248 12.2986 92.2818 11.7202 92.0981 11.1891C91.7714 10.2444 90.8197 9.64732 89.8584 9.37356C89.6927 9.32638 89.5244 9.28626 89.3562 9.24614L89.3561 9.24612C88.9644 9.15273 88.5729 9.05941 88.2156 8.87737C87.7048 8.61712 87.2617 8.10972 87.2991 7.53766ZM89.0848 7.38625C90.4436 7.673 91.7716 8.106 93.0384 8.67536C93.2934 8.78999 93.5617 8.9242 93.6995 9.16752C93.812 9.36625 93.8185 9.60558 93.8218 9.83395C93.8616 12.5161 93.8701 15.2053 93.5861 17.8726C93.416 19.4697 93.1417 21.0528 92.8674 22.6358L92.8673 22.6361L92.8671 22.6371C92.7804 23.1379 92.6936 23.6387 92.6102 24.1399C92.1969 26.6215 91.8642 29.1166 91.6129 31.6199C91.4306 33.4362 91.2971 35.3135 91.8621 37.0493C92.152 36.9963 92.2635 36.6472 92.3184 36.3577L97.5396 8.83737C97.6662 8.17058 97.7925 7.48119 97.6435 6.81907C97.3825 5.65988 96.3536 4.85387 95.3616 4.19986C93.4519 2.94086 91.4192 1.86858 89.3018 1.00328C89.1257 3.12572 89.0532 5.25675 89.0848 7.38625ZM91.7699 25.4603C92.7259 20.5524 93.1578 15.5426 93.0559 10.5436C93.0482 10.166 93.0279 9.76024 92.7969 9.46143C92.6277 9.24247 92.3691 9.11423 92.1166 9.0011C91.1681 8.57626 90.171 8.26014 89.1511 8.0609C88.8558 8.00323 88.4218 8.06572 88.4347 8.36625L92.1009 9.88119C92.3159 9.97005 92.545 10.0705 92.6665 10.269C92.7857 10.4636 92.7741 10.7081 92.7586 10.9357L91.7699 25.4603ZM88.358 0.517787C88.0558 0.317425 87.6191 0.523963 87.4507 0.845127C87.2824 1.16629 87.308 1.55077 87.3462 1.91137C87.4022 2.44036 87.4758 2.96962 87.5495 3.49897L87.5496 3.49924C87.7541 4.96807 87.9587 6.43749 87.7849 7.90326C88.0621 7.99841 88.3716 7.803 88.5061 7.54254C88.6406 7.28208 88.6441 6.97614 88.6446 6.683L88.6539 1.3972C88.6544 1.07414 88.6273 0.696291 88.358 0.517787ZM91.0729 36.93C90.9064 35.6237 90.8628 34.3018 90.9428 32.9874C90.9856 32.2846 91.0635 31.5842 91.1415 30.884L91.1416 30.8836C91.2447 29.9577 91.3477 29.0321 91.3693 28.1012C90.6078 30.3675 90.3203 32.7919 90.5306 35.1734C90.5853 35.7929 90.6867 36.4426 91.0729 36.93ZM91.492 26.7625C91.6145 26.7076 91.666 26.5355 91.5937 26.4223C91.4693 26.4837 91.4164 26.6574 91.4856 26.7776L91.492 26.7625ZM90.3536 15.4119C84.2939 11.6748 77.4421 9.43578 70.5899 7.50375C68.3995 6.88614 66.1908 6.29432 63.9291 6.04095C57.2277 5.29019 50.4339 7.60238 44.8617 11.4001C42.6269 12.9233 40.4708 14.7968 39.5053 17.323C38.7889 19.1974 38.7938 21.2609 38.8629 23.2663C39.1012 30.1827 39.9887 37.0585 40.8751 43.922C41.5681 43.797 41.6366 42.8385 41.5362 42.1414C40.6145 35.7407 40.0977 29.2817 39.9899 22.8158C39.9597 21.0027 39.9692 19.1438 40.5966 17.4425C41.7325 14.3627 44.662 12.3485 47.5365 10.7634C51.157 8.7669 55.0927 7.0886 59.2263 6.99952C64.2333 6.8916 68.9792 9.11262 73.3532 11.5519C75.7918 12.9118 78.2642 14.4304 79.8155 16.7519C81.2241 18.8598 81.7359 21.4287 82.1055 23.9369C83.2786 31.8974 83.3216 39.9758 83.3622 48.0222C83.3639 48.3476 83.344 48.7207 83.089 48.923C82.9147 49.0614 82.6766 49.0787 82.4543 49.0902L74.2855 49.5154C78.092 50.6099 82.3146 50.1782 85.8209 48.3362L94.8975 43.568C95.7446 43.1229 96.619 42.6555 97.2029 41.8974C98.0065 40.854 98.1215 39.4504 98.1594 38.134C98.2994 33.2722 97.8133 28.3927 96.7168 23.6541C97.0969 28.7801 97.1496 33.9304 96.8745 39.0632C96.8276 39.9397 96.7573 40.8594 96.2806 41.5965C95.7715 42.3838 94.8864 42.8297 94.0432 43.2395L84.2477 48.0004C84.6531 40.3895 84.3386 32.7405 83.3099 25.1885C82.964 22.6485 82.5226 20.073 81.3602 17.7882C78.6132 12.3887 72.533 9.71775 66.9135 7.45451C75.3149 9.91244 83.8123 12.411 91.3706 16.8266C91.4688 16.2165 90.8795 15.7362 90.3536 15.4119ZM121.658 38.6443C122.094 39.7668 122.706 40.9632 123.832 41.391C124.098 41.4117 124.258 41.0581 124.17 40.8055C124.097 40.5944 123.925 40.4407 123.756 40.2898L123.714 40.2515C123.695 40.2345 123.676 40.2175 123.658 40.2003C122.941 39.535 122.59 38.5946 122.244 37.6682C122.175 37.485 122.107 37.3024 122.036 37.1225C121.607 36.0331 120.934 34.8951 119.81 34.5697C119.117 34.3692 118.375 34.5187 117.675 34.6951C113.724 35.6921 109.989 37.5402 106.8 40.0771C105.412 41.1807 104.008 42.7451 104.339 44.4868C104.464 45.1446 104.829 45.7285 105.197 46.2879C105.897 47.3524 106.634 48.3923 107.407 49.4051C107.745 49.8481 108.101 50.2958 108.579 50.5829C109.387 51.0689 110.404 51.016 111.334 50.8622C116.144 50.0671 120.261 47.078 124.178 44.176C124.382 44.025 124.594 43.8641 124.699 43.6334C124.805 43.4027 124.76 43.0818 124.536 42.9627C124.279 42.8262 123.976 43.0147 123.747 43.194C120.102 46.0479 116.208 48.8367 111.688 49.8393C110.832 50.0293 109.887 50.1413 109.116 49.7218C108.54 49.4079 108.15 48.8435 107.782 48.2995L105.502 44.9259C105.31 44.6417 105.111 44.3364 105.104 43.9935C105.097 43.6506 105.374 43.2797 105.714 43.3239C108.91 43.7396 112.121 44.0384 115.339 44.2195C115.595 44.2339 115.863 44.2455 116.097 44.1389C116.397 44.0015 116.581 43.6975 116.741 43.4085C118.103 40.9527 119.144 38.3186 119.828 35.5948C120.737 36.2468 121.161 37.3512 121.566 38.4049L121.567 38.4062L121.567 38.4063C121.597 38.486 121.628 38.5654 121.658 38.6443ZM118.845 35.3793C118.236 37.6572 117.336 39.8569 116.172 41.9077C115.977 42.2514 115.76 42.6055 115.419 42.8052C114.985 43.0594 114.445 43.0115 113.945 42.9557L105.984 42.0674C107.305 40.3219 109.267 39.1892 111.228 38.2158C113.084 37.2945 114.989 36.4727 116.933 35.755C117.548 35.5278 118.193 35.3077 118.845 35.3793ZM74.8553 83.9714C75.0518 85.8237 75.2588 87.7152 76.046 89.4034L74.7575 77.9348C74.7045 77.4628 74.7202 76.8619 75.1545 76.6693C75.522 80.986 76.0698 85.2874 76.7962 89.5584C76.8825 90.0654 76.1208 90.3552 75.6931 90.0696C75.2653 89.784 75.1285 89.2279 75.0312 88.7228C74.3224 85.0425 73.9327 81.3007 73.8679 77.5533C72.9655 77.731 72.3327 78.6059 72.1501 79.5073C71.9675 80.4087 72.1435 81.3397 72.3193 82.2425L74.0171 90.9602C74.2819 92.3194 74.5465 93.7238 74.2545 95.0774C73.1312 89.9492 72.2282 84.7728 71.5488 79.5673C62.9304 84.8374 51.8255 85.8174 42.4174 82.1382C40.3626 81.3346 38.322 80.2698 36.9648 78.5302C35.8957 77.1599 35.3252 75.4586 35.0263 73.7465C33.9649 67.6658 36.14 61.4634 39.0923 56.0426C39.1692 55.9015 39.2468 55.76 39.3246 55.618L39.3247 55.6179L39.3248 55.6177C40.3813 53.6906 41.4821 51.6828 41.3979 49.5031C41.3924 49.3591 41.3823 49.2123 41.3721 49.0646C41.3253 48.386 41.2772 47.6881 41.6636 47.1503C42.1819 48.0932 42.3793 49.2089 42.216 50.2724C51.1383 49.8884 60.0737 49.8111 69.0013 50.0406C69.1055 50.451 68.5108 50.6417 68.0874 50.6354C59.756 50.5111 51.4206 50.6531 43.0983 51.0609C42.8347 51.0738 42.5581 51.091 42.3346 51.2313C42.0996 51.3789 41.9627 51.6379 41.8364 51.8851C39.4744 56.5066 37.1046 61.1955 35.9629 66.2585C35.3758 68.8622 35.151 71.7117 36.3543 74.0941C36.8108 74.9979 37.4564 75.7961 38.1773 76.5071C42.0473 80.3244 47.8424 81.4946 53.2774 81.4033C56.7462 81.345 60.2074 80.8464 63.5516 79.9231C67.097 78.9443 70.6328 77.4015 73.0528 74.6318C74.4739 73.0053 75.4397 71.0356 76.2856 69.0482C77.9007 65.2536 79.1396 61.2989 79.978 57.2609C80.5031 57.3714 80.5105 58.1138 80.3893 58.6365C78.8903 65.1033 77.148 71.9963 72.2107 76.4336C67.7515 80.4413 61.4678 81.6841 55.4817 82.0194C52.0239 82.2131 48.5115 82.1525 45.1623 81.271C41.8131 80.3896 38.6152 78.6262 36.489 75.8925C37.1091 78.257 39.2097 79.9445 41.3967 81.0366C47.1388 83.9039 53.9195 83.7523 60.2598 82.7556C64.4834 82.0917 68.8186 81.002 72.1055 78.2679C74.915 75.9308 76.7056 72.5931 78.0533 69.1961C79.5451 65.436 80.58 61.4949 81.1279 57.4869C81.4691 57.2713 81.7219 57.8743 81.6787 58.2756C80.9399 65.1445 78.3081 71.8003 74.1496 77.3171L74.8553 83.9714ZM70.8604 95.7173C70.4941 95.0986 70.2582 94.4031 70.1726 93.6892L69.6462 95.473L68.3178 90.4065C68.2147 90.0135 67.9639 89.5217 67.5665 89.6061C67.1801 89.6882 67.1367 90.2185 67.1943 90.6093C67.4837 92.5747 68.0357 94.5014 68.831 96.3219L67.4182 95.0823C67.3495 95.6724 67.5048 96.286 67.8461 96.7723C67.1102 96.2304 66.1232 96.0456 65.2411 96.2848C65.8714 97.1606 66.7272 97.8726 67.7029 98.3332L66.5092 96.667C67.4741 97.224 68.485 97.7012 69.5282 98.0924L68.5168 96.824L69.7666 97.1704C68.8103 94.9949 67.836 92.7363 67.8592 90.36C68.2212 92.2932 68.7511 94.1948 69.4409 96.0366C69.5578 96.3487 69.6877 96.6714 69.9368 96.8929C70.1859 97.1143 70.5905 97.1978 70.8515 96.9904C71.0543 96.8292 71.1135 96.5512 71.1595 96.2963L71.7223 93.1746L72.3406 97.0459C72.8094 95.8619 74.3339 95.5651 75.6073 95.5572C77.2888 95.5467 78.9828 95.7319 80.6725 95.9167H80.6726H80.6726H80.6727H80.6728H80.6728H80.6729H80.673H80.673C83.7191 96.2498 86.7509 96.5813 89.6695 95.762C89.5838 96.2133 89.4339 96.6522 89.2257 97.0616C91.5807 96.7188 93.9637 96.5684 96.3431 96.6122C97.348 96.6308 98.3558 96.6837 99.3637 96.7366H99.3638H99.3639H99.364H99.3641H99.3642H99.3643H99.3645H99.3646C102.029 96.8764 104.694 97.0163 107.305 96.5215L89.9771 96.3692C90.3026 96.3503 90.5519 95.9719 90.441 95.6654C90.3301 95.3589 89.8964 95.2277 89.6342 95.4214C89.4637 94.8796 88.6977 94.6387 88.2479 94.9854C88.5087 94.1813 89.0244 93.462 89.7023 92.957C88.9372 92.916 88.1602 93.1502 87.5452 93.6072L89.409 84.9815C89.2514 84.8459 88.9886 84.937 88.8722 85.1093C88.7569 85.2797 88.7441 85.4965 88.7319 85.7021L88.7315 85.7086C88.557 88.654 87.5184 91.543 85.7775 93.9253L85.094 91.9475L84.1142 94.31C83.6702 93.966 83.0403 93.8792 82.5198 94.0903C82.6527 94.5955 83.0568 95.0205 83.5546 95.1786L83.7864 94.5574L85.3171 95.5826C84.7321 94.9696 84.6053 93.9667 85.0194 93.2273L85.9456 94.781L87.7409 91.2302C87.7511 92.6559 87.14 94.0034 86.5411 95.2972C87.1921 94.7874 87.7516 94.1612 88.1853 93.4572C88.6039 94.1985 88.1467 95.1926 87.4186 95.6339C86.6905 96.0751 85.7901 96.0991 84.9395 96.0631C83.6417 96.0083 82.3339 95.8453 81.0277 95.6825C78.0945 95.3168 75.1695 94.9522 72.3831 95.8158L71.9814 92.1112C71.3676 93.2203 70.9836 94.4558 70.8604 95.7173ZM88.3423 95.8162C88.2794 95.741 88.2798 95.6202 88.3432 95.5454L88.3939 95.5645C88.4789 95.3609 88.8368 95.3776 88.9025 95.5882C88.7375 95.7073 88.5436 95.7862 88.3423 95.8162ZM97.8109 56.4557C95.793 55.4357 93.3914 55.711 91.1512 56.018C90.5183 56.1047 89.8729 56.1958 89.2995 56.4776C88.7262 56.7595 88.2268 57.2699 88.1279 57.9011C82.6569 57.218 77.4142 54.8099 73.3313 51.1047C72.4452 50.3005 71.5409 49.1554 71.9395 48.0271C72.0647 47.6724 72.3085 47.3731 72.5619 47.0952C74.4655 45.0082 77.09 43.7531 79.6448 42.5483C76.7492 42.8022 73.9708 44.2106 72.0543 46.3961C71.6151 46.8969 71.2101 47.4565 71.0589 48.1053C70.6854 49.7073 71.9296 51.2101 73.1749 52.2848C77.1482 55.7141 82.1458 57.941 87.3525 58.6023C87.6647 58.6419 87.6808 59.0809 87.6523 59.3944C87.5255 60.7886 88.2854 62.1493 89.3388 63.0714C90.3922 63.9936 91.7115 64.5474 93.0208 65.0433C97.0752 66.579 101.283 67.7101 105.561 68.4142C105.844 68.4607 106.232 68.4387 106.291 68.1586C105.304 67.5054 104.116 67.2566 102.954 67.0134L102.766 66.9739C99.8203 66.3538 96.9141 65.5461 94.0708 64.5574C92.9044 64.1518 91.7351 63.7088 90.7181 63.0083C89.701 62.3078 88.8372 61.3182 88.512 60.1268C88.3514 59.5385 88.5694 58.6603 89.1747 58.7343C91.6394 59.0357 94.1719 59.3334 96.5786 58.722C97.1232 58.5836 97.691 58.375 98.0229 57.9216C98.3549 57.4682 98.3124 56.7092 97.8109 56.4557ZM91.5936 58.0844C90.7476 57.9388 89.8832 57.8998 89.0275 57.9686C89.4433 57.1788 90.459 56.9709 91.3435 56.8504C93.2657 56.5887 95.2676 56.3334 97.1093 56.9429C97.231 56.9831 97.3609 57.0345 97.4267 57.1445C97.5133 57.2892 97.4501 57.4863 97.327 57.6016C97.2039 57.717 97.036 57.7693 96.8736 57.8148C95.1624 58.293 93.3447 58.3858 91.5936 58.0844ZM63.5956 97.9319C65.0115 97.8923 66.436 98.2053 67.7049 98.8348C67.3657 99.3223 66.684 99.3906 66.0906 99.4131L50.5805 100.002C50.4384 99.9841 50.4116 99.7646 50.5123 99.6627C50.613 99.5609 50.7704 99.5478 50.9135 99.5408L66.0543 98.8023C65.1795 98.7221 64.326 98.4199 63.5956 97.9319ZM33.7487 46.6368C33.5276 47.6938 34.4219 48.8216 35.4988 48.9015C33.7378 51.5555 30.5655 52.8653 27.5175 53.7899C25.6152 54.367 23.505 54.8408 21.6915 54.0266C21.4664 54.1641 21.7064 54.5028 21.944 54.6172C23.7089 55.4677 25.8012 54.9938 27.6785 54.4336C30.4314 53.612 33.2691 52.5501 35.1424 50.3719C35.2191 50.2828 35.2954 50.191 35.3723 50.0986L35.3725 50.0983C35.8547 49.5189 36.3574 48.9146 37.0823 48.7805C39.4162 48.3489 41.36 46.8871 43.2807 45.4427C43.7163 45.1151 44.1508 44.7884 44.5883 44.4748C47.2477 42.5688 50.1972 41.0684 53.3037 40.0415C53.5781 39.9508 53.9117 39.7824 53.8873 39.4945C50.0358 39.848 46.6693 42.1448 43.5651 44.4519L43.4616 44.5289C41.3519 46.0973 39.1473 47.7362 36.5514 48.1249C37.3994 47.4561 37.2203 45.9108 36.2637 45.4098C35.307 44.9088 33.9697 45.5797 33.7487 46.6368ZM34.4672 47.2827C34.294 46.77 34.5612 46.16 35.0361 45.9003C35.1709 45.8265 35.3217 45.7775 35.4753 45.7773C35.9824 45.7768 36.3527 46.3192 36.356 46.8262C36.3594 47.3333 36.1023 47.801 35.8525 48.2422C35.2681 48.1528 34.6562 47.8429 34.4672 47.2827ZM92.0985 35.9837C91.955 35.8239 91.9991 35.6086 92.0448 35.3856C92.0771 35.228 92.1102 35.0665 92.0784 34.9181C92.0508 34.7893 91.9758 34.6797 91.9005 34.5698C91.8338 34.4725 91.767 34.3749 91.7327 34.2636C91.7405 34.1164 91.9373 34.0409 92.0714 34.102C92.2055 34.163 92.2806 34.307 92.3274 34.4467C92.4981 34.9565 92.4104 35.5458 92.0985 35.9837ZM79.1145 24.7964C79.4734 23.9455 80.1848 23.191 81.0919 23.0183C81.3855 22.9624 81.3764 22.4785 81.1192 22.3263C80.862 22.1742 80.5316 22.2641 80.2618 22.3925C79.005 22.9908 78.2115 24.3076 77.9006 25.6643C77.5897 27.021 77.6925 28.434 77.7971 29.822L78.3527 37.1996C78.3716 37.4505 78.3947 37.7139 78.5343 37.9231C78.8188 38.3492 79.4289 38.3626 79.9403 38.3301L82.5285 38.1657C81.9532 37.715 81.1812 37.5252 80.4626 37.6579C80.0429 37.7354 79.6213 37.4586 79.3989 37.0943C79.1765 36.7301 79.1114 36.2941 79.0563 35.8709C78.6955 33.1021 78.5632 30.3036 78.661 27.5131C78.6934 26.5902 78.7556 25.6472 79.1145 24.7964ZM85.7234 90.2827C85.5763 90.3893 85.429 90.1464 85.4075 89.9661C84.4074 81.5585 84.2565 73.0758 84.1068 64.6102L84.0059 58.9031C84.003 58.7406 84.0053 58.5625 84.1098 58.4379C84.2897 58.2235 84.6679 58.3218 84.825 58.5534C84.9821 58.785 84.9823 59.085 84.9772 59.3649C84.8231 67.6954 84.9242 76.0422 85.7219 84.336L85.7512 84.6388C85.9341 86.5228 86.1197 88.4353 85.7234 90.2827ZM77.4074 37.286C77.1883 37.1657 76.9181 37.2338 76.6784 37.3047C65.5897 40.5843 54.5265 43.9659 43.6262 47.8256C43.4221 47.8979 43.1888 48.0019 43.142 48.2133C43.0924 48.4371 43.3031 48.6509 43.5285 48.6924C43.754 48.7339 43.982 48.6533 44.1972 48.5741C55.121 44.5556 66.2093 40.984 77.425 37.8714C77.6659 37.8045 77.6265 37.4063 77.4074 37.286Z" fill="#00160A"/>
<path fill-rule="evenodd" clip-rule="evenodd" d="M116.911 87.4532C116.653 87.5666 116.374 87.6722 116.096 87.6244C115.818 87.5766 115.558 87.3157 115.614 87.0393C116.124 84.5123 115.483 81.7757 113.904 79.7379C113.351 79.0238 112.692 78.3953 112.153 77.6704C111.813 77.2136 111.51 76.6392 111.683 76.0965C111.928 75.3244 112.916 75.1366 113.724 75.0815C115.603 74.9534 117.482 74.8254 119.361 74.6973C120.227 74.6383 121.224 74.6295 121.802 75.2769C123.411 77.0789 126.546 77.1999 128.289 75.5272C128.559 75.2684 128.898 75.7837 128.888 76.1573C128.854 77.3322 128.37 78.4886 127.556 79.337C127.364 79.5371 127.119 79.7332 126.843 79.7045C126.567 79.6758 126.364 79.2797 126.584 79.1108C127.056 78.7484 127.536 78.3769 127.867 77.8824C128.198 77.3879 128.358 76.7397 128.133 76.1892C126.919 77.7247 125.693 79.251 124.457 80.7679C122.312 83.3981 120.019 86.0884 116.911 87.4532ZM120.301 79.7136C119.992 79.799 119.663 79.7334 119.355 79.6463C117.137 79.0197 115.094 77.2869 112.825 77.6925C115.47 79.8228 116.875 83.3948 116.389 86.7562C118.132 86.383 119.508 85.0819 120.743 83.7962C122.57 81.8931 124.305 79.9015 125.939 77.8307C124.764 77.8211 123.594 77.4822 122.596 76.8626C121.362 77.1677 121.525 79.375 120.301 79.7136ZM121.911 76.2148C121.177 75.3487 119.856 75.3754 118.725 75.4748C117.249 75.6044 115.774 75.734 114.298 75.8636C113.699 75.9163 113.011 76.0214 112.699 76.5354C115.253 77.07 117.743 77.9098 120.099 79.0312C120.402 78.0794 121.009 77.227 121.81 76.6298C121.9 76.5626 122.003 76.4764 121.991 76.3647C121.985 76.3075 121.949 76.2586 121.911 76.2148Z" fill="#FFB61D"/>
<path fill-rule="evenodd" clip-rule="evenodd" d="M12.5122 55.5617C10.2896 54.6728 7.64089 54.9364 5.63707 56.2459C5.44308 56.3727 5.16417 56.2314 5.06813 56.0205C4.9721 55.8096 5.00802 55.5642 5.05714 55.3377C5.69712 52.3872 8.24661 50.1296 11.0819 49.0921C13.9171 48.0547 17.0184 48.0517 20.0323 48.2291C20.3314 48.2467 20.6439 48.2701 20.899 48.4272C21.1541 48.5842 21.3258 48.9201 21.1986 49.1913C20.013 51.7205 19.1199 54.3867 18.5428 57.1198C18.4492 57.563 17.9908 57.857 17.5394 57.894C17.088 57.9309 16.6456 57.764 16.2359 57.5708C14.9591 56.9688 13.8229 56.0859 12.5122 55.5617ZM12.7662 52.5763C12.5681 52.7372 12.2585 52.6522 12.0721 52.4778C11.8858 52.3035 11.7795 52.0622 11.633 51.8532C10.8472 50.7322 9.04379 50.8252 7.97483 51.6805C6.90587 52.5359 6.3886 53.8873 5.91757 55.1728C9.05364 53.8106 12.9162 54.2994 15.6141 56.3999C15.9824 56.6867 16.3479 57.0099 16.8015 57.1203C17.2551 57.2307 17.8265 57.0323 17.9414 56.5798C18.5552 54.1626 19.3115 51.7816 20.2052 49.4534C18.4904 51.5847 14.8894 50.8513 12.7662 52.5763ZM12.084 51.2882C12.2601 51.5095 12.5799 51.5682 12.8582 51.5182C13.1366 51.4683 13.3895 51.3297 13.6488 51.2169C14.5417 50.8288 15.5307 50.7422 16.488 50.5647C17.4453 50.3873 18.4327 50.0869 19.1066 49.3842C17.5861 49.3796 16.0656 49.3751 14.5451 49.3705C13.017 49.3659 11.3704 49.3983 10.1429 50.3082C10.8901 50.3355 11.6183 50.7031 12.084 51.2882Z" fill="#FFB61D"/>
<path fill-rule="evenodd" clip-rule="evenodd" d="M83.9201 55.358C83.9165 54.0205 83.9129 52.6831 83.9094 51.3457C83.9083 50.9616 83.9073 50.5775 83.9063 50.1934C83.9055 49.9286 83.9499 49.5972 84.2017 49.5148C84.3921 49.4525 84.6016 49.5893 84.6907 49.7688C84.7797 49.9482 84.7786 50.1573 84.7756 50.3577C84.7478 52.224 84.7201 54.0904 84.6923 55.9568C84.6883 56.2252 84.6433 56.5555 84.392 56.6497C83.9728 56.4123 83.9214 55.8397 83.9201 55.358H83.9201Z" fill="#00160A"/>
<path fill-rule="evenodd" clip-rule="evenodd" d="M81.2492 54.1202C81.0557 54.2051 80.9558 53.8861 80.9857 53.6768C81.0927 52.9279 81.2001 52.1774 81.3823 51.4431C81.4957 50.986 81.6591 50.505 82.0367 50.2234C82.4143 49.9419 83.0626 49.9911 83.2473 50.4244C83.3368 50.6342 83.2996 50.874 83.2585 51.0984C83.0043 52.4878 82.6619 53.8611 82.2342 55.2072C82.216 55.2643 82.1962 55.3239 82.1529 55.3654C82.0476 55.4663 81.8577 55.3984 81.7847 55.2721C81.7118 55.1458 81.7213 54.9901 81.733 54.8448C81.9068 54.832 81.9878 54.6276 82.0296 54.4583C82.2001 53.7672 82.3706 53.076 82.5411 52.3848C82.6737 51.847 82.7948 51.2346 82.486 50.7747C82.1689 50.9699 82.0497 51.365 81.9554 51.7252C81.7655 52.4501 81.5756 53.1749 81.3857 53.8998C81.363 53.9865 81.3313 54.0842 81.2492 54.1202L81.2492 54.1202Z" fill="#00160A"/>
</svg>
