<svg width="140" height="209" viewBox="0 0 140 209" fill="none" xmlns="http://www.w3.org/2000/svg">
<path d="M47.1472 116.057L51.0199 119.216L57.0628 113.665" stroke="#22285D" stroke-width="6" stroke-linecap="round" stroke-linejoin="round"/>
<line x1="17.4062" y1="206" x2="111.442" y2="206" stroke="#131313" stroke-width="4" stroke-linecap="round"/>
<g filter="url(#filter0_i_7108_9427)">
<path fill-rule="evenodd" clip-rule="evenodd" d="M48.9406 136.454V169.574H60.2355V139.184L48.9406 136.454Z" fill="#707EFF"/>
<path d="M59.0406 128.177H50.1355C49.4756 128.177 48.9406 128.695 48.9406 129.333V136.454L60.2355 139.184V129.333C60.2355 128.695 59.7005 128.177 59.0406 128.177Z" fill="#131313"/>
<path d="M40.049 204.068H53.8628C56.4913 204.068 58.7481 202.529 59.7223 200.332H35.3573C35.7848 202.461 37.7228 204.068 40.049 204.068Z" fill="#FF6D3B"/>
<path d="M47.7457 190.525H44.032C39.1926 190.525 35.2695 194.319 35.2695 198.998V199.446C35.2695 199.749 35.2997 200.046 35.3573 200.332H59.7223C60.0526 199.588 60.2355 198.767 60.2355 197.906V196.1V190.525V169.574H48.9406V189.37C48.9406 190.008 48.4057 190.525 47.7457 190.525Z" fill="white"/>
</g>
<path d="M33.3964 200.726C33.3966 200.727 33.3967 200.727 33.3968 200.728C34.0181 203.817 36.7985 206.068 40.049 206.068H53.8628C57.2809 206.068 60.2551 204.064 61.5506 201.143C61.9914 200.149 62.2355 199.053 62.2355 197.906V196.1V190.525V169.574V139.184V129.333C62.2355 127.527 60.7413 126.177 59.0406 126.177H50.1355C48.4348 126.177 46.9406 127.527 46.9406 129.333V136.454V169.574V188.525H44.032C38.1519 188.525 33.2695 193.152 33.2695 198.998V199.446C33.2695 199.882 33.313 200.31 33.3964 200.726Z" stroke="#131313" stroke-width="4" stroke-linejoin="round"/>
<g filter="url(#filter1_i_7108_9427)">
<path fill-rule="evenodd" clip-rule="evenodd" d="M81.2568 140.233V177.837H70.1413V138.554L81.2568 140.233Z" fill="#707EFF"/>
<path d="M71.3172 128.177H80.0809C80.7304 128.177 81.2568 128.695 81.2568 129.333V140.233L70.1413 138.554V129.333C70.1413 128.695 70.6677 128.177 71.3172 128.177Z" fill="#131313"/>
<path d="M90.0073 204.068H76.4128C73.9833 204.068 71.8765 202.711 70.835 200.726H94.5284C93.9637 202.656 92.1533 204.068 90.0073 204.068Z" fill="#FF6D3B"/>
<path d="M82.4328 190.525H86.0876C90.8501 190.525 94.7109 194.319 94.7109 198.998V199.446C94.7109 199.89 94.6473 200.319 94.5284 200.726H70.835C70.3916 199.881 70.1413 198.922 70.1413 197.906V196.1V190.525V177.837H81.2568V189.37C81.2568 190.008 81.7833 190.525 82.4328 190.525Z" fill="white"/>
</g>
<path d="M83.2568 129.333V140.233V177.837V188.525H86.0876C91.9214 188.525 96.7109 193.181 96.7109 198.998V199.446C96.7109 200.082 96.6196 200.701 96.4479 201.287C96.4478 201.288 96.4477 201.288 96.4476 201.288C95.6339 204.067 93.0445 206.068 90.0073 206.068H76.4128C73.2241 206.068 70.4435 204.284 69.064 201.655C68.4743 200.531 68.1413 199.254 68.1413 197.906V196.1V190.525V177.837V138.554V129.333C68.1413 127.557 69.5964 126.177 71.3172 126.177H80.0809C81.8017 126.177 83.2568 127.557 83.2568 129.333Z" stroke="#131313" stroke-width="4" stroke-linejoin="round"/>
<path d="M51.1826 190.359C54.5638 190.369 57.0403 191.578 57.0403 191.578" stroke="#131313" stroke-width="4" stroke-linecap="round"/>
<path d="M78.8408 190.359C75.4597 190.369 72.9832 191.578 72.9832 191.578" stroke="#131313" stroke-width="4" stroke-linecap="round"/>
<path d="M107.399 92.564L107.399 92.5544C107.567 87.9463 107.363 83.4326 105.918 79.1146C104.457 74.7512 101.773 70.7126 97.1864 66.974C92.3484 63.0308 86.0128 62.1455 80.8624 61.7844C79.6685 61.7006 78.5824 61.6468 77.5734 61.5968C76.2723 61.5323 75.0993 61.4742 73.9881 61.3665C73.0477 61.2753 72.2933 61.158 71.708 61.0009C71.1064 60.8395 70.8296 60.6737 70.722 60.5813C70.3451 60.2576 70.2681 59.9995 70.272 59.634C70.2775 59.1079 70.4709 58.424 70.8517 57.3736C70.904 57.2293 70.9602 57.0774 71.0187 56.9191C71.3399 56.0499 71.7325 54.9877 71.9592 53.9185C72.2382 52.6031 72.3191 51.0784 71.7218 49.5066L69.8881 50.2042L71.7218 49.5066C70.9913 47.5842 69.3009 46.5751 67.5142 46.1249C65.7461 45.6794 63.6105 45.6935 61.3515 45.993C56.8062 46.5957 51.1815 48.4358 45.6564 51.0663C35.0988 56.093 22.7327 66.256 21.1774 85.7369C20.9774 88.2414 20.9706 90.7304 20.9989 93.1607C21.0479 97.3745 21.3383 104.677 22.6129 111.878C23.2504 115.478 24.1427 119.105 25.3996 122.329C26.6489 125.535 28.3094 128.476 30.5583 130.576C35.0065 134.729 40.9527 137.363 47.5517 137.601L77.424 138.675C84.0231 138.912 90.1457 136.712 94.8851 132.889C97.9126 130.447 100.121 126.579 101.765 122.418C103.426 118.216 104.597 113.49 105.424 109.096C106.253 104.693 106.745 100.568 107.031 97.5475C107.174 96.0356 107.266 94.7963 107.322 93.9322C107.35 93.5 107.369 93.1614 107.381 92.9292C107.387 92.8131 107.392 92.7235 107.394 92.6621L107.398 92.5913L107.398 92.5722L107.399 92.5667L107.399 92.565C107.399 92.5645 107.399 92.564 105.4 92.4825L107.399 92.564Z" fill="#EEEFFC" stroke="#131313" stroke-width="4"/>
<mask id="mask0_7108_9427" style="mask-type:alpha" maskUnits="userSpaceOnUse" x="22" y="47" width="84" height="90">
<path d="M105.4 92.4825C105.73 83.4408 104.551 75.5575 95.9223 68.5245C87.2932 61.4914 72.8504 65.0459 69.4185 62.0988C65.9866 59.1517 71.5137 54.5905 69.8521 50.2179C68.1905 45.8452 57.3226 47.7265 46.5155 52.872C36.3514 57.7113 24.6503 67.3663 23.1711 85.895C22.9787 88.3049 22.9706 90.7191 22.9988 93.1364C23.0958 101.468 24.1497 121.856 31.9236 129.114C36.0304 132.948 41.5213 135.383 47.6247 135.602L77.4969 136.676C83.6003 136.896 89.2543 134.862 93.6299 131.333C104.146 122.851 105.4 92.4825 105.4 92.4825Z" fill="#AFB6EF"/>
</mask>
<g mask="url(#mask0_7108_9427)">
<path d="M106.652 94.7917C106.977 85.879 106.319 76.1406 98.0197 69.2154C89.7203 62.2902 72.5285 64.8188 67.1807 64.9541C61.8329 65.0894 65.5013 58.2928 63.9057 53.9841C62.3101 49.6754 50.387 52.5009 40.9992 57.0845C31.6115 61.6681 23.1118 71.5435 21.6723 89.8083C21.4851 92.1839 21.4753 94.5636 21.5004 96.9463C21.5867 105.159 22.5838 125.254 30.0599 132.402C34.0095 136.177 39.2924 138.573 45.1666 138.784L73.9175 139.818C87.4859 140.306 99.6214 129.663 103.224 116.571C106.133 106 106.652 94.7917 106.652 94.7917Z" fill="#C9CEF4"/>
<path d="M51.7714 75.0997C59.8883 74.618 73.5805 67.1922 86.9531 70.0724C77.8697 78.5471 51.027 95.5803 39.7929 94.8599C28.5588 94.1396 26.0316 90.2946 26.87 83.1908C27.7084 76.087 30.3931 73.6498 36.904 74.2553C43.415 74.8609 43.6545 75.5815 51.7714 75.0997Z" fill="#5260DD"/>
<g filter="url(#filter2_i_7108_9427)">
<path d="M102.325 92.3062C102.352 83.4666 101.177 80.2503 97.6256 76.236C94.0746 72.2217 87.9035 68.3555 77.6099 69.525C67.3162 70.6945 61.5954 73.9657 57.7036 76.3641C53.8119 78.7625 45.2108 84.8374 36.1531 82.7072C27.0955 80.5771 30.2295 74.9089 28.799 76.8308C25.7592 80.9145 24.8428 88.7513 25.2145 96.8829C25.5862 105.015 26.249 121.501 34.1809 128.314C38.3712 131.914 43.7688 133.218 49.815 133.219L78.5705 133.946C84.6166 133.946 88.5753 132.293 92.7878 128.693C102.912 120.043 102.325 92.3062 102.325 92.3062Z" fill="#707EFF"/>
</g>
</g>
<ellipse cx="2.70372" cy="2.645" rx="2.70372" ry="2.645" transform="matrix(0.999354 0.0359396 -0.0364733 0.999335 51.6562 89.9482)" fill="#131313"/>
<path d="M91.8321 93.3835C91.8321 100.728 85.9017 106.67 78.6016 106.67C71.3015 106.67 65.3711 100.728 65.3711 93.3835C65.3711 86.0388 71.3015 80.0973 78.6016 80.0973C85.9017 80.0973 91.8321 86.0388 91.8321 93.3835Z" stroke="#131313" stroke-width="4"/>
<ellipse cx="77.5516" cy="92.5149" rx="6.47733" ry="6.42716" fill="#131313"/>
<g filter="url(#filter3_i_7108_9427)">
<path d="M121.684 101.287L105.863 103.148L104.674 114.374C104.674 114.374 101.109 115.167 99.5244 117.546C97.9399 119.926 98.9302 122.305 100.713 124.288C99.3658 132.418 112.399 138.367 119.381 127.16C124.141 124.227 132.6 117.858 134.944 115.365C137.873 112.249 138.146 106.305 134.944 103.148C131.741 99.9907 121.684 101.287 121.684 101.287Z" fill="#707EFF"/>
</g>
<path d="M101.415 120.813C101.047 122.354 100.972 122.726 100.713 124.288M121.684 106.305L108.438 115.365C107.447 113.977 104.674 114.374 104.674 114.374M104.674 114.374C104.674 114.374 101.109 115.167 99.5244 117.546C97.9399 119.926 98.9302 122.305 100.713 124.288M104.674 114.374L105.863 103.148L121.684 101.287C121.684 101.287 131.741 99.9907 134.944 103.148C138.146 106.305 137.873 112.249 134.944 115.365C132.6 117.858 124.141 124.227 119.381 127.16C112.399 138.367 99.3658 132.418 100.713 124.288M105.465 122.804C105.32 121.485 105.603 119.325 107.247 118.838" stroke="#131313" stroke-width="4" stroke-linecap="round" stroke-linejoin="round"/>
<path d="M89.375 103.385L105.015 119.144" stroke="#131313" stroke-width="4" stroke-linecap="round"/>
<path d="M45.4923 147.545C44.5284 123.337 40.126 114.254 37.2877 112.655C38.3437 112.139 39.4242 111.672 40.5248 111.253C40.2826 109.624 38.082 106.591 37.0119 105.278C38.4397 104.831 39.8462 104.422 41.2306 104.047L38.4379 100.838C51.0012 98.3908 77.5176 94.6363 83.0765 99.1952L81.892 102.186C85.3503 103.001 87.9776 104 89.6689 104.907L84.8691 111.667C86.825 112.235 88.5506 112.813 89.9848 113.359C79.1709 120.875 77.1598 138.644 77.5059 146.589L45.4923 147.545Z" fill="#FABF48"/>
<g filter="url(#filter4_i_7108_9427)">
<path d="M21.233 155.288C9.51163 149.806 18.5166 115.083 22.0243 109.368C22.4834 115.158 24.5958 127.302 31.3212 132.426C33.8927 129.273 40.4203 120.799 40.4203 120.799L41.6071 125.331C44.3078 122.53 48.6754 123.388 49.5194 126.908C50.7015 131.839 46.3782 138.716 42.9918 143.069C39.6053 147.421 30.9255 159.82 21.233 155.288Z" fill="#707EFF"/>
</g>
<path d="M23.2111 141.295C28.9475 135.185 31.3212 132.426 31.3212 132.426M31.3212 132.426C33.8927 129.273 40.4203 120.799 40.4203 120.799L41.6071 125.331C44.3078 122.53 48.6754 123.388 49.5194 126.908C50.7015 131.839 46.3782 138.716 42.9918 143.069C39.6053 147.421 30.9255 159.82 21.233 155.288C9.51163 149.806 18.5166 115.083 22.0243 109.368C22.4834 115.158 24.5958 127.302 31.3212 132.426Z" stroke="#131313" stroke-width="4" stroke-linecap="round" stroke-linejoin="round"/>
<ellipse cx="73.3496" cy="89.3882" rx="3.3262" ry="3.30043" fill="white"/>
<path d="M43.737 109.423C51.5681 106.918 73.8187 105.883 81.8715 109.793M44.6823 103.223C51.8031 101.559 68.4382 98.9841 78.0129 101.997" stroke="#131313" stroke-width="4" stroke-linecap="round" stroke-linejoin="round"/>
<path fill-rule="evenodd" clip-rule="evenodd" d="M14.4279 5.63327C7.71512 8.37563 2.28995 14.5523 4.01915 23.8759C5.32529 30.8263 5.38868 30.8636 11.6579 27.8603C16.9442 25.3196 16.7188 25.6968 15.6355 21.4906C14.7134 17.9102 15.2004 15.6262 17.5897 13.5268C22.9029 8.89879 29.3827 15.8976 30.0404 18.4514C30.7626 21.2556 29.1243 23.2447 23.2364 26.6848C18.4253 29.505 17.308 32.0555 18.4796 37.4397C18.8354 39.0298 18.9812 40.3264 18.8562 40.5715C18.319 41.7213 21.2698 41.9066 24.1071 40.9205C32.6125 37.9369 32.5057 38.044 31.188 34.9107C30.3629 32.9595 30.4874 32.6078 32.3953 31.4572C37.0045 28.6882 39.1207 25.1109 39.3451 19.7195C39.9794 5.79573 29.1269 -0.334376 14.4279 5.63327ZM22.965 5.06891C28.8551 4.45556 36.0305 10.3978 36.5101 16.3308C36.9558 21.819 34.9111 25.7783 29.7313 29.3588C27.22 31.0892 26.6722 32.615 27.4336 35.676L27.8721 37.3785C24.871 38.4596 24.6692 38.5108 22.7279 39.3231C21.179 31.8474 20.481 31.2243 28.8656 25.6841C34.1281 22.216 34.1582 17.1139 28.967 12.5089C20.6408 5.12479 6.64428 14.9685 12.1951 24.31C12.4438 24.7537 12.6291 25.1601 12.5916 25.223C12.5352 25.3173 9.44187 26.8752 9.18954 26.9392C9.16431 26.9456 8.19458 23.9107 7.77236 22.8976C4.10725 14.1982 12.3464 6.2144 22.965 5.06891ZM22.8488 44.2802C18.8356 47.4849 20.0775 53.0379 24.8995 53.4956C34.5182 54.4173 41.1571 47.2128 34.7354 42.8398C32.8334 41.5083 25.1195 42.4508 22.8488 44.2802ZM29.6953 44.1445C31.7913 43.9331 33.9703 45.0876 34.3572 46.5898C35.0729 49.369 28.5642 52.4864 25.5046 50.835C24.0033 50.0154 22.2519 44.8849 29.6953 44.1445Z" fill="#131313"/>
<line x1="50.793" y1="168.946" x2="58.2368" y2="168.946" stroke="#131313" stroke-width="4" stroke-linecap="square"/>
<line x1="36.1562" y1="199.24" x2="58.2372" y2="199.24" stroke="#131313" stroke-width="4" stroke-linecap="square"/>
<line x1="72.1406" y1="177.001" x2="79.5844" y2="177.001" stroke="#131313" stroke-width="4" stroke-linecap="square"/>
<line x1="72.1406" y1="199.24" x2="94.1774" y2="199.24" stroke="#131313" stroke-width="4" stroke-linecap="square"/>
<defs>
<filter id="filter0_i_7108_9427" x="28.2695" y="124.177" width="35.9648" height="86.8906" filterUnits="userSpaceOnUse" color-interpolation-filters="sRGB">
<feFlood flood-opacity="0" result="BackgroundImageFix"/>
<feBlend mode="normal" in="SourceGraphic" in2="BackgroundImageFix" result="shape"/>
<feColorMatrix in="SourceAlpha" type="matrix" values="0 0 0 0 0 0 0 0 0 0 0 0 0 0 0 0 0 0 127 0" result="hardAlpha"/>
<feOffset dx="-13" dy="10"/>
<feGaussianBlur stdDeviation="1.5"/>
<feComposite in2="hardAlpha" operator="arithmetic" k2="-1" k3="1"/>
<feColorMatrix type="matrix" values="0 0 0 0 0.141667 0 0 0 0 0.170204 0 0 0 0 0.425 0 0 0 0.34 0"/>
<feBlend mode="darken" in2="shape" result="effect1_innerShadow_7108_9427"/>
</filter>
<filter id="filter1_i_7108_9427" x="63.1406" y="124.177" width="35.5703" height="86.8906" filterUnits="userSpaceOnUse" color-interpolation-filters="sRGB">
<feFlood flood-opacity="0" result="BackgroundImageFix"/>
<feBlend mode="normal" in="SourceGraphic" in2="BackgroundImageFix" result="shape"/>
<feColorMatrix in="SourceAlpha" type="matrix" values="0 0 0 0 0 0 0 0 0 0 0 0 0 0 0 0 0 0 127 0" result="hardAlpha"/>
<feOffset dx="-13" dy="10"/>
<feGaussianBlur stdDeviation="1.5"/>
<feComposite in2="hardAlpha" operator="arithmetic" k2="-1" k3="1"/>
<feColorMatrix type="matrix" values="0 0 0 0 0.141667 0 0 0 0 0.170204 0 0 0 0 0.425 0 0 0 0.34 0"/>
<feBlend mode="darken" in2="shape" result="effect1_innerShadow_7108_9427"/>
</filter>
<filter id="filter2_i_7108_9427" x="22.1367" y="66.3129" width="80.1953" height="67.6331" filterUnits="userSpaceOnUse" color-interpolation-filters="sRGB">
<feFlood flood-opacity="0" result="BackgroundImageFix"/>
<feBlend mode="normal" in="SourceGraphic" in2="BackgroundImageFix" result="shape"/>
<feColorMatrix in="SourceAlpha" type="matrix" values="0 0 0 0 0 0 0 0 0 0 0 0 0 0 0 0 0 0 127 0" result="hardAlpha"/>
<feOffset dx="-5" dy="-17"/>
<feGaussianBlur stdDeviation="1.5"/>
<feComposite in2="hardAlpha" operator="arithmetic" k2="-1" k3="1"/>
<feColorMatrix type="matrix" values="0 0 0 0 0.321569 0 0 0 0 0.376471 0 0 0 0 0.866667 0 0 0 0.6 0"/>
<feBlend mode="normal" in2="shape" result="effect1_innerShadow_7108_9427"/>
</filter>
<filter id="filter3_i_7108_9427" x="93.7305" y="96.0233" width="45.5156" height="39.3104" filterUnits="userSpaceOnUse" color-interpolation-filters="sRGB">
<feFlood flood-opacity="0" result="BackgroundImageFix"/>
<feBlend mode="normal" in="SourceGraphic" in2="BackgroundImageFix" result="shape"/>
<feColorMatrix in="SourceAlpha" type="matrix" values="0 0 0 0 0 0 0 0 0 0 0 0 0 0 0 0 0 0 127 0" result="hardAlpha"/>
<feOffset dx="-5" dy="-17"/>
<feGaussianBlur stdDeviation="1.5"/>
<feComposite in2="hardAlpha" operator="arithmetic" k2="-1" k3="1"/>
<feColorMatrix type="matrix" values="0 0 0 0 0.321569 0 0 0 0 0.376471 0 0 0 0 0.866667 0 0 0 0.6 0"/>
<feBlend mode="normal" in2="shape" result="effect1_innerShadow_7108_9427"/>
</filter>
<filter id="filter4_i_7108_9427" x="10.4062" y="104.368" width="41.3125" height="53.9059" filterUnits="userSpaceOnUse" color-interpolation-filters="sRGB">
<feFlood flood-opacity="0" result="BackgroundImageFix"/>
<feBlend mode="normal" in="SourceGraphic" in2="BackgroundImageFix" result="shape"/>
<feColorMatrix in="SourceAlpha" type="matrix" values="0 0 0 0 0 0 0 0 0 0 0 0 0 0 0 0 0 0 127 0" result="hardAlpha"/>
<feOffset dx="-5" dy="-17"/>
<feGaussianBlur stdDeviation="1.5"/>
<feComposite in2="hardAlpha" operator="arithmetic" k2="-1" k3="1"/>
<feColorMatrix type="matrix" values="0 0 0 0 0.321569 0 0 0 0 0.376471 0 0 0 0 0.866667 0 0 0 0.6 0"/>
<feBlend mode="normal" in2="shape" result="effect1_innerShadow_7108_9427"/>
</filter>
</defs>
</svg>
