<svg width="302" height="257" viewBox="0 0 302 257" fill="none" xmlns="http://www.w3.org/2000/svg">
<path d="M251.832 234.608H220.766C220.223 234.608 219.702 234.392 219.317 234.008C218.933 233.624 218.717 233.103 218.717 232.559C218.717 232.016 218.933 231.495 219.317 231.11C219.702 230.726 220.223 230.51 220.766 230.51H251.832C252.376 230.51 252.897 230.726 253.281 231.11C253.666 231.495 253.882 232.016 253.882 232.559C253.882 233.103 253.666 233.624 253.281 234.008C252.897 234.392 252.376 234.608 251.832 234.608ZM76.6998 99.0434C76.6998 99.0434 75.7162 94.8633 87.2737 91.175C98.8313 87.4868 105.225 83.0608 106.454 77.8972C106.454 77.8972 109.159 91.1751 114.077 93.6339C114.077 93.6339 120.225 74.4548 105.963 67.5701C91.7 60.6853 75.4703 70.5207 68.8308 83.3067C62.1914 96.0928 63.4209 98.5516 56.5355 106.42C52.0682 111.525 19.8956 129.287 44.978 148.712C44.978 148.712 62.6832 122.894 72.5194 124.861C72.5194 124.861 75.9245 110.074 75.4511 108.37C74.9935 106.72 65.6395 99.6342 68.7331 92.3778C68.862 92.0505 69.0541 91.7519 69.2985 91.4988C69.5429 91.2458 69.8347 91.0434 70.1573 90.9032C71.5802 90.337 74.1963 90.7844 76.6998 99.0434Z" fill="black"/>
<path d="M85.6261 145.061C82.238 145.062 77.8397 138.481 72.2037 124.993C72.1741 124.91 72.1773 124.819 72.2127 124.739C72.248 124.659 72.3129 124.595 72.3938 124.562C72.4747 124.528 72.5655 124.527 72.6473 124.558C72.7292 124.59 72.7958 124.651 72.8335 124.73C79.8978 141.635 83.8651 144.732 85.9628 144.348C89.107 143.773 90.0947 134.87 90.2102 131.489C89.9353 128.167 90.3916 124.826 91.5469 121.7C91.5767 121.625 91.6323 121.563 91.7037 121.525C91.7751 121.488 91.8576 121.477 91.9363 121.495C97.3325 122.682 101.838 121.823 105.324 118.942C114.116 111.677 113.74 93.8232 113.734 93.6435C113.733 93.5986 113.741 93.5539 113.757 93.512C113.773 93.47 113.797 93.4316 113.828 93.399C113.859 93.3664 113.896 93.3402 113.937 93.3219C113.978 93.3036 114.022 93.2936 114.067 93.2925C114.157 93.2935 114.243 93.3284 114.308 93.39C114.373 93.4517 114.412 93.5357 114.418 93.6251C114.438 94.371 114.809 111.989 105.76 119.468C102.167 122.437 97.5648 123.364 92.0797 122.224C91.0513 125.191 90.6466 128.338 90.8912 131.468C90.8748 132.03 90.411 144.229 86.0858 145.019C85.9341 145.047 85.7802 145.061 85.6261 145.061Z" fill="black"/>
<path d="M102.497 107.787C101.745 107.777 101.006 107.583 100.346 107.221C99.6856 106.858 99.1248 106.339 98.7126 105.709C98.6649 105.634 98.6483 105.544 98.6664 105.457C98.6845 105.37 98.7358 105.293 98.8095 105.243C98.8831 105.194 98.9732 105.175 99.0608 105.19C99.1483 105.206 99.2262 105.255 99.2781 105.327C99.8189 106.155 100.652 106.748 101.611 106.988C101.946 107.092 102.298 107.128 102.647 107.094C102.996 107.06 103.334 106.957 103.643 106.79C103.923 106.567 104.156 106.29 104.327 105.975C104.499 105.661 104.607 105.316 104.644 104.96C104.804 103.996 104.693 103.007 104.323 102.103C104.167 101.606 104.028 101.103 103.908 100.596C103.526 98.934 103.004 96.6595 103.926 94.4841C104.249 93.675 104.743 92.9456 105.375 92.3461C106.007 91.7466 106.762 91.2913 107.587 91.0117C108.768 90.677 110.025 90.7377 111.168 91.1845C111.253 91.2174 111.321 91.2824 111.357 91.3654C111.394 91.4483 111.396 91.5423 111.363 91.6268C111.33 91.7112 111.265 91.7791 111.182 91.8155C111.099 91.8519 111.005 91.8539 110.92 91.8211C109.919 91.4282 108.816 91.374 107.78 91.6667C107.052 91.9177 106.387 92.3231 105.831 92.8552C105.274 93.3872 104.84 94.0333 104.556 94.7492C103.719 96.7224 104.213 98.8725 104.574 100.442C104.702 100.999 104.848 101.48 104.977 101.904C105.384 102.915 105.5 104.02 105.314 105.093C105.261 105.539 105.12 105.97 104.897 106.359C104.675 106.749 104.376 107.09 104.019 107.361C103.564 107.65 103.036 107.798 102.497 107.787ZM101.127 92.6789C101.069 92.6789 101.012 92.6644 100.962 92.6367C100.912 92.609 100.869 92.569 100.838 92.5205C98.3526 88.6273 92.2145 90.9919 92.153 91.0151C92.1111 91.0326 92.0661 91.0416 92.0207 91.0416C91.9752 91.0415 91.9303 91.0323 91.8884 91.0147C91.8466 90.997 91.8086 90.9712 91.7769 90.9387C91.7452 90.9062 91.7202 90.8677 91.7035 90.8254C91.6869 90.7832 91.6788 90.738 91.6798 90.6926C91.6808 90.6471 91.6908 90.6024 91.7093 90.5609C91.7278 90.5194 91.7544 90.482 91.7876 90.451C91.8207 90.4199 91.8597 90.3957 91.9023 90.3799C91.9693 90.3526 98.6292 87.7913 101.414 92.1537C101.447 92.2053 101.465 92.2648 101.468 92.326C101.47 92.3871 101.455 92.4477 101.426 92.5014C101.396 92.5551 101.353 92.5999 101.3 92.6311C101.248 92.6624 101.188 92.6789 101.127 92.6789Z" fill="black"/>
<path d="M98.979 98.4118C99.1833 97.0007 98.6407 95.7542 97.767 95.6277C96.8934 95.5012 96.0195 96.5427 95.8152 97.9539C95.6109 99.365 96.1535 100.612 97.0272 100.738C97.9009 100.864 98.7747 99.823 98.979 98.4118Z" fill="black"/>
<path d="M110.608 100.095C110.812 98.684 110.27 97.4375 109.396 97.311C108.522 97.1846 107.648 98.226 107.444 99.6372C107.24 101.048 107.782 102.295 108.656 102.421C109.53 102.548 110.404 101.506 110.608 100.095Z" fill="black"/>
<path d="M97.7678 112.007L97.7377 112.006C95.1311 111.777 93.3811 110.941 92.5361 109.523C92.2102 108.886 92.0267 108.186 91.9983 107.471C91.97 106.756 92.0976 106.043 92.3722 105.382C92.4082 105.299 92.4757 105.234 92.5599 105.201C92.6441 105.167 92.7382 105.169 92.8213 105.205C92.9045 105.241 92.9699 105.308 93.0033 105.392C93.0367 105.476 93.0352 105.571 92.9993 105.654C92.9911 105.673 92.183 107.601 93.1263 109.178C93.8531 110.394 95.4248 111.116 97.7971 111.325C97.8846 111.333 97.9657 111.375 98.0236 111.441C98.0815 111.507 98.1116 111.593 98.1079 111.68C98.1041 111.768 98.0666 111.851 98.0033 111.912C97.94 111.973 97.8556 112.007 97.7678 112.007ZM91.866 121.46C87.2535 120.886 83.0476 118.533 80.1445 114.903C81.5296 121.221 85.2275 126.792 90.5115 130.522C90.3187 127.44 90.7803 124.351 91.866 121.46Z" fill="black"/>
<path d="M73.5769 185.555C67.7278 185.555 62.9237 185.527 61.6757 185.444C61.4668 185.431 61.264 185.369 61.0844 185.261C60.9049 185.153 60.7539 185.004 60.6443 184.826C58.8977 182.151 62.88 170.446 63.8459 167.716C58.3458 167.185 39.4308 158.422 38.6036 158.038C38.5585 158.017 38.5186 157.986 38.4865 157.948C38.4545 157.91 38.4312 157.866 38.4181 157.818C38.4051 157.77 38.4028 157.72 38.4112 157.67C38.4197 157.621 38.4387 157.575 38.467 157.534L44.6966 148.518C44.7497 148.448 44.8279 148.401 44.9149 148.387C45.0019 148.373 45.091 148.393 45.1636 148.443C45.2361 148.493 45.2864 148.569 45.304 148.655C45.3217 148.742 45.3052 148.832 45.2581 148.906L39.2594 157.588C42.0661 158.878 60.0398 167.058 64.3213 167.058C64.3761 167.058 64.4301 167.071 64.4788 167.097C64.5274 167.122 64.5692 167.158 64.6007 167.203C64.6322 167.248 64.6524 167.3 64.6597 167.354C64.6669 167.409 64.661 167.464 64.6423 167.516C63.2072 171.488 59.7925 182.273 61.2167 184.452C61.2682 184.542 61.3413 184.618 61.4295 184.672C61.5177 184.726 61.6181 184.757 61.7215 184.762C65.2195 184.995 98.0985 184.781 100.859 184.763C101.855 183.256 109.914 170.873 108.59 167.074C107.134 162.894 106.145 160.335 106.135 160.31C106.106 160.235 106.104 160.152 106.13 160.076C106.156 160 106.208 159.936 106.276 159.894L111.44 156.766C110.547 154.569 103.933 139.212 90.3292 130.813C90.252 130.765 90.197 130.689 90.1761 130.601C90.1552 130.513 90.1702 130.42 90.2179 130.342C90.2655 130.265 90.3419 130.21 90.4301 130.189C90.5184 130.168 90.6113 130.184 90.6885 130.231C105.492 139.372 112.118 156.615 112.183 156.788C112.211 156.863 112.212 156.945 112.186 157.02C112.16 157.095 112.109 157.159 112.041 157.201L106.875 160.331C107.691 162.493 108.478 164.667 109.235 166.85C110.749 171.196 101.713 184.721 101.327 185.294C101.296 185.34 101.254 185.378 101.205 185.404C101.156 185.43 101.102 185.444 101.046 185.445C100.086 185.452 84.881 185.555 73.5769 185.555Z" fill="black"/>
<path d="M71.3821 150.351L64.6607 167.399L60.0391 166.348L71.3821 150.351ZM106.209 160.433L98.9543 148.343L108.373 159.121L106.209 160.433Z" fill="black"/>
<path d="M140.394 223.237C138.166 223.237 135.977 221.752 135.253 221.21C134.906 221.581 134.477 221.867 134.002 222.046C133.526 222.225 133.015 222.293 132.509 222.244C129.516 221.873 126.808 217.072 125.016 213.894C124.602 213.112 124.144 212.353 123.644 211.622C123.036 210.841 121.307 211.817 119.118 213.055C116.315 214.638 112.465 216.81 108.361 216.672L107.013 216.629C76.9921 215.696 26.037 213.194 22.0663 206.924C17.3367 199.458 40.0031 160.364 40.9703 158.703C40.9929 158.664 41.023 158.63 41.0588 158.603C41.0945 158.576 41.1353 158.556 41.1787 158.545C41.2221 158.533 41.2673 158.531 41.3118 158.537C41.3563 158.543 41.3991 158.558 41.4378 158.58C41.4766 158.603 41.5105 158.633 41.5376 158.669C41.5648 158.704 41.5846 158.745 41.596 158.789C41.6074 158.832 41.6101 158.877 41.604 158.922C41.5979 158.966 41.5831 159.009 41.5605 159.048C41.3255 159.451 18.1338 199.44 22.6428 206.558C25.4202 210.943 56.1796 214.365 107.034 215.946L108.383 215.989C112.302 216.109 115.897 214.09 118.782 212.461C121.354 211.006 123.212 209.954 124.183 211.203C124.706 211.96 125.182 212.746 125.611 213.56C127.336 216.617 129.942 221.238 132.593 221.566C133.046 221.602 133.501 221.525 133.917 221.343C134.332 221.16 134.697 220.878 134.977 220.521C135.037 220.458 135.118 220.42 135.204 220.415C135.29 220.41 135.375 220.438 135.442 220.493C135.476 220.52 138.837 223.24 141.528 222.385C142.904 221.945 143.899 220.623 144.486 218.454C144.5 218.401 144.527 218.352 144.565 218.312C144.602 218.272 144.649 218.241 144.701 218.223C144.753 218.204 144.809 218.199 144.863 218.206C144.918 218.214 144.97 218.235 145.014 218.267C145.051 218.292 148.611 220.817 151.17 219.708C152.57 219.099 153.445 217.489 153.773 214.923C154.096 212.13 153.677 209.3 152.559 206.72C151.165 203.411 148.26 197.402 144.478 194.344C144.413 194.291 144.37 194.216 144.357 194.133C144.343 194.05 144.361 193.965 144.407 193.895C144.452 193.824 144.522 193.773 144.603 193.75C144.683 193.728 144.77 193.736 144.845 193.773C145.268 193.985 155.266 199.003 159.435 202.927C161.588 204.954 163.71 205.058 164.857 204.259C166.15 203.36 166.359 201.394 165.403 199.128C163.093 193.659 149.105 182.807 146.769 182.237C146.707 182.222 146.65 182.19 146.606 182.144C146.561 182.098 146.53 182.04 146.517 181.978C146.503 181.915 146.508 181.85 146.53 181.79C146.551 181.729 146.59 181.677 146.64 181.637C146.691 181.597 151.767 177.613 152.471 173.853C152.936 171.373 152.63 169.458 151.631 168.6C150.81 167.895 149.506 167.848 147.756 168.46C145.592 169.216 143.363 170.722 141.208 172.177C138.49 174.011 135.68 175.908 132.831 176.464C129.591 177.096 126.299 177.481 123.897 177.762C122.498 177.926 121.394 178.055 120.653 178.186C116.329 178.949 105.786 181.175 101.277 185.354C101.21 185.416 101.122 185.448 101.031 185.445C100.941 185.441 100.855 185.402 100.794 185.336C100.732 185.269 100.699 185.181 100.703 185.09C100.706 185 100.746 184.914 100.812 184.853C105.454 180.551 116.15 178.288 120.534 177.514C121.295 177.379 122.408 177.249 123.817 177.084C126.209 176.804 129.485 176.42 132.701 175.793C135.413 175.264 138.165 173.407 140.825 171.61C143.017 170.131 145.283 168.601 147.53 167.816C149.527 167.115 151.057 167.206 152.076 168.082C153.283 169.118 153.661 171.212 153.143 173.978C152.514 177.334 148.84 180.688 147.523 181.799C151.2 183.514 163.787 193.545 166.032 198.863C167.334 201.946 166.48 203.962 165.246 204.819C163.873 205.775 161.398 205.713 158.967 203.425C156.028 200.658 149.931 197.233 146.684 195.5C149.526 198.609 151.743 203.025 153.189 206.455C154.353 209.146 154.789 212.097 154.45 215.01C154.09 217.832 153.077 219.624 151.441 220.335C149.042 221.378 146.077 219.756 145.013 219.085C144.344 221.227 143.243 222.555 141.734 223.036C141.301 223.172 140.848 223.24 140.394 223.237Z" fill="black"/>
<path d="M135.226 221.097C135.182 221.098 135.139 221.089 135.098 221.072C135.014 221.038 134.947 220.972 134.912 220.889C134.876 220.806 134.876 220.711 134.91 220.628C136.165 217.538 130.21 207.473 127.81 203.856C127.785 203.819 127.767 203.777 127.757 203.732C127.748 203.688 127.748 203.642 127.756 203.598C127.765 203.553 127.782 203.511 127.807 203.473C127.833 203.435 127.865 203.403 127.903 203.378C127.94 203.353 127.983 203.335 128.027 203.327C128.072 203.318 128.118 203.319 128.162 203.328C128.207 203.338 128.249 203.356 128.286 203.381C128.323 203.407 128.355 203.44 128.379 203.478C128.74 204.021 137.19 216.83 135.543 220.885C135.517 220.948 135.473 221.002 135.417 221.039C135.361 221.077 135.294 221.097 135.226 221.097ZM144.816 218.885C144.731 218.885 144.648 218.853 144.585 218.795C144.522 218.737 144.483 218.658 144.476 218.572C143.755 209.923 135.237 198.701 135.151 198.588C135.122 198.553 135.1 198.512 135.087 198.468C135.074 198.424 135.07 198.378 135.076 198.332C135.081 198.287 135.095 198.243 135.118 198.203C135.141 198.163 135.171 198.128 135.207 198.1C135.244 198.073 135.286 198.052 135.33 198.041C135.374 198.029 135.42 198.027 135.466 198.034C135.511 198.041 135.555 198.057 135.594 198.081C135.633 198.105 135.666 198.136 135.693 198.173C136.048 198.638 144.419 209.666 145.156 218.515C145.164 218.605 145.135 218.695 145.077 218.764C145.019 218.833 144.935 218.876 144.845 218.884C144.835 218.885 144.826 218.885 144.816 218.885ZM122.211 177.962C122.152 177.962 122.094 177.947 122.042 177.918C121.991 177.889 121.948 177.847 121.918 177.796L109.99 158.044C109.943 157.967 109.929 157.874 109.951 157.786C109.973 157.698 110.028 157.622 110.106 157.575C110.183 157.528 110.276 157.514 110.364 157.536C110.452 157.557 110.528 157.613 110.575 157.69L122.503 177.443C122.534 177.495 122.551 177.554 122.552 177.615C122.553 177.675 122.538 177.735 122.508 177.787C122.478 177.84 122.435 177.884 122.383 177.914C122.33 177.945 122.271 177.961 122.211 177.961V177.962ZM24.8148 225.636C24.7842 225.636 24.7536 225.632 24.724 225.624C24.6807 225.613 24.6402 225.592 24.6047 225.565C24.5692 225.537 24.5396 225.503 24.5174 225.464C24.4952 225.425 24.4809 225.382 24.4753 225.337C24.4697 225.293 24.473 225.248 24.4849 225.204L28.7521 209.721C28.7762 209.634 28.8339 209.56 28.9127 209.515C28.9915 209.47 29.0848 209.459 29.1721 209.483C29.2595 209.507 29.3336 209.565 29.3783 209.643C29.4231 209.722 29.4346 209.816 29.4105 209.903L25.1441 225.386C25.1242 225.458 25.0812 225.522 25.0217 225.567C24.9623 225.612 24.8896 225.636 24.8148 225.636ZM108.373 225.636C108.282 225.636 108.195 225.6 108.131 225.536C108.067 225.472 108.031 225.385 108.031 225.295V216.331C108.031 216.24 108.067 216.153 108.131 216.089C108.195 216.025 108.282 215.989 108.373 215.989C108.463 215.989 108.55 216.025 108.614 216.089C108.678 216.153 108.714 216.24 108.714 216.331V225.295C108.714 225.386 108.678 225.473 108.614 225.537C108.55 225.601 108.463 225.636 108.373 225.636Z" fill="black"/>
<path d="M290.557 225.636H16.1267C16.0361 225.636 15.9492 225.6 15.8852 225.536C15.8211 225.472 15.7852 225.385 15.7852 225.294C15.7852 225.204 15.8211 225.117 15.8852 225.053C15.9492 224.989 16.0361 224.953 16.1267 224.953H290.557C290.648 224.953 290.735 224.989 290.799 225.053C290.863 225.117 290.899 225.204 290.899 225.294C290.899 225.385 290.863 225.472 290.799 225.536C290.735 225.6 290.648 225.636 290.557 225.636Z" fill="black"/>
<path d="M270.861 214.282H180.168L193.829 148.712H283.954C284.157 148.712 284.357 148.757 284.541 148.845C284.724 148.932 284.886 149.059 285.014 149.216C285.142 149.374 285.233 149.558 285.281 149.755C285.329 149.953 285.333 150.158 285.291 150.357L272.199 213.194C272.135 213.502 271.967 213.777 271.723 213.975C271.48 214.173 271.175 214.282 270.861 214.282Z" fill="#FED44A"/>
<path d="M188.293 149.8L175.201 212.637C175.159 212.836 175.163 213.041 175.211 213.238C175.259 213.436 175.35 213.62 175.478 213.777C175.606 213.935 175.768 214.062 175.951 214.149C176.135 214.236 176.335 214.282 176.538 214.282H180.172L193.833 148.712H189.63C189.317 148.712 189.012 148.82 188.769 149.018C188.525 149.216 188.357 149.492 188.293 149.8Z" fill="black"/>
<path d="M259.344 234.608H237.658L223.996 195.267H246.631C246.915 195.267 247.192 195.355 247.423 195.519C247.655 195.684 247.829 195.916 247.922 196.185L260.634 232.794C260.705 233 260.727 233.22 260.696 233.436C260.665 233.651 260.583 233.856 260.457 234.034C260.33 234.212 260.164 234.356 259.97 234.456C259.776 234.556 259.562 234.608 259.344 234.608Z" fill="#2CA68F"/>
<path d="M220.048 197.081L232.76 233.69C232.853 233.958 233.028 234.191 233.259 234.355C233.49 234.52 233.767 234.608 234.051 234.608H237.658L223.996 195.267H221.339C221.121 195.267 220.906 195.319 220.713 195.418C220.519 195.518 220.352 195.663 220.226 195.841C220.099 196.018 220.017 196.223 219.986 196.439C219.956 196.655 219.977 196.875 220.048 197.081Z" fill="black"/>
<path d="M234.706 178.382H231.099C229.379 178.382 227.984 179.777 227.984 181.497C227.984 183.217 229.379 184.611 231.099 184.611H234.706C236.426 184.611 237.821 183.217 237.821 181.497C237.821 179.777 236.426 178.382 234.706 178.382Z" fill="black"/>
<path d="M173.565 35.7729H131.429C131.066 35.7729 130.719 35.9169 130.463 36.173C130.206 36.4292 130.062 36.7767 130.062 37.139V67.3556C130.062 67.7179 130.206 68.0653 130.463 68.3215C130.719 68.5777 131.066 68.7216 131.429 68.7216H157.552L162.84 77.1411C162.903 77.2415 162.992 77.3237 163.096 77.3797C163.201 77.4357 163.318 77.4635 163.437 77.4604C163.555 77.4573 163.671 77.4234 163.772 77.362C163.874 77.3007 163.957 77.2139 164.015 77.1104L168.7 68.7216H173.565C173.928 68.7216 174.275 68.5777 174.531 68.3215C174.787 68.0653 174.931 67.7179 174.931 67.3556V37.139C174.931 36.7767 174.787 36.4292 174.531 36.173C174.275 35.9169 173.928 35.7729 173.565 35.7729Z" fill="#FD6F41"/>
<path d="M257.049 64.1809H192.901C192.539 64.1809 192.191 64.3248 191.935 64.581C191.679 64.8372 191.535 65.1846 191.535 65.5469V101.259C191.535 101.621 191.679 101.969 191.935 102.225C192.191 102.481 192.539 102.625 192.901 102.625H240.83L245.345 109.811C245.409 109.911 245.497 109.993 245.601 110.049C245.706 110.105 245.823 110.133 245.941 110.13C246.06 110.127 246.175 110.093 246.277 110.032C246.378 109.971 246.462 109.884 246.52 109.781L250.516 102.625H257.048C257.41 102.625 257.758 102.481 258.014 102.225C258.27 101.969 258.414 101.621 258.414 101.259V65.5469C258.414 65.1846 258.27 64.8372 258.014 64.581C257.758 64.3248 257.41 64.1809 257.048 64.1809H257.049Z" fill="#C1E5D9"/>
<path d="M142.167 54.9213C144.804 54.9213 144.808 50.8232 142.167 50.8232C139.53 50.8232 139.526 54.9213 142.167 54.9213ZM152.495 54.9213C155.132 54.9213 155.137 50.8232 152.495 50.8232C149.858 50.8232 149.854 54.9213 152.495 54.9213ZM162.823 54.9213C165.46 54.9213 165.465 50.8232 162.823 50.8232C160.186 50.8232 160.182 54.9213 162.823 54.9213ZM249.682 78.1438H226.076C225.894 78.1438 225.721 78.0719 225.593 77.9438C225.464 77.8157 225.392 77.642 225.392 77.4608C225.392 77.2797 225.464 77.1059 225.593 76.9779C225.721 76.8498 225.894 76.7778 226.076 76.7778H249.682C249.864 76.7778 250.037 76.8498 250.165 76.9779C250.294 77.1059 250.366 77.2797 250.366 77.4608C250.366 77.642 250.294 77.8157 250.165 77.9438C250.037 78.0719 249.864 78.1438 249.682 78.1438ZM249.682 84.3709H226.076C225.894 84.3709 225.721 84.2989 225.593 84.1708C225.464 84.0427 225.392 83.869 225.392 83.6879C225.392 83.5067 225.464 83.333 225.593 83.2049C225.721 83.0768 225.894 83.0048 226.076 83.0048H249.682C249.864 83.0048 250.037 83.0768 250.165 83.2049C250.294 83.333 250.366 83.5067 250.366 83.6879C250.366 83.869 250.294 84.0427 250.165 84.1708C250.037 84.2989 249.864 84.3709 249.682 84.3709ZM249.682 90.5972H226.076C225.894 90.5972 225.721 90.5253 225.593 90.3972C225.464 90.2691 225.392 90.0954 225.392 89.9142C225.392 89.7331 225.464 89.5594 225.593 89.4313C225.721 89.3032 225.894 89.2312 226.076 89.2312H249.682C249.864 89.2312 250.037 89.3032 250.165 89.4313C250.294 89.5594 250.366 89.7331 250.366 89.9142C250.366 90.0954 250.294 90.2691 250.165 90.3972C250.037 90.5253 249.864 90.5972 249.682 90.5972ZM218.48 93.8784H200.556C200.013 93.8779 199.492 93.6618 199.108 93.2777C198.723 92.8935 198.507 92.3727 198.507 91.8294V75.5463C198.507 75.003 198.723 74.4822 199.108 74.098C199.492 73.7139 200.013 73.4978 200.556 73.4973H218.48C219.023 73.4978 219.544 73.7139 219.928 74.098C220.312 74.4822 220.528 75.003 220.529 75.5463V91.8294C220.528 92.3727 220.312 92.8935 219.928 93.2777C219.544 93.6618 219.023 93.8779 218.48 93.8784ZM200.556 74.8633C200.375 74.8635 200.201 74.9355 200.073 75.0636C199.945 75.1916 199.873 75.3652 199.873 75.5463V91.8294C199.873 92.0105 199.945 92.1841 200.073 92.3122C200.201 92.4402 200.375 92.5122 200.556 92.5124H218.48C218.661 92.5122 218.835 92.4402 218.963 92.3122C219.091 92.1841 219.163 92.0105 219.163 91.8294V75.5463C219.163 75.3652 219.091 75.1916 218.963 75.0636C218.835 74.9355 218.661 74.8635 218.48 74.8633H200.556Z" fill="black"/>
<path d="M222.502 87.4858H180.479C180.117 87.4858 179.77 87.6298 179.513 87.8859C179.257 88.1421 179.113 88.4896 179.113 88.8519V117.81C179.113 118.173 179.257 118.52 179.513 118.776C179.77 119.032 180.117 119.176 180.479 119.176H188.99L193.55 126.434C193.613 126.534 193.701 126.617 193.806 126.673C193.91 126.729 194.028 126.757 194.146 126.753C194.265 126.75 194.38 126.716 194.482 126.655C194.583 126.594 194.667 126.507 194.725 126.403L198.76 119.176H222.502C222.864 119.176 223.212 119.032 223.468 118.776C223.724 118.52 223.868 118.173 223.868 117.81V88.8519C223.868 88.4896 223.724 88.1421 223.468 87.8859C223.212 87.6298 222.864 87.4858 222.502 87.4858Z" fill="#2CA68F"/>
<path d="M213.29 98.0093H189.683C189.502 98.0093 189.328 97.9374 189.2 97.8093C189.072 97.6812 189 97.5075 189 97.3263C189 97.1452 189.072 96.9715 189.2 96.8434C189.328 96.7153 189.502 96.6433 189.683 96.6433H213.29C213.471 96.6433 213.645 96.7153 213.773 96.8434C213.901 96.9715 213.973 97.1452 213.973 97.3263C213.973 97.5075 213.901 97.6812 213.773 97.8093C213.645 97.9374 213.471 98.0093 213.29 98.0093ZM213.29 104.236H189.683C189.502 104.236 189.328 104.164 189.2 104.036C189.072 103.908 189 103.734 189 103.553C189 103.372 189.072 103.198 189.2 103.07C189.328 102.942 189.502 102.87 189.683 102.87H213.29C213.471 102.87 213.645 102.942 213.773 103.07C213.901 103.198 213.973 103.372 213.973 103.553C213.973 103.734 213.901 103.908 213.773 104.036C213.645 104.164 213.471 104.236 213.29 104.236ZM213.29 110.463H189.683C189.502 110.463 189.328 110.391 189.2 110.263C189.072 110.135 189 109.961 189 109.78C189 109.599 189.072 109.425 189.2 109.297C189.328 109.169 189.502 109.097 189.683 109.097H213.29C213.471 109.097 213.645 109.169 213.773 109.297C213.901 109.425 213.973 109.599 213.973 109.78C213.973 109.961 213.901 110.135 213.773 110.263C213.645 110.391 213.471 110.463 213.29 110.463Z" fill="black"/>
<path d="M7.77344 182.424H46.119V186.798H7.77344V182.424Z" fill="#FED44A"/>
<path d="M249.684 133.028H288.029V137.402H249.684V133.028Z" fill="#674CFB"/>
<path d="M46.5391 50.6851H84.8846V55.0591H46.5391V50.6851Z" fill="#FD6F41"/>
<path d="M213.291 38.9093C212.671 38.9093 212.064 38.7253 211.549 38.3807C211.033 38.0361 210.631 37.5462 210.393 36.9731C210.156 36.4 210.094 35.7694 210.215 35.161C210.336 34.5526 210.635 33.9937 211.073 33.5551C211.512 33.1165 212.071 32.8178 212.679 32.6967C213.288 32.5757 213.918 32.6378 214.491 32.8752C215.065 33.1126 215.555 33.5146 215.899 34.0304C216.244 34.5462 216.428 35.1526 216.428 35.7729C216.427 36.6044 216.096 37.4017 215.508 37.9897C214.92 38.5777 214.123 38.9084 213.291 38.9093ZM213.291 33.3195C212.806 33.3195 212.331 33.4634 211.928 33.733C211.525 34.0025 211.21 34.3857 211.024 34.834C210.839 35.2823 210.79 35.7756 210.885 36.2515C210.979 36.7274 211.213 37.1646 211.556 37.5077C211.899 37.8508 212.337 38.0845 212.812 38.1791C213.288 38.2738 213.782 38.2252 214.23 38.0395C214.678 37.8538 215.062 37.5394 215.331 37.1359C215.601 36.7325 215.745 36.2581 215.745 35.7729C215.744 35.1225 215.485 34.499 215.025 34.0391C214.565 33.5792 213.942 33.3204 213.291 33.3195ZM128.093 125.849C127.473 125.849 126.866 125.665 126.351 125.32C125.835 124.975 125.433 124.485 125.196 123.912C124.958 123.339 124.896 122.709 125.017 122.1C125.138 121.492 125.437 120.933 125.876 120.495C126.314 120.056 126.873 119.757 127.482 119.636C128.09 119.515 128.721 119.577 129.294 119.815C129.867 120.052 130.357 120.454 130.701 120.97C131.046 121.485 131.23 122.092 131.23 122.712C131.229 123.544 130.899 124.341 130.31 124.929C129.722 125.517 128.925 125.848 128.093 125.849ZM128.093 120.259C127.608 120.259 127.133 120.403 126.73 120.673C126.327 120.943 126.012 121.326 125.827 121.774C125.641 122.223 125.593 122.716 125.687 123.192C125.782 123.668 126.016 124.105 126.359 124.448C126.702 124.791 127.14 125.024 127.616 125.119C128.092 125.213 128.585 125.165 129.033 124.979C129.482 124.793 129.865 124.478 130.134 124.075C130.404 123.671 130.547 123.197 130.547 122.712C130.546 122.061 130.287 121.438 129.827 120.978C129.367 120.518 128.744 120.26 128.093 120.259Z" fill="black"/>
<path d="M271.359 114.507L266.359 113.141L269.993 108.824L271.359 114.507Z" fill="#FD6F41"/>
<path d="M24.2423 143.928L19.2422 142.562L22.8761 138.245L24.2423 143.928ZM168.842 18.5289L163.842 17.1628L167.476 12.8462L168.842 18.5289Z" fill="#FED44A"/>
<path d="M68.2071 70.9879L63.207 69.6218L66.841 65.3052L68.2071 70.9879Z" fill="#674CFB"/>
<path d="M155.84 237.729L150.84 236.363L154.474 232.046L155.84 237.729Z" fill="#2CA68F"/>
</svg>
