<svg width="135" height="108" viewBox="0 0 135 108" fill="none" xmlns="http://www.w3.org/2000/svg">
<path fill-rule="evenodd" clip-rule="evenodd" d="M77.3063 107.621C93.3373 107.621 107.405 95.6965 99.5048 79.4997C91.6041 63.3029 120.96 63.8261 129.583 52.6319C140.1 38.9801 137.054 -18.9694 69.543 16.3595C58.7285 22.0187 30.9545 10.5374 21.7417 16.2342C10.8974 22.94 -4.35998 36.6711 10.8974 50.7368C18.4129 57.6652 -8.5319 75.6483 3.26937 91.7565C14.7844 107.474 22.8563 92.4907 40.3879 95.6965C57.9194 98.9024 65.4004 107.621 77.3063 107.621Z" fill="#FFC830"/>
<path d="M58.6992 79.4438C58.6992 79.4438 62.3904 77.7075 63.7684 76.4995C65.1464 75.2916 66.8596 72.2904 66.8596 72.2904C66.8596 72.2904 85.6781 85.881 97.9484 83.9423C100.776 83.4956 106.284 81.6164 106.636 78.3054C107.595 69.2642 94.3227 66.9538 97.2218 62.3689C98.9915 59.5702 104.489 63.7354 104.489 63.7354L127.29 74.9508C127.29 74.9508 119.413 94.3683 100.297 95.1465C76.7814 96.1037 58.6992 79.4438 58.6992 79.4438Z" fill="white"/>
<path fill-rule="evenodd" clip-rule="evenodd" d="M40.6231 3.40003C40.4091 3.31601 39.2598 1.90874 37.8007 1.65262C37.1376 1.53623 37.7394 2.38049 37.0097 2.38808C34.8364 2.41071 31.3047 2.00241 30.6504 2.38808C30.1641 2.67381 31.235 3.67199 30.6504 3.71782C25.1344 4.15018 16.7194 9.65769 14.8937 12.3296C14.3126 13.18 19.0119 11.7373 18.2631 12.1577C17.4228 12.6295 16.4908 15.719 15.9335 18.1051C15.5478 19.7482 15.3049 21.8629 15.2191 24.1633C15.1477 26.1494 15.1763 26.478 15.462 27.5639C15.7907 28.7784 16.0478 29.1356 16.4908 28.9641C16.6479 28.907 16.7194 28.6927 16.7194 28.2926C16.7194 27.9783 16.8908 27.0352 17.1052 26.1922L17.4767 24.6777L17.6338 25.3064C17.8339 26.0351 19.0055 28.2926 20.0628 29.9357C20.1198 30.0229 20.3652 29.912 20.5864 29.3773C20.788 28.8899 20.7062 28.1115 21.0487 27.2771C21.8289 25.3766 23.3607 22.9055 25.1344 20.9275C27.7558 18.0042 28.6256 14.6211 31.0828 11.9054C35.6687 6.83724 41.4242 3.71454 40.6231 3.40003Z" fill="white"/>
<path fill-rule="evenodd" clip-rule="evenodd" d="M18.3282 12.8474C17.5926 13.4389 16.5006 18.237 16.4819 18.3172C16.0961 19.9604 15.7242 25.6664 16.1043 26.7467C16.4845 27.827 17.5488 23.9327 17.5488 23.9327C17.5488 23.9327 19.1576 28.1103 20.5792 29.2557C20.6399 29.3046 18.8895 24.0872 18.3282 21.0413C17.5872 17.0207 18.7469 12.5107 18.3282 12.8474Z" fill="#E7EAEE"/>
<path fill-rule="evenodd" clip-rule="evenodd" d="M45.746 96.8796C47.1176 96.5796 49.432 95.5347 50.3182 95.1774C51.2043 94.82 53.9045 91.0072 54.8761 86.7064C55.5762 83.5344 55.9334 79.0194 55.5334 78.2621C55.4743 78.1546 55.2582 76.1015 55.8335 76.7719C57.1124 78.2621 58.6304 80.6016 63.4203 76.4094C64.7249 75.2677 66.4541 73.7941 65.9988 72.4914C64.7249 68.8464 59.2029 61.507 58.361 60.9511C57.3545 60.2863 52.267 60.8512 44.6959 58.6165C36.1096 56.0823 32.5343 48.6196 29.1742 49.5911C26.4569 50.3767 19.9464 55.2045 18.3125 58.2618C10.5987 72.6952 19.9464 82.8088 22.0752 85.7137L24.1422 86.6064L24.2136 88.4496L24.3137 89.6069C24.4994 91.8216 24.5708 92.0216 25.571 92.7646C28.0714 94.6649 33.0009 96.4367 37.4588 97.0654C39.5306 97.3511 44.0314 97.2511 45.746 96.8796Z" fill="white"/>
<path fill-rule="evenodd" clip-rule="evenodd" d="M24.9547 87.7748L25.0547 88.9321C25.2405 91.1468 25.3119 91.3468 26.3121 92.0898C27.7872 93.2109 30.1076 94.2872 32.6778 95.1105C34.4645 95.6828 36.3718 96.1328 38.1998 96.3906C40.2716 96.6764 44.7724 96.5763 46.487 96.2048C47.3345 96.0212 40.3634 90.5445 36.2566 92.0898C33.1028 93.2766 25.6694 84.2242 28.6917 81.8592C32.0821 79.2063 25.8695 68.7424 25.6694 66.4707C25.4694 64.199 24.6816 63.6562 24.6586 63.7359C24.6357 63.8156 24.6357 64.0874 24.6975 64.7422C24.9641 67.5651 24.9547 87.7748 24.9547 87.7748Z" fill="#E7EAEE"/>
<path fill-rule="evenodd" clip-rule="evenodd" d="M24.2094 65.8223C24.5094 65.7639 24.7999 65.9598 24.8583 66.2597C25.9367 71.7999 30.4981 75.5506 38.6545 77.5119C46.8594 79.4849 52.4482 79.3784 55.393 77.2725C55.6416 77.0947 55.4562 78.6171 55.2742 78.7338C53.3535 79.9655 46.8235 81.8032 39.0309 80.1422C29.0672 78.0185 24.3889 69.6404 23.772 66.4712C23.7136 66.1712 23.9095 65.8807 24.2094 65.8223Z" fill="#FFB61D"/>
<path fill-rule="evenodd" clip-rule="evenodd" d="M20.056 55.8262C20.3212 55.6744 30.2174 67.0163 43.7983 69.5836C57.3793 72.1509 60.6675 70.5181 61.196 67.0163C61.2416 66.7141 61.5236 66.5061 61.8258 66.5518C62.1279 66.5974 62.3359 66.8793 62.2903 67.1815C61.6204 71.6195 55.3363 72.6751 43.6122 70.6745C32.0354 68.699 24.0983 64.0054 19.8505 56.5813C19.6987 56.316 19.7907 55.978 20.056 55.8262Z" fill="#FFB61D"/>
<path fill-rule="evenodd" clip-rule="evenodd" d="M77.0562 55.1974C76.6847 55.0688 76.2846 54.7831 76.0274 54.4544L75.5988 53.9258L77.1133 52.4255C79.4423 50.1394 81.2283 47.7961 82.7714 45.0099C83.2858 44.0812 84.586 40.9807 84.586 40.6806C84.586 40.5806 84.7432 40.1805 84.929 39.7662C85.2147 39.1661 85.429 38.9375 86.0434 38.5945C86.7721 38.1659 87.6009 38.023 87.9581 38.2659C88.6439 38.7231 88.6439 40.1662 87.9581 42.6524C87.2008 45.3814 86.1863 47.3389 84.086 50.1537C83.7573 50.5823 83.1429 51.4253 82.7 52.0112C81.5141 53.5829 80.7425 54.3401 79.6995 54.926C78.6707 55.4975 78.0706 55.5689 77.0562 55.1974ZM87.3151 53.9115L88.3438 54.3687C88.5572 54.4672 90.9103 55.5979 93.737 56.9561C98.2945 59.1459 104.083 61.9272 104.118 61.9272C104.175 61.9272 104.443 61.3072 104.504 60.5841C104.647 59.0267 105.175 56.912 105.79 55.4403C106.076 54.7831 106.304 53.9616 106.304 53.8902C106.304 53.8576 106.072 53.7639 105.692 53.6105C105.239 53.4279 104.576 53.1607 103.847 52.8113C100.246 51.0824 93.2018 47.5532 92.3303 47.0246C91.473 46.5245 91.3015 46.4816 91.3015 46.8103C91.3015 47.2389 90.4299 49.225 89.7584 50.2966C89.4012 50.8824 88.701 51.9397 88.201 52.6398L87.3151 53.9115ZM103.875 59.3553C104.285 59.5928 103.575 59.9411 103.404 59.9983C102.394 60.084 101.205 59.8941 100.232 59.3267C99.7224 58.9656 95.7131 56.7382 93.0536 55.2607C91.8377 54.5852 90.904 54.0664 90.7157 53.9544C90.1156 53.5972 89.5441 53.2114 89.444 53.0971C89.144 52.7113 89.4297 52.5398 90.2728 52.6113C90.7795 52.6542 102.99 58.8424 103.875 59.3553ZM49.696 95.3389L49.6961 95.3389L49.6978 95.3382C49.9635 95.2261 50.1921 95.1296 50.3658 95.0595C51.2519 94.7022 53.9521 90.8894 54.9237 86.5886C55.6239 83.4166 55.9811 78.9016 55.581 78.1443C55.3399 77.7058 56.7719 79.1761 57.839 80.2716L57.8393 80.2719L57.8395 80.2721L57.8399 80.2724L57.8401 80.2727L57.8402 80.2729C58.1637 80.6049 58.4536 80.9025 58.653 81.1019C64.8826 87.2887 74.1557 92.261 83.7859 94.59C88.5867 95.7616 92.0016 96.176 96.5881 96.176C104.289 96.176 110.362 94.6614 115.877 91.3323C116.139 91.1742 116.385 91.0288 116.619 90.8903C118.541 89.7521 119.687 89.074 122.821 85.5456C126.337 81.5877 129.465 72.4004 130.508 69.2284C130.966 67.7996 132.08 62.1166 132.08 60.6984C132.08 59.0194 131.494 58.2265 130.694 57.4121C129.28 56.0261 127.365 55.5261 125.779 56.1262L125.036 56.4119L124.807 55.6546C124.479 54.5116 123.793 53.5971 122.736 52.9113C121.164 51.8683 120.935 51.7968 119.521 51.7968C118.42 51.7968 118.12 51.854 117.42 52.1826L116.606 52.5541L116.434 52.0397C116.106 50.9824 115.004 49.5084 114.148 49.0821C113.39 48.7039 112.077 48.6693 111.162 48.8392C109.162 49.2107 107.733 50.1394 107.147 51.4396C106.976 51.8397 106.761 52.154 106.676 52.154C106.604 52.154 103.789 51.3679 100.432 49.8819C99.8653 49.6305 99.3333 49.3947 98.8336 49.1732C92.804 46.5007 91.4971 45.9214 91.6158 45.1957C91.7159 44.5813 91.6873 44.2384 91.5158 43.7097C91.2158 42.8238 90.8728 42.5809 89.9013 42.5809C89.1297 42.5809 89.1297 42.5809 89.2154 42.1952C89.6726 40.0091 89.6583 38.7517 89.1726 37.9516C88.8439 37.4229 88.4581 37.2086 87.5723 37.08C87.0579 37.0085 86.815 37.0514 86.2435 37.3658C85.8577 37.5658 85.5291 37.7087 85.5005 37.6801C85.4719 37.6515 85.5719 36.8657 85.7291 35.9369C86.9007 29.0643 85.9956 23.1429 83.0094 16.856C82.9807 16.7959 82.9476 16.7248 82.9097 16.6434C82.0019 14.6943 78.3515 6.85714 67.9117 2.90261C67.4392 2.72362 66.9921 2.55055 66.5623 2.38422L66.5623 2.3842C63.0061 1.00771 60.642 0.0926279 54.938 0.102124C48.5447 0.112768 46.3794 1.01657 42.1644 2.94548C41.5786 3.21695 41.0642 3.37412 41.0213 3.31697C40.9785 3.24553 40.707 3.07407 40.4355 2.93119C40.164 2.78831 39.5782 2.4311 39.1496 2.14534C37.9208 1.31662 37.1635 0.973704 36.7777 1.05943C36.3348 1.17374 36.3348 1.54523 36.7777 1.71669C36.9635 1.78813 37.1778 2.03103 37.2635 2.27393C37.4493 2.78831 37.6636 2.84546 37.7922 2.41681C37.8493 2.25964 37.9351 2.14534 37.9779 2.17391C37.9942 2.18204 38.0486 2.20751 38.1316 2.24637L38.1316 2.24639L38.1317 2.2464C38.3405 2.34418 38.7304 2.52669 39.1496 2.73115C39.7354 3.01692 40.3783 3.31697 40.5498 3.38841C40.8641 3.50272 40.7641 3.58844 39.4067 4.38858C34.1058 7.50341 29.7908 12.3471 27.3761 17.8624C27.0046 18.6911 26.676 19.2054 26.333 19.4912C25.4615 20.2199 23.7469 22.2917 23.3468 23.1061C23.1325 23.5491 22.6753 24.2349 22.3181 24.635C21.9751 25.035 21.6037 25.5494 21.4751 25.7637C21.3608 25.9923 21.2464 26.1495 21.2036 26.1209C21.175 26.0781 21.2179 25.378 21.3179 24.5635C21.5322 22.6632 21.5322 22.1631 21.3608 22.1202C21.1036 22.0488 20.7321 23.049 20.5749 24.292C20.4606 25.0493 20.432 26.1924 20.5035 27.364L20.5892 29.2215L19.5747 27.5783C19.2255 27.0284 18.8817 26.4784 18.6377 26.0881L18.6376 26.088L18.6375 26.0878L18.6371 26.0872C18.482 25.8392 18.3673 25.6557 18.3174 25.578C17.9459 25.035 17.7315 24.2206 17.8887 23.9491C17.9744 23.792 17.9602 23.7205 17.8173 23.7205C17.5172 23.7205 16.9314 24.6778 16.5456 25.778C16.3599 26.2924 16.1741 26.721 16.117 26.721C15.9027 26.721 16.0027 21.6059 16.2313 19.9627C16.7028 16.7193 17.9459 12.7186 18.5031 12.7186C18.6174 12.7186 18.7174 12.6615 18.7174 12.5757C18.7174 12.3185 18.3459 12.4186 18.0459 12.7472C17.3743 13.4759 16.4885 15.7191 15.9312 18.1053C15.5455 19.7484 15.3026 21.8631 15.2168 24.1635C15.1454 26.1495 15.174 26.4781 15.4597 27.564C15.7884 28.7785 16.0455 29.1357 16.4885 28.9643C16.6456 28.9071 16.7171 28.6928 16.7171 28.2927C16.7171 27.9784 16.8885 27.0354 17.1029 26.1924L17.4744 24.6778L17.6315 25.3065C17.8316 26.0352 19.0032 28.2927 20.0605 29.9359C20.7892 31.0504 20.8035 31.1218 21.0464 32.865C21.175 33.8509 21.5751 36.2489 22.5038 39.9376C23.3244 43.1969 27.9375 46.4301 29.0894 47.2374C29.2412 47.3438 29.3329 47.408 29.3479 47.4246C29.4907 47.5818 29.6908 47.6675 29.8051 47.6247C29.9337 47.5818 30.0051 47.639 30.0051 47.7961C30.0051 47.939 30.1051 48.1248 30.2194 48.2105C30.3623 48.3105 30.4623 48.6963 30.4909 49.3678C30.5624 50.7109 31.5625 53.2828 32.3341 54.1258C32.8342 54.6688 33.8772 54.8974 35.0346 54.6973C35.7918 54.583 36.0062 54.4973 35.9347 54.3258C35.8919 54.2115 36.1633 54.3544 36.5348 54.6402C40.8784 57.955 45.2792 59.9411 50.2229 60.7984C52.1375 61.127 55.3095 61.3128 57.0384 61.1842L57.0385 61.1842H57.0385C58.147 61.1117 58.4517 61.0917 58.5082 61.2006C58.5297 61.2419 58.5154 61.3017 58.4958 61.3842C58.3958 61.7843 58.5244 62.0272 60.6247 65.585C62.2964 68.3997 62.4393 68.5855 64.2968 70.4858C68.2403 74.5579 72.5411 77.7156 77.4134 80.1589C81.9999 82.445 89.3225 84.3454 96.0166 84.9455C102.711 85.5456 107.519 79.4016 107.504 77.8299C107.476 75.6724 107.176 74.2579 106.447 72.8862C105.733 71.5574 105.261 71.1002 103.118 69.6714C100.732 68.0854 99.26 66.7852 98.2884 65.3992C97.674 64.5276 97.4454 63.5417 97.4454 63.0131C97.4454 62.6702 97.8884 61.8986 98.5456 61.7414C99.1457 61.5842 99.26 61.5985 99.9316 61.9272C100.332 62.1129 101.375 62.5987 102.232 63.0131C103.104 63.4131 103.947 63.8132 104.118 63.8989C104.623 64.0394 104.837 65.0288 104.953 65.5651C104.979 65.6849 105 65.7821 105.018 65.8421C105.218 66.5851 106.165 67.5445 106.776 67.8711C107.848 68.4446 110.491 68.5213 111.22 67.7355C111.405 67.5354 112.021 67.2895 112.148 67.364C112.275 67.4385 112.734 68.0568 112.734 68.5569C112.748 69.4142 113.191 70.2 114.134 70.9859C115.92 72.4719 117.306 72.8291 118.706 72.1718C119.435 71.8289 120.032 71.6949 120.032 71.6949C120.032 71.6949 120.628 72.4549 120.664 72.7148C120.944 74.7448 123.95 75.5959 124.75 75.6816C124.933 75.6999 125.29 75.6215 125.653 75.5418L125.653 75.5418C126.138 75.4353 126.632 75.3265 126.736 75.4438C126.94 75.6741 123.321 81.6592 122.821 82.4165C118.063 89.5605 108.805 93.9327 97.474 94.39C90.1156 94.69 81.0711 92.6325 73.2269 88.889C68.2118 86.4743 63.7681 83.5166 59.0102 79.3731C58.1814 78.6587 57.2241 77.8442 56.8812 77.5585C56.5383 77.287 55.7239 76.3582 55.0952 75.501C54.0379 74.0721 53.4378 73.5578 53.4378 74.0436C53.4378 74.2579 54.1236 75.5724 54.9094 76.8726C55.2238 77.387 55.4238 77.7442 55.3524 77.6871C55.2809 77.6299 55.0523 78.6586 54.838 79.9732C54.1379 84.1882 52.9805 88.3461 51.8089 90.9322C51.1659 92.3325 49.9331 93.3781 49.5616 93.6639C48.1899 94.7069 46.1365 95.1758 43.2931 95.4616C39.6925 95.8188 34.3916 95.0186 30.348 93.5041C29.2764 93.104 26.5188 91.9467 26.333 91.8181C26.3219 91.8069 26.2586 91.3959 26.1703 90.8223L26.1365 90.6031L26.0901 90.3035C25.5758 86.7744 24.8614 73.1863 24.8614 66.8995C24.8614 64.299 24.8328 63.7275 24.6613 63.7275C24.3041 63.7275 24.1612 64.0704 24.0041 65.2992C23.6469 68.0997 23.7183 82.7165 24.1041 85.7885L24.1898 86.4886L23.704 86.2171C22.961 85.7885 20.132 82.9165 19.1461 81.5877C18.3115 80.4517 17.8154 78.9968 17.4443 77.9083C17.3579 77.6551 17.2784 77.4218 17.2029 77.2169C15.1311 71.473 15.8598 65.0277 18.7174 59.2267C21.1464 54.283 24.1327 51.5396 28.5049 50.2108C29.2193 49.9965 29.8479 49.7679 29.9194 49.7108C30.1909 49.4536 28.4477 49.5822 27.4904 49.8822C24.3756 50.8395 21.1179 53.4543 18.9032 56.7977C15.7884 61.4842 14.3881 68.3997 15.374 74.3008C15.6026 75.701 16.5313 78.7301 16.7885 78.9444C16.8113 78.9672 16.9288 79.2137 17.1065 79.5865L17.1066 79.5866L17.1066 79.5867L17.1066 79.5868C17.5981 80.6178 18.5498 82.6143 19.2318 83.5166C20.0605 84.6454 22.561 87.103 23.604 87.8603L24.2613 88.3318L24.3613 89.4891C24.547 91.7038 24.6185 91.9038 25.6186 92.6468C28.1191 94.5471 33.0485 96.3189 37.5064 96.9475C39.5782 97.2333 44.079 97.1333 45.7936 96.7618C46.8956 96.5207 48.606 95.7989 49.6955 95.3391L49.6958 95.339L49.696 95.3389ZM94.0877 83.3452C85.7863 82.6165 75.7559 78.6584 68.4975 72.543C65.4399 69.9569 61.4677 64.9277 59.896 62.1415C59.5674 61.57 59.3245 61.2985 59.0387 61.2271C58.7387 61.1413 58.9959 61.0556 60.2247 60.8556C65.4113 59.9697 70.455 57.8122 74.5271 54.7402L75.1273 54.2973L75.2987 54.7116C75.6845 55.6404 77.1705 56.5834 78.2707 56.5834C78.7136 56.5834 80.1996 55.9118 81.0997 55.2974L81.7141 54.8831L82.2142 55.3832C82.6714 55.8404 82.7572 55.869 83.6144 55.869C84.6003 55.869 85.7863 55.426 86.4435 54.7974L86.8007 54.4687L87.8152 55.1403C88.3581 55.5261 89.8727 56.3691 91.1729 57.0406C93.1161 58.0408 95.1736 59.1981 97.1311 60.3983L97.4454 60.5984L97.1454 60.9984C96.831 61.4271 96.2455 62.2415 96.2455 63.4846C96.2455 64.8848 97.7015 67.4006 100.489 69.1284C102.679 70.4858 106.447 73.1558 106.304 77.0584C106.287 77.5298 105.761 78.7015 105.061 79.7588C104.604 80.4304 103.332 81.4306 102.175 82.0164C100.203 83.0023 96.731 83.5738 94.0877 83.3452ZM17.903 19.2055C18.2888 19.2912 18.546 19.4198 18.4888 19.4769C18.3031 19.6627 17.3172 19.5769 17.0886 19.3483C16.7314 19.0054 16.8171 18.7625 17.3172 18.6625C17.5744 18.6196 17.9602 18.4053 18.1745 18.191C18.3888 17.9767 18.5746 17.8766 18.5746 17.9481C18.5746 18.1338 17.8601 18.7911 17.5029 18.934C17.2743 19.034 17.3458 19.0769 17.903 19.2055ZM23.5897 19.4341C24.0041 19.2054 23.9183 19.0483 23.4325 19.1197C22.9467 19.1912 22.9182 19.134 23.2325 18.6482C23.3611 18.4625 23.4325 18.191 23.404 18.0481C23.3611 17.8624 23.2611 17.9481 23.0325 18.4053C22.861 18.7339 22.6181 19.0054 22.5038 19.0054C22.1466 19.0054 22.118 19.2912 22.4609 19.4198C22.9039 19.6055 23.2468 19.6055 23.5897 19.4341ZM18.646 11.6327C18.3031 11.6899 17.2315 12.1185 16.2884 12.59C15.3311 13.0472 14.5167 13.433 14.4596 13.4187C13.0022 13.2616 15.0311 10.8326 18.7174 8.34642C22.2466 5.96029 24.6328 4.70292 26.8474 4.05996C28.2334 3.65989 29.7908 3.60273 30.2337 3.93136C30.4766 4.11711 30.3909 4.1314 29.3336 4.14568C27.0475 4.14568 24.4041 5.31732 20.1034 8.18925C17.8744 9.67522 15.2883 11.8042 15.2883 12.1471C15.2883 12.2185 15.7026 12.0756 16.217 11.847C17.3172 11.3469 18.446 11.0898 18.946 11.2041C19.4747 11.3469 19.3604 11.5327 18.646 11.6327ZM24.1755 12.8615C25.5186 12.59 25.5758 12.5757 25.5758 12.4328C25.5758 12.3614 25.0614 12.29 24.4184 12.2614L23.2611 12.2185L24.3327 11.004C24.9185 10.3325 25.6043 9.66093 25.8472 9.50376C26.3759 9.16084 26.4045 8.91794 25.9758 8.77506L25.6472 8.67504L26.0044 8.54645C26.2045 8.47501 26.5759 8.44643 26.8331 8.4893C27.2189 8.54645 27.3046 8.51787 27.2618 8.31784C27.2189 8.1178 27.0617 8.07494 26.3616 8.08923C24.3184 8.1178 23.4468 8.66076 25.0471 8.91794C25.49 8.98938 25.8615 9.10369 25.8615 9.17513C25.8615 9.23228 25.7901 9.28944 25.7044 9.28944C25.4329 9.28944 23.1325 11.6184 22.8467 12.1899C22.4038 13.0329 22.6467 13.1615 24.1755 12.8615ZM33.6057 7.31767C33.1914 7.34624 33.0914 7.41768 33.1199 7.61772L33.1243 7.64681L33.1243 7.64685C33.1404 7.75252 33.1496 7.81323 33.1259 7.83167C33.0939 7.85656 33.002 7.8044 32.7859 7.68184L32.7484 7.66058C32.477 7.5177 32.4484 7.44626 32.6056 7.33195C32.7056 7.24622 32.9771 7.11763 33.1914 7.07477L33.5915 6.97475L33.2914 6.66041C33.1342 6.47466 33.0485 6.3032 33.0914 6.24605C33.2057 6.13174 34.6059 6.28891 34.806 6.44608C34.8917 6.51753 35.0203 6.50324 35.106 6.41751C35.306 6.21747 35.5775 6.37464 35.5775 6.68898C35.5775 6.86044 35.5346 6.87473 35.4061 6.74614C35.2917 6.63183 35.1917 6.63183 35.0631 6.73185C34.9488 6.83187 34.8631 6.83187 34.7917 6.71756C34.7488 6.64612 34.4773 6.57468 34.1916 6.57468C33.9279 6.57468 33.8033 6.57468 33.7778 6.62492C33.755 6.66998 33.812 6.75546 33.9201 6.9176C34.148 7.2737 34.1345 7.2748 33.6106 7.31727L33.6057 7.31767ZM31.4339 3.517C31.4339 3.33126 31.2625 3.00263 31.0482 2.78831L30.6481 2.38824L32.7913 2.47397C33.9772 2.53112 35.3203 2.65971 35.7918 2.78831C36.2633 2.90261 36.8063 2.98834 37.0063 2.98834C37.3064 2.98834 37.2492 2.93119 36.692 2.63114C35.7204 2.13105 34.4773 1.88815 32.0912 1.71669C29.2336 1.51666 27.7904 1.78813 28.0619 2.50254C28.1048 2.64542 28.3334 2.71686 28.6763 2.71686C29.3764 2.71686 30.5195 3.13122 30.9053 3.517C31.3196 3.93136 31.4339 3.93136 31.4339 3.517ZM24.4613 41.3522C25.6186 42.8381 27.1475 44.5241 27.8619 45.0957C28.2905 45.4386 28.662 45.7243 28.6906 45.7243C28.7049 45.7243 28.3905 45.0671 27.9905 44.267C26.3759 41.0521 25.4329 37.8516 24.99 34.1652C24.8899 33.3508 24.7328 32.6649 24.5613 32.3792C24.2184 31.8076 24.2184 31.0647 24.5756 30.3645C24.7613 29.993 24.8614 29.5215 24.8614 29.0072V28.2213L24.1755 28.9357C23.504 29.6358 22.861 29.9216 22.861 29.493C22.861 29.1786 23.9183 27.6641 24.4756 27.1926C24.9185 26.8211 24.9757 26.6925 25.1186 25.578C25.2186 24.9064 25.4472 23.7205 25.6329 22.9347C25.833 22.1488 25.9473 21.4773 25.9187 21.4487C25.8187 21.3487 22.4609 25.205 22.0037 26.4353C21.9033 26.7054 21.6322 27.1783 21.4179 27.464L21.0464 27.941C21.0464 27.941 21.1618 28.6089 21.2893 29.4483C21.4181 30.2964 21.4786 30.8794 21.5324 31.3986C21.6044 32.0933 21.6646 32.6738 21.8608 33.6222C22.0895 34.7939 22.3181 35.8083 22.3752 35.8798C22.4181 35.9655 22.6038 36.6228 22.7896 37.3515C23.1896 38.966 23.8612 40.5663 24.4613 41.3522ZM82.4428 54.8688L82.1428 54.5687C82.1428 54.5687 87.1228 48.2415 88.0152 45.9101C88.6962 44.1309 89.097 43.6264 89.6377 43.6264C89.9401 43.6264 90.187 43.6954 90.3013 43.8669C90.5014 44.1669 90.6941 44.5384 90.4369 45.8101C90.0083 47.8676 89.351 49.225 87.3793 52.154C86.922 52.8256 86.3362 53.5686 86.079 53.8258C85.4789 54.383 84.1288 54.9545 83.343 55.0831C82.8429 55.1546 82.7 55.126 82.4428 54.8688Z" fill="#00160A"/>
<path d="M122.005 68.8465C123.783 64.0033 123.514 62.9714 123.205 62.8704C123.205 62.8704 122.527 63.2562 122.227 64.0706C121.669 65.5995 119.762 69.6002 119.048 70.3146C118.205 71.1576 118.205 71.1576 117.347 71.1576C116.49 71.1576 114.017 69.8665 113.681 68.5939C113.142 66.5578 115.461 59.4841 115.518 59.0841L115.133 58.8126C114.875 59.0555 111.53 69.2001 107.131 66.5568C106.628 66.2541 105.559 64.8279 105.474 64.0706C104.998 61.8703 107.182 54.1761 107.554 52.5956C107.886 51.1811 109.617 49.8682 111.746 49.8682C115.018 49.8682 114.579 52.7283 116.044 53.7361C116.694 54.1828 117.761 53.373 118.09 53.3116C119.933 52.9687 120.64 53.368 121.991 54.4404C123.034 55.2682 123.806 56.9065 124.655 57.4838C125.127 57.8044 125.628 57.3661 125.792 57.2837C126.464 56.9463 127.906 57.198 128.306 57.4838C128.893 57.7395 130.33 59.1211 130.557 59.9246C131.586 63.5664 128.337 71.6401 127.11 73.1547C125.079 75.6617 120.228 73.6898 122.005 68.8465Z" fill="white"/>
<path fill-rule="evenodd" clip-rule="evenodd" d="M39.865 55.5756C43.7799 58.0474 47.8167 59.662 52.4175 60.1049C56.0467 60.4479 60.9401 59.9764 64.455 58.8333C67.4126 57.876 71.4133 55.224 74.0852 52.9808C79.2718 48.6372 82.5438 41.8524 83.9726 34.6512C84.1727 33.6367 84.4777 31.0867 84.4635 28.5577C84.4635 25.6143 83.1681 17.5709 79.2432 12.9331C71.1482 3.3677 57.8418 -0.941253 46.6587 2.74047C42.6246 4.06858 38.3294 6.47486 35.086 9.61826C30.9995 13.6047 27.9847 19.0342 26.7845 24.578C25.5272 30.4362 27.1627 37.4374 30.0061 43.1812C32.2779 47.7535 36.0214 53.1323 39.865 55.5756ZM78.0145 38.309C75.3283 46.3818 68.3271 52.4114 59.5255 54.2403C58.1824 54.5118 57.2537 54.6118 55.3677 54.6404C54.0389 54.6833 52.7101 54.669 52.4386 54.6404C46.2804 53.8974 41.5938 51.6256 37.2788 47.3105C35.3928 45.4102 34.5926 44.3815 33.421 42.3525C31.5778 39.1377 30.5919 35.8514 30.2919 31.8936C29.2631 18.3341 38.9648 7.0321 52.6243 5.86047C57.9824 5.40324 63.9263 7.04639 68.4414 10.2469C70.1131 11.4329 73.1422 14.4334 74.0852 15.8336C74.471 16.3909 78.2145 21.8633 78.8718 25.0067C79.7148 29.0931 79.3861 34.2083 78.0145 38.309Z" fill="white"/>
<path fill-rule="evenodd" clip-rule="evenodd" d="M84.469 28.5576C84.469 38.148 79.9325 48.6329 74.0778 53.1106C71.2845 55.247 67.6342 57.8338 64.4554 58.8332C59.7968 60.2978 52.418 60.1049 52.418 60.1049C52.418 60.1049 59.9459 59.0986 62.7356 57.9759C70.7353 54.7564 75.1022 49.8145 77.7988 45.0727C83.1216 35.7127 84.469 28.3246 84.469 28.5576Z" fill="#E7EAEE"/>
<path fill-rule="evenodd" clip-rule="evenodd" d="M52.5805 52.9257C48.7655 52.4399 44.9791 51.0825 41.9215 49.0679C40.1069 47.8819 37.3635 45.0957 36.0347 43.1097C34.1344 40.252 32.877 37.1944 32.2626 33.9081C31.8197 31.522 31.834 27.8499 32.2769 25.7209C32.7342 23.5491 33.32 21.8917 34.363 19.7913C35.5775 17.3623 36.8634 15.5763 38.7924 13.6474C42.0786 10.3611 45.8936 8.27505 50.4372 7.27488C51.9089 6.96054 57.2384 6.70335 57.4242 6.94625C57.467 7.01769 57.7528 7.20344 58.0528 7.36061C58.3529 7.53206 59.153 8.13217 59.8103 8.71798C60.7962 9.57528 61.2391 10.1182 62.0964 11.4613C62.6822 12.3758 63.1537 13.2045 63.1537 13.2759C63.1537 13.4331 63.611 13.7189 63.8681 13.7189C64.2253 13.7189 64.4682 12.6472 64.5397 10.7612C64.5826 9.71816 64.6683 8.86087 64.7254 8.86087C64.9255 8.86087 67.1259 10.0754 68.1546 10.7612C70.1692 12.1043 72.1839 13.9903 73.6698 15.9621C74.3414 16.848 74.4414 17.0766 74.4414 17.6195C74.4414 18.1196 74.5843 18.5054 75.0272 19.277C76.1417 21.2202 77.0133 23.6634 77.542 26.3639C77.8849 28.1785 77.8849 31.6077 77.5277 33.508C76.5561 38.7375 73.6698 43.9384 69.9121 47.239C66.7258 50.0252 63.3395 51.7398 59.3388 52.5828C57.9671 52.8828 53.8521 53.0829 52.5805 52.9257ZM42.3644 43.1525C42.493 43.0097 42.5787 42.7953 42.5359 42.6953C42.523 42.6653 42.3441 42.5812 42.0822 42.4581C41.4718 42.1711 40.4104 41.6721 39.9505 41.1522C38.1216 39.0661 37.4501 37.5087 37.0357 34.2939C36.6356 31.1647 36.9717 29.0493 37.693 25.6495C38.0448 23.991 38.9799 22.621 39.5617 21.7687C39.9573 21.1892 40.1895 20.849 39.964 20.8201C39.4067 20.7344 39.321 20.7772 38.7352 21.3345C37.4778 22.5347 36.9063 23.492 36.3062 25.3352C35.3775 28.2214 35.198 36.0213 37.0357 39.5376C38.8734 43.0539 42.0358 43.524 42.3644 43.1525ZM62.6822 31.1505C62.4396 33.3701 61.4106 36.58 60.2104 37.9802C59.6531 38.6375 57.6076 39.7662 55.881 39.5376C54.2133 39.3168 52.9091 38.5375 51.7946 36.8657C50.8373 35.4226 50.3429 33.6709 50.0086 31.4648C49.4313 27.6552 51.9518 23.2205 53.0377 22.1203C54.1379 20.9915 54.9237 20.5915 55.9239 20.5772C56.8955 20.5772 57.5242 20.7915 58.5101 21.4916C60.3104 22.749 63.1537 26.8373 62.6822 31.1505ZM43.4217 19.3341C43.7075 19.0055 43.7504 18.8483 43.6646 18.2339C43.6075 17.6624 43.4932 17.4338 43.1931 17.1909C42.6645 16.7622 42.0072 16.7622 41.5214 17.2195C41.1785 17.5481 41.1356 17.6624 41.1785 18.4482C41.2213 19.2913 41.2499 19.3484 41.7214 19.6056C42.3501 19.9485 42.9645 19.8485 43.4217 19.3341ZM52.3376 10.5183C49.7657 12.3615 48.6512 13.1187 47.4939 13.8332C46.5794 14.4047 46.2937 14.419 46.2937 13.9046C46.2937 13.6331 46.4937 13.3331 47.0081 12.8616L47.7225 12.2043L46.3365 12.0186C44.7791 11.8185 43.2646 11.3899 42.9359 11.0612C42.393 10.504 42.8645 10.3754 44.4076 10.6612C45.0934 10.7755 46.4223 10.9184 47.3653 10.9469L49.0799 11.0184L50.3229 10.1182C53.052 8.14646 55.881 7.03198 57.2384 7.37489C58.0814 7.57493 57.9814 7.80354 57.0241 7.91784C55.9239 8.04644 55.2524 8.41793 52.3376 10.5183Z" fill="white"/>
<path d="M56.0078 37.5799C56.0078 37.5085 56.0935 37.437 56.2078 37.437C56.3222 37.437 56.465 37.5085 56.5079 37.5799C56.5508 37.6656 56.465 37.7228 56.3079 37.7228C56.1364 37.7228 56.0078 37.6656 56.0078 37.5799Z" fill="white"/>
<path d="M56.8672 37.4514C56.8672 37.2942 57.2244 37.1514 57.6245 37.1514C57.9388 37.1657 57.9388 37.1657 57.6673 37.3657C57.353 37.6086 56.8672 37.6515 56.8672 37.4514Z" fill="white"/>
<path d="M54.651 37.08C54.6082 36.9657 54.551 36.7656 54.5081 36.6513C54.4653 36.5085 54.5367 36.437 54.7225 36.437C54.8796 36.437 55.0082 36.5227 55.0082 36.637C55.0082 36.7514 55.0511 36.9371 55.094 37.0657C55.1511 37.2229 55.1083 37.2943 54.9511 37.2943C54.8225 37.2943 54.6796 37.1943 54.651 37.08Z" fill="white"/>
<path d="M55.4108 36.7229C55.3394 36.2942 55.4965 36.1514 56.0109 36.1514C56.1681 36.1514 56.2967 36.2942 56.3538 36.5371C56.4681 36.9515 56.2824 37.1515 55.7823 37.1515C55.5537 37.1515 55.4537 37.0515 55.4108 36.7229Z" fill="white"/>
<path d="M53.9541 36.7944C53.6826 36.5801 53.6826 36.5801 53.9827 36.5801C54.1684 36.5801 54.297 36.6658 54.297 36.7944C54.297 37.0516 54.297 37.0516 53.9541 36.7944Z" fill="white"/>
<path d="M56.8239 36.7801C56.6381 36.5944 56.7239 36.0371 56.9525 35.9514C57.3668 35.7942 57.5526 35.8657 57.6383 36.2372C57.6955 36.4515 57.724 36.6372 57.6955 36.6515C57.5811 36.7801 56.9096 36.8658 56.8239 36.7801Z" fill="white"/>
<path d="M58.0974 36.4797C58.0546 36.4369 58.0117 36.2511 58.0117 36.0797C58.0117 35.8368 58.126 35.7367 58.4689 35.6653C58.769 35.6081 58.9547 35.6367 59.0405 35.751C59.1834 35.9796 59.1834 36.2654 59.0548 36.3368C58.7976 36.4797 58.1975 36.5655 58.0974 36.4797Z" fill="white"/>
<path d="M53.293 36.037C53.293 35.8656 53.4216 35.7227 53.6073 35.6798C53.9788 35.5798 53.9645 35.5655 54.036 35.937C54.0645 36.1513 53.9931 36.2371 53.693 36.2656C53.3787 36.3085 53.293 36.2514 53.293 36.037Z" fill="white"/>
<path d="M54.3825 36.0514C54.1825 35.8371 54.3111 35.437 54.5826 35.437C54.7683 35.437 54.8683 35.537 54.8683 35.7085C54.8683 35.98 54.5397 36.2086 54.3825 36.0514Z" fill="white"/>
<path d="M55.2389 35.6224C55.1246 35.3509 55.3675 35.1509 55.839 35.1509C56.0533 35.1509 56.1534 35.2366 56.1534 35.4224C56.1534 35.5795 56.0248 35.7224 55.839 35.7796C55.3675 35.8939 55.3389 35.8939 55.2389 35.6224Z" fill="white"/>
<path d="M59.3683 35.5799C59.4112 35.5085 59.4826 35.437 59.5255 35.437C59.5683 35.437 59.554 35.5085 59.5112 35.5799C59.4683 35.6656 59.3969 35.7228 59.354 35.7228C59.3111 35.7228 59.3254 35.6656 59.3683 35.5799Z" fill="white"/>
<path d="M56.5258 35.3371C56.4115 35.0513 56.5544 34.9084 57.0116 34.837C57.2688 34.8084 57.3831 34.8656 57.4116 35.0656C57.5117 35.5371 56.6972 35.7943 56.5258 35.3371Z" fill="white"/>
<path d="M53.0967 35.094C52.9681 34.6225 52.9967 34.5796 53.3682 34.5796C53.5682 34.5796 53.7254 34.6367 53.7254 34.7082C53.7254 34.7796 53.7682 34.9368 53.8111 35.0511C53.854 35.194 53.7682 35.2797 53.5253 35.3226C53.2539 35.3797 53.1539 35.3226 53.0967 35.094Z" fill="white"/>
<path d="M57.8672 34.9369C57.8672 34.6797 57.9672 34.5654 58.2387 34.494C58.6388 34.3939 58.8674 34.594 58.8674 35.0512C58.8674 35.2369 58.7531 35.2941 58.3673 35.2941C57.9243 35.2941 57.8672 35.2512 57.8672 34.9369Z" fill="white"/>
<path d="M52.6647 34.937C52.6218 34.8227 52.6504 34.7227 52.7218 34.7227C52.8076 34.7227 52.8647 34.8227 52.8647 34.937C52.8647 35.0513 52.8361 35.1513 52.8076 35.1513C52.779 35.1513 52.7218 35.0513 52.6647 34.937Z" fill="white"/>
<path d="M54.1097 35.0513C53.9096 34.8656 54.024 34.4655 54.2811 34.394C54.4383 34.3512 54.5955 34.3655 54.6383 34.4083C54.8098 34.5655 54.7098 34.9799 54.4955 35.0656C54.224 35.1656 54.224 35.1656 54.1097 35.0513Z" fill="white"/>
<path d="M59.2102 34.9512C59.053 34.5369 59.2245 34.2225 59.6245 34.1796C59.9246 34.1368 60.0103 34.1939 60.0103 34.4225C60.0103 34.8941 59.8531 35.1512 59.5674 35.1512C59.4102 35.1512 59.253 35.0655 59.2102 34.9512Z" fill="white"/>
<path d="M55.1106 34.7652C54.9391 34.6081 54.9962 34.3223 55.2391 34.2366C55.5106 34.1365 56.0822 34.4223 55.925 34.5795C55.7249 34.7509 55.2106 34.8795 55.1106 34.7652Z" fill="white"/>
<path d="M56.3542 34.4082C56.2256 34.2082 56.6828 33.8652 57.0543 33.8652C57.2258 33.8652 57.2972 33.951 57.2686 34.1081C57.2115 34.3939 56.4828 34.6225 56.3542 34.4082Z" fill="white"/>
<path d="M52.4373 34.308C52.4373 34.2365 52.3944 34.0794 52.3515 33.9508C52.3087 33.8222 52.323 33.7222 52.4087 33.7222C52.5944 33.7222 52.7373 34.2651 52.5659 34.3794C52.4944 34.4223 52.4373 34.3937 52.4373 34.308Z" fill="white"/>
<path d="M52.8227 33.9795C52.737 33.6651 52.9084 33.4365 53.2371 33.4365C53.4228 33.4365 53.6086 33.9938 53.4942 34.1795C53.3371 34.4224 52.8941 34.2795 52.8227 33.9795Z" fill="white"/>
<path d="M53.8218 34.051C53.6075 33.8367 53.7361 33.3223 54.0219 33.2509C54.2362 33.1937 54.3505 33.2652 54.4648 33.5224C54.5505 33.7081 54.5934 33.8939 54.5648 33.9224C54.422 34.051 53.9076 34.151 53.8218 34.051Z" fill="white"/>
<path d="M57.6825 34.0511C57.4967 33.8654 57.5825 33.7511 58.0111 33.5939C58.3683 33.4796 58.4683 33.4939 58.5398 33.6653C58.6684 34.0082 57.954 34.3369 57.6825 34.0511Z" fill="white"/>
<path d="M58.937 33.7221C58.7941 33.4935 58.9941 33.2935 59.3656 33.2935C59.8085 33.2935 59.9371 33.665 59.5371 33.7793C59.1084 33.8936 59.037 33.8793 58.937 33.7221Z" fill="white"/>
<path d="M60.1523 33.3791C60.1523 33.1648 60.4095 32.9362 60.5238 33.0505C60.6239 33.1505 60.4238 33.5792 60.2809 33.5792C60.2095 33.5792 60.1523 33.4934 60.1523 33.3791Z" fill="white"/>
<path d="M52.2526 33.1937C52.1954 33.1508 52.1525 32.9651 52.1668 32.8079C52.1668 32.5364 52.1811 32.5364 52.3097 32.8508C52.4526 33.1937 52.424 33.3652 52.2526 33.1937Z" fill="white"/>
<path d="M52.5226 32.9795C52.394 32.4794 52.4083 32.4365 52.7798 32.4365C53.1941 32.4365 53.4513 32.9652 53.137 33.1652C52.8083 33.3653 52.6226 33.3081 52.5226 32.9795Z" fill="white"/>
<path d="M57.4375 33.2648C57.4375 33.222 57.5089 32.9933 57.5947 32.7362C57.7947 32.1646 58.2376 32.1361 58.3377 32.6933C58.3805 32.9076 58.3948 33.0934 58.3805 33.1077C58.3091 33.1934 57.4375 33.322 57.4375 33.2648Z" fill="white"/>
<path d="M53.5375 32.9079C53.4804 32.865 53.4375 32.6936 53.4375 32.5364C53.4375 32.3078 53.4804 32.2935 53.6518 32.4364C53.7661 32.5364 53.8661 32.7079 53.8661 32.8079C53.8661 33.0222 53.6947 33.0793 53.5375 32.9079Z" fill="white"/>
<path d="M58.6805 32.6222C58.5948 32.1793 58.7805 31.9792 59.2235 32.0364C59.4378 32.065 59.5092 32.1936 59.5092 32.5079C59.5092 32.8651 59.4521 32.9508 59.1377 32.9794C58.8234 33.0223 58.752 32.9508 58.6805 32.6222Z" fill="white"/>
<path d="M60.0826 32.6792C59.8969 32.1077 59.954 31.9362 60.3398 31.8934C60.6827 31.8505 60.7256 31.8934 60.7256 32.2649C60.7256 32.5792 60.6399 32.7078 60.4256 32.765C60.2684 32.8078 60.1112 32.765 60.0826 32.6792Z" fill="white"/>
<path d="M52.0391 31.8648C52.0391 31.5934 52.0676 31.479 52.1105 31.6219C52.1391 31.7505 52.1391 31.9791 52.1105 32.122C52.0676 32.2506 52.0391 32.1363 52.0391 31.8648Z" fill="white"/>
<path d="M52.3942 32.0504C52.2084 31.8789 52.2942 31.3217 52.5228 31.236C52.8514 31.1074 53.0086 31.2645 53.0086 31.736C53.0086 32.0361 52.9371 32.1504 52.7514 32.1504C52.6085 32.1504 52.4371 32.1075 52.3942 32.0504Z" fill="white"/>
<path d="M53.2511 31.6647C53.194 31.4503 53.1654 31.2217 53.2226 31.1789C53.3654 31.036 53.4512 31.2646 53.4083 31.679L53.3654 32.079L53.2511 31.6647Z" fill="white"/>
<path d="M57.8672 31.5645C57.8672 31.4074 57.9386 31.3216 58.0101 31.3645C58.0958 31.4074 58.153 31.5503 58.153 31.6646C58.153 31.7789 58.0958 31.8646 58.0101 31.8646C57.9386 31.8646 57.8672 31.736 57.8672 31.5645Z" fill="white"/>
<path d="M58.5105 31.7506C58.3105 31.5363 58.4676 31.1505 58.7963 31.0648C59.2106 30.9648 59.2249 30.9648 59.3535 31.3792C59.4392 31.6363 59.3821 31.6935 59.0106 31.7506C58.782 31.7935 58.5534 31.7792 58.5105 31.7506Z" fill="white"/>
<path d="M59.8234 31.4791C59.6662 31.3363 59.7091 30.8647 59.8662 30.8647C59.952 30.8647 60.0091 30.8076 60.0091 30.7219C60.0091 30.6504 59.9234 30.579 59.8091 30.579C59.5662 30.579 59.3662 29.8789 59.5662 29.6788C59.8234 29.4216 60.1091 29.6931 60.2806 30.3932C60.3806 30.7647 60.4806 31.1934 60.5235 31.3363C60.5807 31.522 60.5235 31.5792 60.252 31.5792C60.0663 31.5792 59.8662 31.5363 59.8234 31.4791Z" fill="white"/>
<path d="M60.5958 30.7218C60.4958 30.2932 60.2386 29.4359 60.0529 28.8072C59.7671 27.8928 59.7385 27.6642 59.8957 27.5641C59.9957 27.4927 60.1243 27.4355 60.1672 27.4355C60.3243 27.4355 60.8959 30.3646 60.8387 30.9362L60.7958 31.5077L60.5958 30.7218Z" fill="white"/>
<path d="M51.8945 30.6505C51.8945 30.4219 51.9231 30.3362 51.966 30.479C51.9945 30.6076 51.9945 30.8077 51.966 30.9077C51.9231 30.9934 51.8945 30.8934 51.8945 30.6505Z" fill="white"/>
<path d="M52.1799 30.6215C52.237 30.1214 52.6514 30.0071 52.7657 30.4643C52.8657 30.8358 52.8943 30.7929 52.4656 30.9358C52.1656 31.0216 52.137 30.993 52.1799 30.6215Z" fill="white"/>
<path d="M58.2116 30.4931C58.0973 30.0788 58.3402 29.8359 58.7975 29.893C59.1404 29.9359 59.269 30.5503 58.9832 30.736C58.626 30.9647 58.2974 30.8646 58.2116 30.4931Z" fill="white"/>
<path d="M53.0078 30.3788C53.0078 30.1359 53.0793 30.0073 53.2364 30.0073C53.3793 30.0073 53.4365 30.1073 53.4079 30.3217C53.3364 30.7789 53.0078 30.8218 53.0078 30.3788Z" fill="white"/>
<path d="M51.7372 29.7787C51.7372 29.6216 51.78 29.5787 51.8229 29.693C51.8658 29.793 51.8515 29.9216 51.8086 29.9645C51.7658 30.0216 51.7229 29.9359 51.7372 29.7787Z" fill="white"/>
<path d="M52.0078 29.7361C52.0078 29.5218 52.0935 29.436 52.3079 29.436C52.5079 29.436 52.5793 29.5075 52.5508 29.6789C52.4793 30.0504 52.0078 30.0933 52.0078 29.7361Z" fill="white"/>
<path d="M52.7967 29.6072C52.6967 29.35 52.6967 29.35 53.1254 29.2357C53.3825 29.15 53.4397 29.1929 53.4397 29.4072C53.4397 29.7501 52.9253 29.9216 52.7967 29.6072Z" fill="white"/>
<path d="M57.9675 29.4072C57.8675 29.05 58.0532 28.8643 58.5533 28.8643C58.7962 28.8643 58.8677 28.95 58.8677 29.2215C58.8677 29.4358 58.7819 29.5787 58.6676 29.5787C58.5533 29.5787 58.3676 29.6215 58.2533 29.6644C58.1247 29.7073 58.0247 29.6215 57.9675 29.4072Z" fill="white"/>
<path d="M59.2112 29.0787C59.0969 28.7929 59.2683 28.5786 59.597 28.5786C59.797 28.5786 59.8684 28.6786 59.8684 28.9358C59.8684 29.193 59.797 29.293 59.5827 29.293C59.4255 29.293 59.254 29.193 59.2112 29.0787Z" fill="white"/>
<path d="M51.8672 28.8788C51.8672 28.5787 52.1958 28.2358 52.3387 28.393C52.3959 28.4359 52.4387 28.6359 52.4387 28.8216C52.4387 29.0503 52.353 29.1503 52.153 29.1503C51.9672 29.1503 51.8672 29.0503 51.8672 28.8788Z" fill="white"/>
<path d="M52.6522 28.7073C52.5379 28.3501 52.6665 28.1929 53.1523 28.1215C53.5953 28.0643 53.7382 28.5358 53.3524 28.8216C52.9809 29.0931 52.7523 29.0502 52.6522 28.7073Z" fill="white"/>
<path d="M57.8258 28.6214C57.7258 28.5356 57.6829 28.007 57.7686 28.007C57.7829 28.007 57.9972 27.9498 58.2544 27.8784C58.6831 27.7498 58.7116 27.7641 58.6974 28.1499C58.6831 28.4356 58.5973 28.5785 58.383 28.6357C57.9972 28.7357 57.9401 28.7357 57.8258 28.6214Z" fill="white"/>
<path d="M57.2969 28.2928C57.2969 28.1928 57.3397 28.15 57.3969 28.1928C57.4398 28.25 57.4398 28.3357 57.3969 28.3929C57.3397 28.4357 57.2969 28.3929 57.2969 28.2928Z" fill="white"/>
<path d="M58.896 28.0639C58.9389 27.821 59.3818 27.4638 59.4819 27.5781C59.5247 27.621 59.5962 27.7924 59.639 27.9782C59.7391 28.264 59.6962 28.2925 59.2961 28.2925C58.9532 28.2925 58.8532 28.2354 58.896 28.0639Z" fill="white"/>
<path d="M52.0078 28.05C52.0078 27.9785 52.0793 27.8357 52.1507 27.7214C52.265 27.5499 52.2936 27.5642 52.2936 27.8357C52.2936 28.0071 52.2364 28.15 52.1507 28.15C52.0793 28.15 52.0078 28.1071 52.0078 28.05Z" fill="white"/>
<path d="M52.4375 27.7354C52.4375 27.3354 52.7376 27.2068 52.9662 27.5068C53.109 27.7211 53.109 27.7926 52.9662 27.8926C52.6661 28.0783 52.4375 28.0212 52.4375 27.7354Z" fill="white"/>
<path d="M56.7807 27.5499C56.5235 27.2641 56.5235 27.2499 56.7664 27.3356C56.9092 27.3927 57.095 27.4356 57.1664 27.4356C57.2379 27.4356 57.295 27.5356 57.295 27.6499C57.295 27.95 57.095 27.9214 56.7807 27.5499Z" fill="white"/>
<path d="M53.7079 27.5357C53.0936 27.0642 53.0078 26.0068 53.5794 26.0068C53.9651 26.0068 54.3223 26.6069 54.2652 27.1642C54.2223 27.6786 54.0509 27.7929 53.7079 27.5357Z" fill="white"/>
<path d="M57.6259 27.621C57.6831 27.5782 57.7688 27.5782 57.826 27.621C57.8688 27.6782 57.826 27.721 57.7259 27.721C57.6259 27.721 57.5831 27.6782 57.6259 27.621Z" fill="white"/>
<path d="M59.782 27.0641C59.8248 26.9355 59.8677 26.8069 59.8677 26.7783C59.8677 26.7498 59.9392 26.7212 60.0106 26.7212C60.0963 26.7212 60.1535 26.8498 60.1535 27.007C60.1535 27.1784 60.0535 27.2927 59.9249 27.2927C59.7677 27.2927 59.7248 27.2213 59.782 27.0641Z" fill="white"/>
<path d="M52.293 27.021C52.293 26.6924 52.593 26.1494 52.7645 26.1494C53.0645 26.1494 52.8502 27.0639 52.5359 27.121C52.4073 27.1496 52.293 27.1067 52.293 27.021Z" fill="white"/>
<path d="M55.5107 26.8638L55.082 26.7638L55.4678 26.6638C55.8679 26.5495 56.1536 26.6352 56.1536 26.8781C56.1536 27.021 56.1394 27.021 55.5107 26.8638Z" fill="white"/>
<path d="M55.0078 26.1783C55.0078 25.5925 55.3364 25.5068 55.6365 26.0211C55.8365 26.364 55.8508 26.4355 55.6651 26.4355C55.5508 26.4355 55.365 26.4783 55.2364 26.5212C55.065 26.5927 55.0078 26.5069 55.0078 26.1783Z" fill="white"/>
<path d="M57.4948 26.3782C56.8519 26.0924 56.4375 25.3351 56.4375 24.435C56.4375 23.792 56.4947 23.6348 56.8804 23.2776C57.1233 23.049 57.3662 22.8633 57.4377 22.8633C57.752 22.8633 58.9094 23.9635 59.2951 24.6493L59.7381 25.4352L59.2666 25.9352C58.7236 26.5068 58.1235 26.6639 57.4948 26.3782Z" fill="white"/>
<path d="M54.5084 26.0067C54.4656 25.9352 54.4941 25.8638 54.5656 25.8638C54.6513 25.8638 54.7227 25.9352 54.7227 26.0067C54.7227 26.0924 54.6942 26.1495 54.6656 26.1495C54.6227 26.1495 54.5513 26.0924 54.5084 26.0067Z" fill="white"/>
<path d="M52.6378 25.778C52.6807 25.6494 52.7236 25.5208 52.7236 25.4922C52.7236 25.4636 52.8521 25.4351 53.0093 25.4351C53.3665 25.4351 53.3808 25.6637 53.0236 25.8637C52.6378 26.0637 52.5378 26.0495 52.6378 25.778Z" fill="white"/>
<path d="M53.7651 25.6068C53.4364 25.5639 53.3364 25.3782 53.5508 25.2496C53.6079 25.2067 53.8651 25.1353 54.1223 25.0781C54.5081 24.9924 54.5795 25.021 54.5795 25.2639C54.5795 25.5639 54.2795 25.6925 53.7651 25.6068Z" fill="white"/>
<path d="M54.8672 25.1208C54.8672 24.9493 54.8815 24.8493 54.9101 24.8779C54.9243 24.9065 55.0386 25.0493 55.1387 25.1922C55.3101 25.3923 55.2958 25.4351 55.0958 25.4351C54.9529 25.4351 54.8672 25.3208 54.8672 25.1208Z" fill="white"/>
<path d="M52.8672 25.0207C52.8672 24.9349 52.9386 24.8349 53.0101 24.7921C53.0958 24.7492 53.153 24.8064 53.153 24.9207C53.153 25.0493 53.0958 25.1493 53.0101 25.1493C52.9386 25.1493 52.8672 25.0921 52.8672 25.0207Z" fill="white"/>
<path d="M53.3957 24.8065C53.2814 24.5208 54.2958 24.2064 54.4673 24.4779C54.5959 24.7065 54.4673 24.8065 53.9243 24.9208C53.5957 24.9923 53.4528 24.9637 53.3957 24.8065Z" fill="white"/>
<path d="M54.7372 24.349C54.7372 24.1919 54.78 24.149 54.8229 24.2633C54.8658 24.3633 54.8515 24.4919 54.8086 24.5348C54.7658 24.5919 54.7229 24.5062 54.7372 24.349Z" fill="white"/>
<path d="M53.5218 24.1207C53.6932 23.8064 54.1933 23.292 54.3219 23.292C54.4648 23.292 54.4791 23.9635 54.3362 24.0493C54.2648 24.0778 54.0362 24.1493 53.8218 24.2064C53.5075 24.2779 53.4361 24.2636 53.5218 24.1207Z" fill="white"/>
<path d="M54.6653 23.7921C54.5081 23.3634 54.5796 23.1777 54.9225 23.1205C55.2797 23.0491 55.2797 23.0491 55.0511 23.492C54.7653 24.0635 54.7796 24.0635 54.6653 23.7921Z" fill="white"/>
<path d="M54.582 22.9345C54.582 22.9059 54.8678 22.7058 55.225 22.5058C55.6536 22.2486 55.9537 22.1629 56.168 22.22C56.4252 22.3058 56.3538 22.3629 55.7251 22.663C55.025 22.9773 54.582 23.0916 54.582 22.9345Z" fill="white"/>
<path d="M62.511 10.2753C62.1253 9.71806 61.3108 8.8179 60.725 8.27495C60.1392 7.732 59.7534 7.28906 59.8677 7.28906C60.1821 7.28906 62.5825 7.94632 63.1826 8.20351C63.6827 8.41783 63.697 8.44641 63.5684 8.88934C63.4969 9.14653 63.4398 9.7895 63.4398 10.3182C63.4398 10.8611 63.3969 11.2898 63.3398 11.2898C63.2683 11.2898 62.9111 10.8325 62.511 10.2753Z" fill="white"/>
<path d="M33.4355 53.5542C32.8497 53.2541 32.7211 53.0827 31.9781 51.611C30.9065 49.5249 30.8779 49.0391 31.8923 50.225C32.2924 50.6965 33.2211 51.6681 33.9498 52.3825C35.1929 53.5827 35.2501 53.6685 34.8357 53.6113C34.5357 53.5685 34.4214 53.597 34.4928 53.7113C34.6643 53.9685 34.1213 53.8971 33.4355 53.5542Z" fill="white"/>
<path fill-rule="evenodd" clip-rule="evenodd" d="M57.3817 79.586C57.2631 79.3044 57.3953 78.9799 57.677 78.8613L57.9848 78.7307C60.9778 77.4501 62.6957 76.6809 63.8629 75.4593C65.0302 74.2378 65.1699 72.4436 65.3892 71.3519C65.4494 71.0523 66.1278 71.5785 66.4274 71.6386C66.727 71.6988 66.9211 71.9905 66.8609 72.2901C66.5973 73.6027 65.8872 74.8541 64.7441 76.042C63.6049 77.226 61.3992 78.495 58.1064 79.8813C57.8247 79.9999 57.5003 79.8677 57.3817 79.586Z" fill="#00160A"/>
<path fill-rule="evenodd" clip-rule="evenodd" d="M70.917 22.576C71.1796 22.4197 71.5191 22.5058 71.6755 22.7684C73.2406 25.3977 74.0791 28.4033 74.0791 31.5303C74.0791 41.0038 66.3993 48.6836 56.9257 48.6836C54.4084 48.6836 51.9668 48.1407 49.731 47.1062C49.4536 46.9779 48.4059 45.9561 49.4611 46.3717C50.5164 46.7873 54.5991 47.72 56.9551 47.72C65.8175 47.72 72.0871 40.3926 72.0871 31.5303C72.0871 28.6039 70.917 26.0064 70.7245 23.3345C70.7022 23.0248 70.6544 22.7323 70.917 22.576Z" fill="#00160A"/>
<path fill-rule="evenodd" clip-rule="evenodd" d="M16.1126 64.4549C16.3081 64.2201 16.657 63.7456 16.8919 63.9412C17.8551 64.7435 18.8831 65.6732 19.9826 65.8526C21.1268 66.0393 22.4843 66.0393 24.0531 65.8494C24.3565 65.8126 24.6322 66.0288 24.669 66.3322C24.7057 66.6356 24.4895 66.9113 24.1861 66.948C22.5201 67.1497 21.0601 67.1497 19.8044 66.9448C18.5041 66.7326 17.2948 66.1598 16.1836 65.2342C15.9488 65.0386 15.917 64.6897 16.1126 64.4549Z" fill="#00160A"/>
<path d="M27.8623 45.0957C27.1479 44.5241 25.6191 42.8381 24.4618 41.3522C23.8617 40.5663 23.1901 38.966 22.79 37.3515C22.6043 36.6228 22.4185 35.9655 22.3757 35.8798C22.3185 35.8083 22.0899 34.7939 21.8613 33.6222C21.5184 31.9648 21.5909 31.4308 21.2898 29.4483C21.1623 28.6089 21.0469 27.941 21.0469 27.941L21.4184 27.464C21.6327 27.1783 21.9038 26.7054 22.0042 26.4353C22.4614 25.205 25.8191 21.3487 25.9192 21.4487C25.9477 21.4773 25.8334 22.1488 25.6334 22.9347C25.4476 23.7205 25.219 24.9064 25.119 25.578C24.9761 26.6925 24.919 26.8211 24.476 27.1925C23.9188 27.6641 22.8615 29.1786 22.8615 29.4929C22.8615 29.9216 23.5044 29.6358 24.176 28.9357L24.8618 28.2213V29.0071C24.8618 29.5215 24.7618 29.993 24.5761 30.3645C24.2189 31.0646 24.2189 31.8076 24.5618 32.3792C24.7332 32.6649 24.8904 33.3508 24.9904 34.1652C25.4334 37.8515 26.3764 41.0521 27.9909 44.2669C28.391 45.0671 28.7054 45.7243 28.6911 45.7243C28.6625 45.7243 28.291 45.4386 27.8623 45.0957Z" fill="white"/>
</svg>
