<?xml version="1.0" encoding="UTF-8"?> <svg xmlns="http://www.w3.org/2000/svg" width="2693" height="697" viewBox="0 0 2693 697" fill="none"><path d="M2342 483C2267 483 2217 427 2217 349C2217 271 2268 214 2342 214C2416 214 2469 271 2469 349C2469 427 2417 483 2342 483ZM2342 697C2541 697 2693 549 2693 349C2693 149 2541 0 2342 0C2143 0 1992 148 1992 349C1992 550 2144 697 2342 697ZM1592 483C1517 483 1466 427 1466 349C1466 271 1517 214 1592 214C1667 214 1718 271 1718 349C1718 427 1668 483 1592 483ZM1592 697C1790 697 1942 549 1943 349C1943 148 1790 0 1592 0C1394 0 1241 148 1241 349C1241 550 1394 697 1592 697ZM344 697C422 697 486 659 533 569L639 371V539C639 638 703 697 802 697C880 697 937 663 992 569L1236 158C1289 67 1251 0 1134 0C1071 0 1030 20 993 89L825 404V124C825 40 785 0 712 0C653 0 607 25 571 95L413 404V127C413 37 376 0 287 0H104C35 0 0 32 0 91C0 150 37 184 104 184H179V538C179 638 246 697 344 697Z" fill="#873EFF"></path></svg> 